<?xml version="1.0" encoding="utf-8"?>
<!-- Generator: Adobe Illustrator 25.4.1, SVG Export Plug-In . SVG Version: 6.00 Build 0)  -->
<svg version="1.1" id="Layer_1" xmlns="http://www.w3.org/2000/svg" xmlns:xlink="http://www.w3.org/1999/xlink" x="0px" y="0px"
	 viewBox="0 0 1200 700" style="enable-background:new 0 0 1200 700;" xml:space="preserve">
<style type="text/css">
	.st0{fill:#FFFFFF;}
</style>
<g>
	<path class="st0" d="M494.3,512.2c-0.2-0.1-0.3-0.3-0.5-0.4c-0.3,0-0.3,0-0.6-0.6c0-0.1-0.1-0.1-0.1-0.2c-0.1-0.1-0.2-0.2-0.3-0.3
		c0-0.1,0-0.3,0-0.4c0.1-0.1,0.3-0.3,0.4-0.4c0-107.6,0-215.2,0-322.8c0-0.7,0-1.4,0-2.1c0-0.1,0.1-0.1,0.1-0.1c0.1,0,0.1,0,0.2,0
		c0.4,0,0.8,0,1.3,0c62.1,0,124.3,0,186.4,0c0.3,0,0.3,0,0.5,0.2c0,0,0.1,0.1,0.2,0.2c1,0,1.9,0,2.9,0c0.2,0.1,0.3,0.3,0.5,0.4
		c0.4,0,0.8,0,1.2,0c0.2,0.1,0.3,0.3,0.5,0.4c1.4,0,2.8,0,4.1,0c0.2,0.2,0.4,0.5,0.7,0.4c0.1,0,0.2,0.1,0.3,0.2
		c0.1,0.1,0.2,0.2,0.3,0.2c0.3,0,0.7,0,1,0c0.4,0,0.7,0,0.8,0.4c0.3,0.1,0.6,0,0.9,0.1c0.1,0.1,0.3,0.3,0.5,0.4c0.4,0,0.8,0,1.2,0
		c0.2,0.1,0.3,0.3,0.5,0.4c0.7,0,1.4,0,2.1,0c0.1,0.1,0.2,0.2,0.3,0.3c0,0,0.1,0.1,0.2,0.1c0.3-0.1,0.5,0.1,0.7,0.3
		c0,0,0.1,0.1,0.2,0.1c0.4,0,0.8,0,1.2,0.1c0.2,0.2,0.4,0.4,0.7,0.4c0.1,0,0.1,0,0.2,0.1c0.2,0.2,0.4,0.4,0.7,0.3
		c0.2,0.1,0.3,0.3,0.5,0.4c0.5,0,1.1,0,1.6,0c0.3,0.3,0.6,0.6,0.9,0.9c0.3,0,0.6,0,0.8,0c0.2,0.3,0.5,0.5,0.9,0.4c0.1,0,0.1,0,0.2,0
		c0.1,0,0.1,0,0.2,0.1c0.6,0.4,0.6,0.4,0.9,0.4c0.3,0,0.3,0,0.5,0.2c0,0,0.1,0.1,0.2,0.2c0.3,0,0.5,0,0.7,0.3c0,0.1,0.1,0.1,0.2,0.2
		c0.1,0,0.3,0,0.4,0c0.2,0.1,0.3,0.3,0.5,0.4c0.1,0,0.3,0,0.4,0c0.3,0.3,0.5,0.6,0.9,0.8c0.1,0,0.3,0,0.4,0c0.3,0,0.4,0,0.5,0.2
		c0.1,0.1,0.2,0.2,0.3,0.2c0.2,0,0.4,0,0.6,0c0.4,0.2,0.6,0.6,0.9,0.8c0.3,0,0.5,0,0.8,0c0.3,0.3,0.6,0.6,0.9,0.8
		c0.1,0.1,0.3,0,0.4,0.1c0.2,0.1,0.3,0.3,0.5,0.4c0.1,0,0.3,0,0.4,0.1c0.2,0.2,0.5,0.5,0.7,0.7c0.1,0,0.3,0,0.4,0
		c0.3,0.3,0.6,0.6,0.9,0.8c0.3,0,0.5,0,0.8,0c0.4,0.4,0.8,0.8,1.2,1.2c0.2,0,0.4,0,0.6,0c0.4,0,0.4,0.1,0.5,0.5
		c0,0.3,0.1,0.4,0.4,0.4c0.2,0,0.4,0,0.7,0c0.3,0.3,0.7,0.7,1,1c0.1,0.2,0.3,0.2,0.7,0.3c0.2,0.2,0.5,0.5,0.7,0.7
		c0.2,0.1,0.4,0,0.6,0.2c0.4,0.4,0.8,0.8,1.2,1.1c0.1,0,0.3,0,0.4,0c0.2,0.2,0.5,0.5,0.7,0.7c0.1,0.1,0.2,0.1,0.4,0.1
		c0.1,0,0.3,0.1,0.3,0.2c0.1,0.6,0.1,0.6,0.6,0.6c0.4,0.3,0.8,0.8,1.2,1.1c0,0,0.4,0.1,0.6,0.1c1.4,1.4,2.8,2.8,4.1,4.1
		c0.2,0,0.4-0.1,0.6,0.1c0.1,0.1,0.1,0.2,0.1,0.4c0,0.1,0,0.1,0.1,0.2c0.1,0.2,0.3,0.3,0.4,0.4c0.1,0.1,0.2,0.1,0.4,0.1
		c0.3,0,0.3,0.1,0.4,0.4c0,0.3,0,0.3,0.5,0.4c0.2,0,0.3,0.2,0.3,0.4c0,0.1,0,0.1,0,0.2c0.1,0.1,0.1,0.1,0.2,0.2
		c0.1,0.1,0.3,0,0.4,0.1c0.3,0.1,0.4,0.3,0.6,0.5c0.1,0.1,0.1,0.2,0.1,0.4c0,0.3,0.1,0.3,0.4,0.3c0.1,0,0.1,0,0.2,0
		c0.1,0.1,0.2,0.2,0.2,0.3c0,0.2,0,0.3,0.1,0.4c1.1,1.1,2.2,2.2,3.2,3.2c0,0.1,0,0.3,0,0.5c0.2,0.2,0.4,0.4,0.6,0.5
		c0.2,0.2,0.2,0.3,0.3,0.7c0.4,0.4,0.8,0.8,1.2,1.2c0,0.1,0,0.3,0,0.4c0,0.1,0.1,0.1,0.1,0.2c0.6,0.6,1.3,1.3,1.9,1.9
		c0.1,0.4,0.1,0.6,0.3,0.7c0.2,0.2,0.4,0.4,0.6,0.6c0,0.1,0,0.3,0,0.4c0.1,0.1,0.2,0.2,0.3,0.3c0.2,0.2,0.4,0.4,0.5,0.6
		c-0.1,0.3,0.1,0.5,0.3,0.7c0,0,0.1,0.1,0.1,0.2c0,0.2,0.1,0.4,0.2,0.5c0.2,0.2,0.4,0.4,0.6,0.6c0,0.1,0,0.3,0,0.4
		c0.3,0.3,0.6,0.6,0.8,0.9c0,0.2,0,0.3,0,0.4c0.3,0.3,0.3,0.3,0.4,0.9c0.2,0.2,0.5,0.5,0.8,0.8c0,0.2,0,0.4,0,0.6
		c0,0.4,0.1,0.4,0.5,0.5c0.1,0,0.3,0.1,0.3,0.2c0,0.3,0,0.5,0,0.8c0.1,0.2,0.3,0.3,0.4,0.5c0,0.1,0,0.3,0,0.4
		c0.3,0.3,0.6,0.6,0.8,0.8c0,0.4,0,0.8,0,1.1c0,0.1,0.1,0.2,0.2,0.3c0.1,0,0.3,0,0.4,0c0.3,0.2,0.2,0.5,0.2,0.7c0,0.3,0,0.3,0.2,0.5
		c0,0,0.1,0.1,0.2,0.2c0,0.3,0,0.5,0.3,0.7c0.1,0,0.1,0.1,0.2,0.2c0,0.1,0,0.3,0,0.4c0.1,0.2,0.3,0.3,0.4,0.5c0,0.1,0,0.3,0,0.4
		c0.3,0.3,0.6,0.5,0.8,0.9c0,0.2,0,0.4,0,0.6c0,0.4,0,0.7,0.4,0.9c0,0,0,0.1,0.1,0.2c0.1,0.4,0.1,0.4,0.4,0.7c0,0.3,0,0.5,0.3,0.7
		c0.1,0,0.1,0.1,0.2,0.1c0,0.4,0,0.8,0,1.2c0.1,0.2,0.3,0.3,0.4,0.5c0,0.1,0,0.3,0,0.4c0.2,0.2,0.3,0.3,0.4,0.5c0,0.3,0,0.5,0,0.8
		c0.2,0.2,0.4,0.3,0.4,0.5c0,0.3,0.2,0.5,0.4,0.7c0.1,0.4,0,0.8,0.1,1.3c0.1,0.1,0.2,0.3,0.4,0.5c0.1,0.4,0,0.8,0,1.2
		c0.1,0.1,0.3,0.3,0.4,0.4c0,0.1,0,0.3,0,0.4c0.1,0.2,0.3,0.3,0.4,0.5c0,0.4,0,0.8,0,1.2c0.2,0.2,0.3,0.3,0.4,0.5
		c0,0.3,0,0.6,0.1,0.8c0.2,0.2,0.4,0.3,0.4,0.7c0,0.3,0,0.7,0,1c0,0.3,0.2,0.5,0.4,0.7c0,0.1,0,0.1,0,0.2c0,0.6,0,1.1,0,1.7
		c0,0.3,0,0.3,0.2,0.5c0,0,0.1,0.1,0.2,0.2c0,0.5,0,1.1,0,1.6c0.1,0.2,0.3,0.3,0.4,0.5c0,1.1,0,2.2,0,3.3c0.1,0.2,0.3,0.3,0.4,0.5
		c0,0.3,0,0.5,0,0.8c0.3,0.2,0.5,0.5,0.4,0.9c0,1.3,0,2.5,0,3.8c0,0.1,0,0.3,0.1,0.4c0.2,0.2,0.4,0.4,0.4,0.7c0,3.7,0,7.4,0,11.1
		c0,0.3-0.2,0.5-0.4,0.7c-0.1,0.5,0,1.1,0,1.6c0,0.7,0,1.4,0,2.1c0,0.4-0.1,0.7-0.4,0.9c0,0.1,0,0.3,0,0.4c0,0.1-0.1,0.1-0.1,0.2
		c-0.1,0.1-0.2,0.2-0.3,0.3c0,1.3,0,2.5,0,3.8c-0.1,0.2-0.3,0.3-0.4,0.4c0,0.6,0,1.1,0,1.7c-0.3,0.2-0.5,0.5-0.4,0.9
		c0,0.3,0,0.7,0,1c0,0.1,0,0.1-0.1,0.2c-0.1,0.1-0.2,0.2-0.3,0.3c0,0.1-0.1,0.1-0.1,0.2c0,0.6,0,1.3,0,1.9c0,0.1,0,0.1-0.1,0.2
		c-0.2,0.2-0.4,0.4-0.3,0.7c-0.1,0.2-0.3,0.3-0.4,0.5c0,0.7,0,1.4,0,2c-0.1,0.2-0.3,0.3-0.4,0.5c0,0.1,0,0.3,0,0.4
		c-0.1,0.2-0.3,0.3-0.4,0.5c0,0.3,0,0.5,0,0.8c-0.2,0.2-0.3,0.3-0.4,0.5c0,0.2,0,0.5,0,0.7c0,0.4,0,0.7-0.4,0.9c0,0-0.1,0.1-0.1,0.2
		c0.1,0.3-0.2,0.5-0.4,0.7c-0.1,0.4,0,0.8-0.1,1.3c-0.2,0.2-0.5,0.5-0.8,0.8c0,0.3,0,0.5,0,0.8c-0.1,0.2-0.3,0.3-0.4,0.5
		c0,0.3,0,0.5,0,0.8c-0.2,0.2-0.4,0.4-0.4,0.7c0,0.1-0.1,0.2-0.2,0.3c-0.1,0.1-0.2,0.2-0.2,0.3c0,0.3,0,0.7,0,1.1
		c-0.1,0.1-0.2,0.3-0.4,0.5c0,0.2,0,0.5-0.3,0.7c-0.1,0-0.1,0.1-0.2,0.1c0,0.1,0,0.3,0,0.4c-0.1,0.2-0.3,0.3-0.4,0.5
		c0,0.1,0,0.3,0,0.4c-0.1,0.2-0.3,0.3-0.4,0.5c0.1,0.3-0.1,0.5-0.3,0.7c0,0-0.1,0.1-0.1,0.2c0.1,0.3-0.2,0.5-0.4,0.7
		c0,0-0.1,0.1-0.1,0.2c0.1,0.3-0.2,0.5-0.4,0.7c0,0.3,0,0.5,0,0.8c-0.3,0.3-0.6,0.6-0.8,0.9c0,0.1,0,0.3,0,0.4
		c-0.1,0.1-0.3,0.3-0.4,0.5c0,0.1,0,0.3-0.1,0.4c-0.2,0.2-0.5,0.5-0.7,0.7c-0.1,0.1-0.1,0.3-0.1,0.4c0,0.1-0.1,0.1-0.1,0.2
		c-0.1,0.1-0.2,0.2-0.3,0.3c0,0.1,0,0.3,0,0.4c-0.1,0.1-0.3,0.3-0.4,0.4c0,0.1,0,0.3,0,0.4c-0.1,0.2-0.3,0.3-0.4,0.4
		c0,0.2,0,0.3,0,0.4c-0.2,0.2-0.5,0.5-0.7,0.7c0,0.1-0.1,0.1-0.1,0.2c-0.1,0.5-0.1,0.5-0.6,0.5c0,0-0.1,0.1-0.1,0.1
		c-0.2,0.6-0.2,0.6-0.4,0.9c0,0.1,0,0.3,0,0.4c-0.3,0.3-0.6,0.6-0.8,0.9c0,0.2,0,0.3,0,0.4c-0.4,0.4-0.8,0.8-1.2,1.2
		c0,0.1,0,0.3,0,0.4c-0.3,0.3-0.5,0.6-0.8,0.9c0,0.1,0,0.3,0,0.4c-0.3,0.3-0.5,0.5-0.7,0.7c-0.2,0.2,0,0.5-0.3,0.7
		c-0.3,0.2-0.5,0.5-0.7,0.7c-0.2,0.2-0.4,0.4-0.6,0.6c0,0-0.1,0.1-0.1,0.2c0,0.1,0,0.3,0,0.4c-1.2,1.2-2.5,2.5-3.7,3.7
		c0,0.1,0,0.1-0.1,0.2c-0.1,0.4-0.1,0.5-0.5,0.5c-0.3,0-0.3,0.1-0.4,0.6c0,0.1-0.1,0.1-0.1,0.2c-1.1,1.1-2.3,2.3-3.4,3.4
		c-0.5,0-0.6,0.1-0.7,0.5c0,0.3-0.1,0.3-0.6,0.3c-0.2,0.2-0.4,0.4-0.6,0.6c-0.1,0.1,0,0.3-0.1,0.5c-0.1,0.1-0.2,0.1-0.4,0.1
		c-0.3,0-0.3,0.1-0.4,0.4c0,0.3-0.1,0.4-0.3,0.4c-0.1,0-0.3,0-0.4,0.1c-0.6,0.6-1.3,1.3-1.9,1.9c-0.2,0.2-0.4,0.1-0.6,0.2
		c-0.4,0.4-0.8,0.8-1.2,1.2c-0.1,0-0.3,0-0.4,0c-0.3,0.3-0.6,0.6-0.9,0.8c-0.1,0-0.3,0-0.4,0c-0.4,0.4-0.8,0.8-1.2,1.2
		c-0.4,0.1-0.6,0.1-0.7,0.3c-0.2,0.2-0.4,0.4-0.6,0.6c-0.5,0-0.5,0-0.6,0.5c0,0.2-0.2,0.3-0.5,0.3c-0.1,0-0.1,0-0.2,0
		c-0.3,0.3-0.3,0.3-0.9,0.4c-0.2,0.2-0.5,0.5-0.7,0.7c-0.4,0.1-0.5,0.1-0.7,0.3c-0.2,0.2-0.4,0.4-0.6,0.6c-0.2,0-0.3,0-0.4,0
		c-0.1,0.1-0.1,0.1-0.2,0.2c-0.1,0.1-0.2,0.2-0.3,0.3c-0.1,0-0.3,0-0.4,0c-0.2,0.2-0.5,0.5-0.7,0.7c-0.2,0.1-0.4,0-0.6,0.2
		c-0.1,0.1-0.2,0.2-0.3,0.3c0,0-0.1,0-0.2,0c-0.2,0-0.3,0-0.4,0.1c-0.1,0.1-0.2,0.2-0.3,0.3c-0.1,0-0.3,0-0.4,0
		c-0.3,0.3-0.6,0.6-0.9,0.8c-0.2,0-0.3,0-0.4,0c-0.2,0.3-0.5,0.4-0.9,0.4c-0.1,0-0.1,0-0.2,0c-0.1,0-0.1,0-0.2,0.1
		c-0.2,0.2-0.5,0.5-0.8,0.8c-0.3,0-0.5,0-0.8,0c-0.2,0.1-0.3,0.3-0.5,0.4c-0.1,0-0.3,0-0.4,0c-0.2,0.2-0.4,0.4-0.6,0.6
		c-0.1,0.5,0,1.1,0,1.6c0.2,0.4,0.6,0.6,0.8,0.9c0,0.1,0,0.2,0,0.4c0.1,0.1,0.2,0.2,0.3,0.3c0.2,0.2,0.4,0.4,0.5,0.6
		c-0.1,0.3,0.2,0.5,0.3,0.7c0,0,0.1,0.1,0.1,0.2c0,0.2,0,0.3,0.1,0.4c0.2,0.2,0.4,0.4,0.3,0.7c0.1,0.2,0.3,0.3,0.4,0.5
		c0,0.1,0,0.2,0,0.4c0.3,0.3,0.6,0.6,0.8,0.9c0,0.2,0,0.3,0,0.4c0.3,0.3,0.3,0.3,0.4,0.9c0.2,0.2,0.5,0.5,0.8,0.8c0,0.3,0,0.5,0,0.8
		c0.3,0.3,0.6,0.6,0.9,0.9c0,0.1,0,0.3,0,0.4c0.1,0.2,0.3,0.3,0.4,0.5c0.1,0.1,0,0.3,0,0.4c0.2,0.2,0.5,0.5,0.7,0.7
		c0.1,0.3,0,0.5,0.1,0.9c0.2,0.3,0.5,0.6,0.8,0.9c0,0.1,0,0.3,0,0.4c0.1,0.2,0.3,0.3,0.4,0.4c0,0.1,0,0.3,0,0.4
		c0.1,0.1,0.2,0.2,0.3,0.3c0.2,0.2,0.4,0.3,0.5,0.6c-0.1,0.3,0.2,0.5,0.4,0.7c0,0,0.1,0.1,0.1,0.2c0,0.2,0,0.3,0.1,0.4
		c0.1,0.1,0.2,0.2,0.3,0.3c0,0.1,0,0.3,0,0.4c0.1,0.1,0.3,0.3,0.4,0.4c0,0.1,0,0.3,0,0.4c0.2,0.2,0.5,0.5,0.7,0.7
		c0,0,0.1,0.1,0.1,0.2c0,0.3,0,0.6,0,0.8c0.2,0.2,0.5,0.5,0.7,0.7c0,0.1,0,0.3,0.1,0.4c0,0.1,0.1,0.1,0.1,0.2
		c0.1,0.1,0.2,0.2,0.3,0.3c0,0.1,0,0.3,0,0.4c0.3,0.3,0.6,0.6,0.8,0.9c0,0.3,0,0.6,0,0.8c0.1,0.1,0.2,0.2,0.3,0.3
		c0.2,0.2,0.4,0.3,0.5,0.6c-0.1,0.3,0.2,0.5,0.4,0.7c0,0,0.1,0.1,0,0.2c0,0.2,0,0.3,0.1,0.4c0.2,0.2,0.5,0.5,0.7,0.7
		c0,0.3,0,0.6,0,0.9c0.2,0.2,0.4,0.4,0.6,0.6c0.1,0.1,0.2,0.2,0.2,0.3c0,0.1,0,0.3,0.1,0.4c0.2,0.2,0.5,0.5,0.7,0.7
		c0,0.3,0,0.5,0.3,0.7c0.1,0,0.1,0.1,0.2,0.2c0,0.1,0,0.3,0,0.4c0.3,0.3,0.6,0.6,0.9,0.9c0,0.3,0,0.6,0,0.8c0.3,0.3,0.5,0.5,0.8,0.8
		c0.1,0.1,0,0.3,0.1,0.4c0,0.2,0.2,0.3,0.4,0.5c0,0.2,0,0.4,0,0.6c0,0.3,0,0.4,0.5,0.5c0.3,0,0.3,0.1,0.3,0.4c0,0.2,0,0.4,0,0.6
		c0.3,0.3,0.6,0.6,0.8,0.9c0,0.2,0,0.4,0.2,0.6c0.2,0.1,0.3,0.3,0.2,0.5c0,0.1,0,0.1,0.1,0.2c0.2,0.2,0.5,0.5,0.8,0.8
		c0,0.3,0,0.5,0,0.8c0.3,0.3,0.6,0.6,0.8,0.9c0,0.1,0,0.3,0,0.4c0.1,0.2,0.3,0.3,0.4,0.5c0.1,0.1,0,0.3,0.1,0.4
		c0.2,0.2,0.5,0.5,0.7,0.7c0.1,0.3,0,0.5,0.1,0.8c0.2,0.4,0.6,0.6,0.8,0.9c0,0.1,0,0.3,0,0.4c0.1,0.2,0.3,0.3,0.4,0.4
		c0,0.1,0,0.3,0,0.4c0.2,0.2,0.4,0.4,0.6,0.6c0.2,0.2,0.3,0.2,0.2,0.5c0,0.4,0.1,0.7,0.4,0.9c0.2,0.1,0.3,0.3,0.4,0.4
		c0,0.1,0,0.3,0,0.4c0,0.1,0.1,0.1,0.1,0.2c0.1,0.1,0.2,0.2,0.3,0.3c0,0.2,0,0.3,0,0.4c0.2,0.2,0.5,0.5,0.7,0.7c0,0,0.1,0.1,0.1,0.2
		c0,0.2,0,0.4,0,0.6c0,0.1,0.1,0.2,0.2,0.3c0.2,0,0.4-0.1,0.6,0.2c0.1,0.1,0.1,0.2,0.1,0.4c0,0.1,0,0.1,0,0.2c0,0.3,0,0.3,0.2,0.5
		c0.2,0.2,0.4,0.4,0.6,0.6c0,0.1,0,0.3,0,0.4c0.1,0.1,0.3,0.3,0.4,0.4c0,0.1,0,0.3,0,0.4c0.1,0.1,0.1,0.1,0.2,0.2
		c0.1,0.1,0.2,0.2,0.3,0.3c0,0.1,0,0.3,0,0.4c0.3,0.3,0.3,0.3,0.4,0.9c0.2,0.2,0.5,0.5,0.7,0.7c0,0.3,0,0.5,0.3,0.7
		c0.1,0,0.1,0.1,0.2,0.2c0,0.1,0,0.3,0,0.4c0,0.6-0.1,0.5,0.5,0.6c0.2,0,0.3,0.2,0.3,0.4c0,0.1,0,0.3,0,0.4c0,0.1,0,0.1,0,0.2
		c0.1,0.1,0.2,0.2,0.3,0.3c0.2,0.2,0.4,0.3,0.5,0.6c-0.1,0.3,0.2,0.5,0.4,0.7c0,0,0.1,0.1,0.1,0.2c0,0.2,0,0.3,0.1,0.4
		c0.2,0.2,0.5,0.5,0.7,0.7c0,0.3,0,0.5,0,0.8c0.3,0.3,0.6,0.6,0.8,0.9c0,0.2,0,0.4,0.2,0.6c0.2,0.1,0.3,0.3,0.2,0.5
		c0,0.1,0.1,0.2,0.2,0.3c0.1,0.1,0.2,0.2,0.2,0.3c0,0.3,0.2,0.5,0.4,0.7c0,0.1,0,0.3,0,0.4c0.3,0.3,0.6,0.6,0.8,0.9
		c0,0.1,0,0.3,0,0.4c0.1,0.2,0.3,0.3,0.4,0.4c0,0.2,0,0.4,0,0.7c0,0.1,0.1,0.3,0.2,0.3c0.2,0.1,0.4-0.1,0.6,0.2
		c0.1,0.2,0.1,0.4,0.1,0.6c0,0.1,0,0.1,0,0.2c0,0.1,0,0.1,0.1,0.2c0.2,0.3,0.5,0.5,0.7,0.8c0,0.3,0,0.5,0,0.8
		c0.3,0.3,0.6,0.6,0.8,0.9c0,0.1,0,0.3,0,0.4c0.1,0.1,0.3,0.3,0.4,0.5c0,0.1,0,0.3,0.1,0.4c0.2,0.2,0.5,0.5,0.7,0.7
		c0.1,0.4,0.1,0.5,0.3,0.7c0,0,0.1,0.1,0.1,0.1c0,0.1,0,0.3,0,0.4c0.3,0.3,0.6,0.6,0.8,0.9c0,0.3,0,0.6,0,0.8
		c0.3,0.3,0.5,0.5,0.7,0.7c0.1,0.2,0,0.4,0.2,0.6c0.1,0.1,0.2,0.2,0.3,0.3c0,0,0.1,0.1,0,0.2c0,0.2,0,0.3,0.1,0.4
		c0.3,0.2,0.5,0.5,0.7,0.7c0,0.3,0,0.6,0,0.9c0.3,0.3,0.6,0.6,0.8,0.9c0,0.3,0,0.6,0.1,0.8c0.2,0.2,0.5,0.5,0.7,0.7
		c0,0.3,0,0.5,0.3,0.7c0.1,0,0.1,0.1,0.2,0.2c0,0.1,0,0.3,0,0.4c0.3,0.3,0.6,0.6,0.8,0.9c0,0.2,0,0.3,0,0.4c0.1,0.2,0.3,0.3,0.4,0.5
		c-0.1,0.3,0.2,0.5,0.4,0.7c0,0,0.1,0.1,0.1,0.2c0,0.3,0.2,0.5,0.4,0.7c0,0.1,0,0.3,0,0.4c0.3,0.3,0.6,0.6,0.8,0.9
		c0,0.2,0,0.4,0,0.6c0,0.3,0.1,0.4,0.4,0.4c0.4,0.1,0.4,0.1,0.5,0.5c0,0.1,0.1,0.2,0.2,0.3c0.2,0.1,0.3,0.3,0.2,0.5
		c0,0.1,0,0.3,0,0.4c0,0.1,0,0.1,0.1,0.2c0.2,0.3,0.5,0.5,0.7,0.7c0,0.1,0,0.3,0,0.4c0.3,0.3,0.6,0.6,0.8,0.9c0,0.3,0,0.5,0,0.8
		c0.3,0.2,0.5,0.5,0.4,0.8c0.3,0.3,0.5,0.5,0.8,0.8c0.1,0.4,0.1,0.6,0.3,0.7c0.2,0.2,0.4,0.4,0.6,0.6c0,0.3,0,0.6,0,0.8
		c0.1,0.1,0.2,0.2,0.3,0.3c0.2,0.2,0.4,0.4,0.5,0.6c-0.1,0.3,0.1,0.5,0.3,0.7c0,0,0.1,0.1,0.1,0.2c0,0.2,0.1,0.4,0.2,0.5
		c0.2,0.2,0.4,0.4,0.6,0.6c0,0.1,0,0.3,0,0.4c0.1,0.1,0.3,0.3,0.4,0.4c0,0.1,0,0.3,0,0.4c0.1,0.2,0.3,0.3,0.4,0.4c0,0.2,0,0.3,0,0.4
		c0.3,0.2,0.5,0.5,0.4,0.8c0.3,0.3,0.5,0.5,0.8,0.8c0,0.3,0,0.5,0,0.8c0.2,0.4,0.6,0.6,0.9,1c0,0.1,0,0.2,0,0.4
		c0.1,0.1,0.1,0.1,0.2,0.1c0.3,0.2,0.3,0.4,0.3,0.7c0.3,0.3,0.5,0.5,0.7,0.7c0.1,0.2,0,0.4,0.2,0.6c0.1,0.1,0.2,0.2,0.3,0.3
		c0,0.3,0,0.5,0.3,0.7c0.1,0,0.1,0.1,0.2,0.2c0,0.1,0,0.3,0,0.4c0.1,0.2,0.3,0.3,0.4,0.5c0,0.1,0,0.3,0,0.4c0.3,0.3,0.6,0.6,0.8,0.8
		c0,0.4,0,0.6,0.1,0.9c0.3,0.3,0.5,0.5,0.8,0.8c0,0.3,0,0.5,0.3,0.7c0.1,0,0.1,0.1,0.2,0.2c0,0.1,0,0.3,0,0.4
		c0.3,0.3,0.6,0.6,0.8,0.9c0,0.2,0,0.5,0,0.7c0,0.2,0.1,0.4,0.4,0.4c0.2,0,0.3,0,0.4,0.1c0.1,0.1,0.1,0.2,0.1,0.4
		c-0.1,0.4,0.1,0.7,0.4,0.9c0,0,0.1,0.1,0.1,0.2c0,0.2,0,0.3,0.1,0.4c0.2,0.2,0.5,0.5,0.7,0.7c0,0.1,0,0.3,0,0.4
		c0.1,0.2,0.3,0.3,0.4,0.4c0,0.1,0,0.3,0,0.4c0.1,0.1,0.3,0.3,0.4,0.5c0,0.1,0,0.3,0.1,0.4c0.2,0.2,0.5,0.5,0.7,0.7
		c0.1,0.1,0.1,0.2,0.1,0.4c0,0.1,0.1,0.1,0.1,0.2c0.1,0.1,0.2,0.2,0.3,0.3c0,0.1,0,0.3,0,0.4c0.3,0.3,0.6,0.6,0.8,0.9
		c0,0.2,0,0.3,0,0.4c0.2,0.2,0.4,0.3,0.4,0.7c0,0.1,0.1,0.2,0.2,0.3c0.2,0.1,0.2,0.3,0.2,0.5c0,0.1,0,0.1,0.1,0.2
		c0.1,0.2,0.4,0.3,0.3,0.5c0,0.3,0.2,0.5,0.4,0.7c0.1,0.2,0.3,0.3,0.4,0.4c0,0.3,0,0.6,0,0.8c0.1,0.1,0.2,0.2,0.3,0.3
		c0.2,0.2,0.4,0.4,0.5,0.6c-0.1,0.3,0.1,0.5,0.3,0.7c0,0,0.1,0.1,0.1,0.2c0,0.2,0,0.3,0.1,0.4c0.2,0.2,0.4,0.4,0.3,0.7
		c0.1,0.2,0.3,0.3,0.4,0.5c0,0.1,0,0.2,0,0.4c0.3,0.3,0.6,0.6,0.8,0.9c0,0.2,0,0.3,0,0.4c0.3,0.2,0.5,0.5,0.4,0.8
		c0.3,0.3,0.5,0.5,0.8,0.8c0,0.3,0,0.5,0,0.8c0.3,0.3,0.6,0.6,0.9,0.9c0,0.1,0,0.3,0,0.4c0.1,0.2,0.3,0.3,0.4,0.5
		c0.1,0.1,0,0.3,0,0.4c0.2,0.2,0.5,0.5,0.7,0.7c0.1,0.2,0,0.5,0.3,0.7c0.2,0.2,0.4,0.4,0.6,0.6c0,0.1,0,0.3,0,0.4
		c0.1,0.2,0.3,0.3,0.4,0.4c0,0.3,0,0.6,0,0.8c-0.2,0.2-0.4,0.4-0.6,0.6c-30.3,0-60.6,0-90.9,0c-0.1-0.1-0.3-0.3-0.4-0.4
		c-0.1,0-0.3,0-0.4,0c-0.2-0.2-0.4-0.4-0.6-0.6c0-0.3,0-0.5-0.3-0.7c-0.1,0-0.1-0.1-0.2-0.1c0-0.1,0-0.3,0-0.4
		c-0.1-0.2-0.3-0.3-0.4-0.4c0-0.1,0-0.3,0-0.4c-0.2-0.2-0.5-0.5-0.7-0.7c0,0-0.1-0.1-0.1-0.2c0-0.1,0-0.3-0.1-0.4
		c-0.1-0.1-0.2-0.2-0.3-0.3c-0.1-0.3,0-0.5-0.1-0.8c-0.2-0.4-0.6-0.6-0.8-0.9c0-0.3,0-0.6,0-0.8c-0.1-0.1-0.2-0.2-0.3-0.3
		c-0.2-0.2-0.4-0.4-0.5-0.6c0.1-0.3-0.1-0.5-0.3-0.7c0,0-0.1-0.1-0.1-0.2c0-0.2-0.1-0.4-0.2-0.5c-0.2-0.2-0.4-0.4-0.6-0.6
		c0-0.1,0-0.3,0-0.4c-0.3-0.3-0.6-0.6-0.8-0.9c0-0.3,0-0.6,0-0.8c-0.3-0.3-0.5-0.5-0.7-0.7c-0.1-0.2,0-0.4-0.2-0.6
		c-0.1-0.1-0.2-0.2-0.3-0.3c0,0-0.1-0.1,0-0.2c0-0.2,0-0.3-0.1-0.4c-0.3-0.2-0.5-0.5-0.7-0.7c0-0.2,0-0.3,0-0.4
		c-0.1-0.1-0.1-0.1-0.2-0.2c-0.3-0.2-0.3-0.4-0.3-0.7c-0.2-0.2-0.4-0.4-0.4-0.7c0-0.1,0-0.1-0.1-0.2c-0.2-0.2-0.4-0.4-0.4-0.7
		c0-0.1,0-0.1-0.1-0.2c-0.2-0.2-0.5-0.5-0.7-0.7c0-0.3,0-0.5,0-0.8c-0.4-0.5-0.9-0.9-1.2-1.3c0-0.4,0-0.6-0.1-0.9
		c-0.2-0.2-0.5-0.5-0.7-0.7c0-0.3,0-0.5-0.3-0.7c-0.1,0-0.1-0.1-0.2-0.2c0-0.1,0-0.3,0-0.4c-0.1-0.2-0.3-0.3-0.4-0.5
		c0-0.1,0-0.3,0-0.4c-0.1-0.2-0.3-0.3-0.4-0.5c-0.1-0.1,0-0.3-0.1-0.4c-0.2-0.2-0.5-0.5-0.7-0.7c-0.1-0.5-0.1-0.5-0.4-0.9
		c0-0.1,0-0.3,0-0.4c-0.1-0.1-0.3-0.3-0.4-0.4c0-0.1,0-0.3,0-0.4c-0.1-0.2-0.3-0.3-0.4-0.4c0-0.1,0-0.3,0-0.4
		c-0.1-0.1-0.3-0.3-0.4-0.4c-0.3-0.2-0.4-0.5-0.4-0.9c0-0.2,0-0.4-0.2-0.5c-0.1-0.1-0.3,0-0.4,0c-0.1,0-0.2-0.2-0.2-0.3
		c0-0.2,0-0.4,0-0.6c-0.2-0.4-0.6-0.6-0.8-1c0-0.1,0-0.2,0-0.4c-0.1-0.2-0.3-0.3-0.4-0.4c0-0.2,0-0.3,0-0.4
		c-0.2-0.2-0.4-0.4-0.6-0.6c-0.2-0.2-0.2-0.2-0.2-0.5c0-0.4-0.1-0.7-0.4-0.9c-0.2-0.1-0.3-0.3-0.4-0.4c0-0.1,0-0.3,0-0.4
		c0-0.1-0.1-0.1-0.1-0.2c-0.1-0.1-0.2-0.2-0.3-0.3c0-0.2,0-0.3,0-0.4c-0.3-0.3-0.6-0.6-0.8-0.9c0-0.3,0-0.6-0.1-0.8
		c-0.2-0.2-0.5-0.5-0.7-0.7c0-0.3,0-0.5-0.3-0.7c-0.1,0-0.1-0.1-0.2-0.2c0-0.1,0-0.3,0-0.4c0-0.6,0.1-0.5-0.5-0.6
		c-0.2-0.1-0.3-0.2-0.3-0.4c0-0.2,0-0.4,0-0.6c-0.1-0.1-0.2-0.2-0.3-0.3c-0.2-0.2-0.4-0.3-0.5-0.6c0.1-0.3-0.2-0.5-0.4-0.7
		c0,0-0.1-0.1-0.1-0.2c0-0.2,0-0.3-0.1-0.4c-0.2-0.2-0.5-0.5-0.7-0.7c0-0.3,0-0.5,0-0.8c-0.3-0.3-0.6-0.6-0.8-0.9c0-0.2,0-0.3,0-0.4
		c-0.3-0.3-0.3-0.3-0.4-0.9c-0.2-0.2-0.5-0.5-0.7-0.7c0-0.3,0-0.5-0.3-0.7c-0.1,0-0.1-0.1-0.2-0.1c0-0.1,0-0.3,0-0.4
		c-0.1-0.2-0.3-0.3-0.4-0.5c0-0.1,0-0.3,0-0.4c-0.1-0.2-0.3-0.3-0.4-0.5c-0.1-0.1,0-0.3-0.1-0.4c-0.2-0.2-0.5-0.5-0.7-0.7
		c-0.1-0.3,0-0.5-0.1-0.8c-0.2-0.4-0.6-0.6-0.8-0.9c0-0.1,0-0.3,0-0.4c-0.1-0.2-0.3-0.3-0.4-0.4c0-0.1,0-0.3,0-0.4
		c-0.1-0.1-0.3-0.3-0.4-0.4c-0.3-0.2-0.4-0.5-0.4-0.9c0-0.3,0-0.3-0.2-0.5c-0.2-0.2-0.4-0.4-0.6-0.6c0-0.1,0-0.3,0-0.4
		c-0.1-0.1-0.3-0.3-0.4-0.4c0-0.1,0-0.3,0-0.4c-0.2-0.2-0.4-0.4-0.6-0.6c-0.2-0.1-0.2-0.3-0.3-0.7c-0.2-0.2-0.5-0.5-0.7-0.7
		c-0.1-0.3,0-0.5,0-0.8c-0.2-0.4-0.6-0.6-0.8-0.9c0-0.1,0-0.2,0-0.4c-0.1-0.1-0.1-0.1-0.2-0.1c-0.3-0.2-0.3-0.4-0.3-0.7
		c-0.3-0.3-0.5-0.5-0.7-0.7c-0.1-0.2-0.1-0.4-0.1-0.6c0-0.3,0-0.3-0.2-0.5c-0.2-0.2-0.4-0.4-0.6-0.6c0-0.1,0-0.3,0-0.4
		c-0.1-0.2-0.3-0.3-0.4-0.5c0-0.2,0-0.4,0-0.6c0-0.3-0.1-0.4-0.3-0.4c-0.5-0.1-0.5-0.1-0.5-0.5c0-0.1,0-0.3,0-0.4c0-0.1,0-0.1,0-0.2
		c-0.2-0.2-0.5-0.5-0.7-0.7c-0.1-0.6-0.1-0.6-0.4-0.9c0-0.3,0-0.5-0.3-0.7c-0.1,0-0.1-0.1-0.2-0.2c0-0.1,0-0.3,0-0.4
		c-0.1-0.2-0.3-0.3-0.4-0.5c0-0.1,0-0.3,0-0.4c-0.1-0.1-0.2-0.2-0.3-0.3c-0.2-0.2-0.4-0.3-0.5-0.6c0.1-0.3-0.2-0.5-0.4-0.7
		c0,0-0.1-0.1-0.1-0.2c0-0.2,0-0.4,0-0.6c0-0.1,0-0.1-0.1-0.2c-0.2-0.2-0.5-0.5-0.7-0.7c0-0.1,0-0.3,0-0.4c-0.3-0.3-0.6-0.6-0.9-0.9
		c0-0.3,0-0.6,0-0.8c-0.4-0.4-0.8-0.8-1.2-1.2c0-0.3,0-0.5,0-0.8c-0.3-0.3-0.6-0.6-0.8-0.9c0-0.1,0-0.3,0-0.4
		c-0.1-0.1-0.3-0.3-0.4-0.5c0-0.1,0-0.3-0.1-0.4c-0.1-0.1-0.2-0.2-0.3-0.3c0,0-0.1-0.1-0.1-0.2c0.1-0.3-0.2-0.5-0.4-0.7
		c-0.1-0.3,0-0.5-0.3-0.7c-0.2-0.2-0.4-0.4-0.6-0.6c0-0.3,0-0.6,0-0.8c-0.3-0.3-0.6-0.6-0.9-0.9c-0.3-0.2-0.4-0.5-0.4-0.9
		c0-0.3,0-0.3-0.2-0.5c-0.2-0.2-0.4-0.4-0.6-0.6c0-0.1,0-0.3,0-0.4c-0.3-0.3-0.6-0.6-0.8-0.9c0-0.3,0-0.6,0-0.8
		c-0.2-0.2-0.4-0.3-0.4-0.5c0-0.1,0-0.3-0.1-0.4c0-0.1-0.1-0.1-0.1-0.1c-0.2,0-0.4,0.1-0.6-0.1c-0.1-0.1-0.1-0.2-0.1-0.4
		c0-0.1,0-0.3,0-0.4c0-0.1,0-0.1-0.1-0.2c-0.2-0.2-0.4-0.4-0.3-0.7c-0.1-0.2-0.3-0.3-0.4-0.5c0-0.1,0-0.2,0-0.4
		c-0.1-0.1-0.1-0.1-0.1-0.2c-0.1-0.1-0.2-0.2-0.3-0.3c0-0.1,0-0.3,0-0.4c-0.1-0.1-0.2-0.2-0.3-0.3c-0.2-0.2-0.4-0.3-0.5-0.6
		c0.1-0.3-0.2-0.5-0.4-0.7c0,0-0.1-0.1-0.1-0.2c0-0.2,0-0.3-0.1-0.4c-0.2-0.2-0.5-0.5-0.7-0.7c0-0.3,0-0.5,0-0.9
		c-0.2-0.2-0.5-0.4-0.7-0.7c0,0-0.1-0.1-0.1-0.2c0-0.2,0-0.4,0-0.6c0-0.2-0.1-0.3-0.4-0.4c-0.4-0.1-0.5-0.1-0.4-0.5
		c0-0.4-0.1-0.7-0.4-0.9c0,0-0.1-0.1-0.1-0.2c0-0.2,0-0.3-0.1-0.4c-0.2-0.2-0.5-0.5-0.7-0.7c0-0.1,0-0.3,0-0.4
		c-0.1-0.2-0.3-0.3-0.4-0.5c0-0.1,0-0.3,0-0.4c-0.1-0.2-0.3-0.3-0.4-0.5c-0.1-0.1,0-0.3-0.1-0.4c-0.2-0.2-0.5-0.5-0.7-0.7
		c-0.1-0.5-0.1-0.5-0.4-0.9c0-0.1,0-0.3,0-0.4c-0.3-0.3-0.6-0.6-0.8-0.9c0-0.1,0-0.3,0-0.4c-0.1-0.1-0.3-0.3-0.4-0.5
		c0-0.1,0-0.3-0.1-0.4c-0.2-0.2-0.5-0.5-0.7-0.7c-0.1-0.3,0-0.5-0.1-0.8c-0.2-0.3-0.6-0.6-0.8-0.9c0-0.1,0-0.3,0-0.4
		c-0.1-0.2-0.3-0.3-0.4-0.4c0-0.2,0-0.3,0-0.4c-0.2-0.2-0.4-0.4-0.6-0.6c-0.2-0.2-0.2-0.2-0.2-0.5c0-0.4-0.1-0.7-0.4-0.9
		c-0.2-0.1-0.3-0.3-0.4-0.4c0-0.1,0-0.3,0-0.4c0-0.1-0.1-0.1-0.1-0.2c-0.1-0.1-0.2-0.2-0.3-0.3c0-0.2,0-0.3,0-0.4
		c-0.1-0.1-0.1-0.1-0.2-0.1c-0.3-0.2-0.3-0.4-0.3-0.7c-0.3-0.3-0.3-0.3-0.4-0.9c-0.2-0.2-0.5-0.5-0.7-0.7c0-0.3,0-0.5-0.3-0.7
		c-0.1,0-0.1-0.1-0.2-0.2c0-0.1,0-0.3,0-0.4c-0.1-0.2-0.3-0.3-0.4-0.5c0-0.1,0-0.3,0-0.4c-0.1-0.2-0.3-0.3-0.4-0.5
		c-0.1-0.1,0-0.3,0-0.4c-0.2-0.2-0.5-0.5-0.8-0.8c0-0.2,0-0.4,0-0.6c0-0.4-0.1-0.5-0.5-0.5c-0.3,0-0.4-0.1-0.4-0.4
		c0-0.2,0-0.4,0-0.6c-0.1-0.1-0.3-0.3-0.4-0.5c0-0.1,0-0.3,0-0.4c-0.3-0.3-0.6-0.6-0.8-0.9c0-0.2,0-0.3,0-0.4
		c-0.1-0.2-0.3-0.3-0.4-0.5c0.1-0.3-0.2-0.5-0.3-0.7c-0.1-0.2,0-0.5-0.3-0.7c-0.2-0.2-0.4-0.4-0.6-0.6c0-0.1,0-0.3,0-0.4
		c-0.1-0.2-0.3-0.3-0.4-0.5c0-0.1,0-0.3,0-0.4c-0.2-0.2-0.4-0.4-0.6-0.6c-0.2-0.2-0.2-0.2-0.2-0.5c0-0.1,0-0.3,0-0.4
		c0-0.1,0-0.1-0.1-0.2c-0.2-0.3-0.5-0.5-0.7-0.7c0-0.1,0-0.3,0-0.4c-0.1-0.1-0.3-0.3-0.4-0.4c0-0.1,0-0.3,0-0.4
		c-0.2-0.2-0.4-0.4-0.6-0.6c-0.3,0-0.5,0-0.7-0.3c0-0.1-0.1-0.1-0.2-0.2c-13.3,0-26.7,0-40,0c-0.1,0.1-0.3,0.3-0.4,0.4
		c-0.4,0-0.4,0-0.6,0.6c0,0.1-0.1,0.1-0.1,0.2c-0.1,0.1-0.2,0.2-0.3,0.3c0,0.7,0,1.4,0,2.1c0,44.7,0,89.4,0,134.1
		c0,0.3,0,0.3-0.5,0.5c-0.1,0-0.1,0-0.2,0.1c-0.2,0.2-0.4,0.4-0.7,0.4c-0.2,0.1-0.3,0.3-0.5,0.4c-0.4,0.1-0.4,0.1-0.7-0.2
		c0,0-0.1-0.1-0.2-0.2C551.3,512.2,522.8,512.2,494.3,512.2z M661.5,248.7c-26,0-52,0-78,0c-0.3,0.3-0.7,0.7-1,1
		c0,19.6,0,39.2,0,58.8c0.3,0.3,0.7,0.6,1.1,1c0,0,0.1,0,0.1,0c24.5,0,49.1,0,73.6,0c0.1-0.1,0.3-0.3,0.5-0.4c2.2,0,4.4,0,6.7,0
		c0.2-0.1,0.3-0.3,0.4-0.4c0.1,0,0.3,0,0.4,0c0.2-0.1,0.3-0.3,0.4-0.4c0.5-0.1,0.9,0,1.3-0.1c0.3-0.3,0.3-0.3,0.7-0.4
		c0.1,0,0.2-0.1,0.3-0.2c0.1-0.1,0.2-0.2,0.3-0.2c0.3,0,0.5-0.2,0.7-0.4c0.3,0,0.5,0,0.8,0c0.3-0.3,0.6-0.6,0.9-0.9
		c0.3,0,0.5,0,0.8,0c0.2-0.2,0.4-0.4,0.6-0.6c0.1-0.2,0.3-0.2,0.5-0.2c0.1,0,0.2-0.1,0.3-0.2c0.1-0.1,0.2-0.2,0.3-0.2
		c0.4-0.1,0.4-0.1,0.5-0.5c0-0.3,0.1-0.4,0.4-0.4c0.1,0,0.3,0,0.4,0c0.3,0,0.4-0.1,0.4-0.3c0-0.1,0-0.3,0.1-0.4
		c0.1-0.2,0.4-0.1,0.6-0.2c0.8-0.8,1.6-1.7,2.5-2.5c0.5,0,0.5,0,0.6-0.2c0.1-0.1,0-0.3,0.1-0.4c0-0.2,0.2-0.3,0.4-0.5
		c0.5-0.5,1.1-1.1,1.6-1.6c0.1-0.1,0.3-0.3,0.4-0.4c0.1-0.2,0-0.4,0.2-0.6c0.2-0.2,0.5-0.5,0.7-0.7c0-0.1,0-0.3,0-0.4
		c0.2-0.2,0.4-0.4,0.6-0.6c0.3-0.2,0.2-0.5,0.3-0.7c0.2-0.2,0.4-0.4,0.4-0.7c0-0.1,0-0.1,0.1-0.2c0.1-0.1,0.2-0.2,0.3-0.3
		c0.1-0.1,0-0.3,0.1-0.4c0.1-0.2,0.3-0.3,0.4-0.5c0-0.1,0-0.3,0-0.4c0.3-0.3,0.6-0.6,0.8-0.9c0.1-0.5,0-0.9,0-1.3
		c0.1-0.2,0.3-0.3,0.4-0.5c-0.1-0.3,0.1-0.5,0.3-0.7c0,0,0.1-0.1,0.1-0.2c0-0.1,0-0.1,0-0.2c-0.1-0.4,0.1-0.7,0.4-0.9
		c0.1-0.4,0-0.8,0-1.2c0.2-0.3,0.6-0.6,0.8-0.9c0-1,0-1.9,0-2.9c0.1-0.2,0.3-0.3,0.4-0.5c0-2,0-4,0-6.1c0-0.1,0-0.1,0-0.2
		c-0.3-0.2-0.4-0.5-0.4-0.9c0-0.6,0-1.1,0-1.7c0-0.3,0.1-0.5-0.1-0.8c-0.2-0.2-0.4-0.4-0.4-0.7c-0.1-0.2-0.2-0.3-0.4-0.5
		c0-0.2,0-0.5,0-0.8c-0.1-0.2-0.3-0.3-0.4-0.5c0-0.3,0-0.5,0-0.8c-0.1-0.2-0.3-0.3-0.4-0.5c0-0.1,0-0.3,0-0.4
		c-0.1-0.2-0.3-0.3-0.4-0.5c0-0.4,0-0.8,0-1.3c-0.2-0.2-0.5-0.5-0.7-0.7c-0.1-0.1,0-0.2-0.1-0.4c0-0.2-0.2-0.3-0.4-0.5
		c0-0.1,0-0.3,0-0.4c-0.3-0.3-0.6-0.6-0.8-0.9c0-0.3,0-0.5,0-0.8c-0.2-0.2-0.3-0.3-0.4-0.5c-0.1-0.1-0.3-0.3-0.4-0.5
		c0-0.1,0-0.3-0.1-0.4c-0.2-0.2-0.5-0.5-0.7-0.7c0-0.1,0-0.3,0-0.4c0-0.1-0.1-0.1-0.1-0.2c-0.3-0.3-0.6-0.6-0.9-0.9
		c-0.2-0.2-0.5-0.4-0.7-0.8c0-0.5-0.4-0.7-0.7-1c-0.3-0.3-0.6-0.6-0.9-0.9c-0.2-0.2-0.4-0.4-0.6-0.6c-0.2-0.2-0.4-0.1-0.6-0.2
		c-0.7-0.7-1.4-1.4-2-2c-0.2,0-0.3,0-0.5,0c-0.3-0.3-0.6-0.6-0.9-0.8c-0.1,0-0.3,0-0.4,0c-0.1-0.1-0.1-0.1-0.2-0.2
		c-0.1-0.2-0.3-0.2-0.7-0.3c-0.1-0.1-0.3-0.3-0.4-0.4c-0.2-0.2-0.4-0.4-0.7-0.3c-0.2-0.1-0.3-0.3-0.5-0.4c-0.1,0-0.3,0-0.4,0
		c-0.3-0.3-0.6-0.6-0.9-0.8c-0.4,0-0.8,0-1.2,0c-0.3-0.3-0.5-0.5-0.7-0.7c-0.1,0-0.1-0.1-0.2-0.1c-0.6,0-1.1,0-1.7,0
		c-0.3,0-0.5-0.2-0.7-0.4c-0.3-0.1-0.5,0-0.9-0.1c-0.1-0.1-0.3-0.2-0.5-0.4c-0.5,0-1.1,0-1.6,0C661.8,249,661.7,248.8,661.5,248.7z"
		/>
	<path class="st0" d="M397.7,329.7c0.1,0.1,0.1,0.2,0.1,0.4c0,3.3,0,6.5,0,9.8c0,0.2,0.1,0.4,0.2,0.5c0.1,0,0.1,0.1,0.1,0.1
		c0,0.1,0,0.1,0,0.2c0,1.3,0,2.6,0,4c0.1,0.1,0.3,0.3,0.4,0.5c0,2.1,0,4.1,0,6.2c-0.1,0.1-0.3,0.3-0.4,0.5c0,1.2,0,2.5,0,3.7
		c-0.1,0.2-0.3,0.3-0.4,0.5c0,3.6,0,7.2,0,10.8c-0.3,0.2-0.4,0.5-0.4,0.9c0,0.5,0,1,0,1.5c0,0.3,0,0.3-0.4,0.9
		c-0.1,0.2-0.1,0.4-0.1,0.6c0,0.3,0,0.3-0.2,0.5c0,0-0.1,0.1-0.1,0.1c0,0.1,0,0.1,0,0.2c0,1.2,0,2.4,0,3.6c-0.1,0.1-0.3,0.3-0.4,0.5
		c0,0.3,0,0.5,0,0.8c-0.1,0.2-0.3,0.3-0.4,0.5c0,0.8,0,1.7,0,2.5c-0.1,0.2-0.3,0.3-0.4,0.5c0,0.4,0,0.8,0,1.3
		c-0.3,0.2-0.4,0.5-0.4,0.9c0,0.6,0,1.1,0,1.7c0,0.3,0,0.3-0.4,0.7c-0.1,0.5,0,1.1,0,1.6c-0.2,0.4-0.5,0.6-0.8,0.9
		c0,0.8,0,1.7,0,2.5c-0.1,0.2-0.3,0.3-0.4,0.5c0,0.3,0,0.5,0,0.8c-0.1,0.2-0.3,0.3-0.4,0.5c0.1,0.3-0.1,0.5-0.3,0.7
		c0,0-0.1,0.1-0.1,0.2c0,0.6,0,1.3,0,1.9c0,0.4-0.1,0.7-0.4,0.9c0,0,0,0.1-0.1,0.2c-0.1,0.3-0.1,0.4-0.4,0.7c0,0.3,0,0.5,0,0.8
		c-0.1,0.2-0.3,0.3-0.4,0.5c0,0.3,0,0.5,0,0.8c-0.1,0.2-0.3,0.3-0.4,0.4c0,0.1,0,0.3,0,0.4c-0.1,0.2-0.3,0.3-0.4,0.4
		c0,0.6,0,1.1,0,1.7c-0.3,0.3-0.5,0.5-0.7,0.7c-0.1,0.4,0,0.8-0.1,1.3c-0.1,0.1-0.2,0.3-0.4,0.4c0,0.1,0,0.3,0,0.4
		c-0.1,0.1-0.3,0.3-0.4,0.4c0,0.3,0,0.5,0,0.8c-0.1,0.2-0.3,0.3-0.4,0.5c0,0.4,0,0.8,0,1.2c-0.2,0.2-0.4,0.4-0.6,0.6
		c-0.2,0.2-0.2,0.2-0.2,0.5c0,0.2,0,0.4,0,0.6c0,0.3,0,0.3-0.2,0.5c-0.2,0.2-0.4,0.4-0.6,0.6c0,0.3,0,0.5,0,0.8
		c-0.1,0.2-0.3,0.3-0.4,0.5c0,0.3,0,0.5,0,0.8c-0.3,0.3-0.6,0.6-0.8,0.9c0,0.1,0,0.1,0,0.2c0,0.4,0,0.7-0.3,0.9
		c-0.2,0.1,0,0.4-0.2,0.6c-0.1,0.1-0.2,0.2-0.3,0.3c0,0-0.1,0.1,0,0.2c0,0.2,0,0.3-0.1,0.4c-0.1,0.1-0.2,0.2-0.3,0.3
		c0,0.3,0,0.5,0,0.8c-0.3,0.3-0.6,0.6-0.9,0.9c0,0.3,0,0.6,0,0.8c-0.2,0.2-0.3,0.3-0.5,0.5c-0.3,0.2-0.4,0.5-0.4,0.9
		c0,0.2,0,0.3-0.1,0.4c-0.2,0.2-0.4,0.4-0.3,0.7c-0.1,0.2-0.3,0.3-0.4,0.5c0,0.1,0,0.2,0,0.4c-0.1,0.1-0.1,0.1-0.1,0.2
		c-0.1,0.1-0.2,0.2-0.3,0.3c0,0.3,0,0.6,0,0.9c-0.1,0.1-0.2,0.2-0.3,0.3c-0.2,0.2-0.4,0.3-0.5,0.6c0.1,0.3-0.2,0.5-0.4,0.7
		c0,0-0.1,0.1-0.1,0.2c0,0.2-0.1,0.4-0.2,0.5c-0.1,0-0.1,0.1-0.2,0.2c0,0.3,0,0.5-0.3,0.7c-0.1,0-0.1,0.1-0.2,0.2c0,0.1,0,0.3,0,0.5
		c-0.2,0.2-0.5,0.4-0.7,0.7c0,0-0.1,0.1-0.1,0.2c0,0.1,0,0.3,0,0.4c-0.1,0.2-0.3,0.3-0.4,0.5c0.1,0.3-0.2,0.5-0.4,0.7
		c0,0-0.1,0.1-0.1,0.2c0.1,0.3-0.2,0.5-0.4,0.7c0,0.1,0,0.3,0,0.4c-0.3,0.3-0.6,0.6-0.8,0.9c0,0.3,0,0.5,0,0.8
		c-0.3,0.3-0.6,0.6-0.9,0.9c-0.3,0.2-0.4,0.5-0.4,0.9c0,0.4-0.1,0.5-0.5,0.5c-0.3,0-0.4,0.1-0.4,0.4c0,0.2,0,0.4,0,0.6
		c-0.1,0.1-0.3,0.3-0.4,0.4c-0.2,0.2-0.4,0.4-0.6,0.6c-0.3,0.2-0.2,0.5-0.3,0.7c-0.1,0.2-0.3,0.3-0.4,0.5c0,0.2-0.1,0.4-0.2,0.5
		c-0.2,0.2-0.4,0.4-0.6,0.6c0,0.1,0,0.3,0,0.4c-0.1,0.1-0.3,0.3-0.4,0.4c0,0.1,0,0.3,0,0.4c-0.2,0.2-0.5,0.5-0.7,0.7
		c-0.2,0.2-0.6,0.4-0.5,0.8c-0.1,0.3-0.3,0.4-0.5,0.6c-0.2,0.3-0.5,0.5-0.7,0.7c0,0.1,0,0.3,0,0.4c-0.2,0.2-0.4,0.4-0.6,0.6
		c-0.3,0.2-0.2,0.5-0.3,0.7c-0.3,0.3-0.5,0.5-0.7,0.7c-0.1,0.2,0,0.4-0.2,0.6c-0.4,0.4-0.8,0.8-1.1,1.2c0,0.5,0,0.5-0.6,0.6
		c-0.1,0-0.3,0.2-0.2,0.3c0,0.3-0.2,0.5-0.4,0.7c0,0-0.1,0.1-0.1,0.2c0,0.2,0,0.3-0.1,0.4c-0.5,0.5-1,1-1.5,1.5c0,0-0.1,0.1-0.1,0.2
		c0,0.2,0,0.4-0.2,0.6c-0.6,0.6-1.3,1.3-1.9,1.9c0,0.1,0,0.3,0,0.4c-0.9,0.9-1.9,1.9-2.8,2.8c-0.2,0.2-0.6,0.4-0.5,0.8
		c-0.1,0.3-0.3,0.4-0.5,0.6c-0.8,0.8-1.6,1.6-2.4,2.4c0,0.1,0,0.3-0.1,0.4c0,0.1-0.1,0.2-0.3,0.3c-0.6,0.1-0.6,0.1-0.6,0.6
		c-0.5,0.5-1,1-1.5,1.5c-0.3,0-0.6,0-0.6,0.5c0,0.1,0,0.1-0.1,0.2c-0.4,0.4-0.9,0.9-1.3,1.3c-0.1,0-0.1,0-0.2,0.1
		c-0.5,0.1-0.5,0.1-0.5,0.5c0,0.3-0.1,0.4-0.4,0.4c-0.3,0-0.4,0.1-0.5,0.3c0,0.2,0,0.4-0.2,0.5c-0.2,0.1-0.3,0.3-0.4,0.4
		c-0.2,0-0.4-0.1-0.6,0.2c-0.1,0.1,0,0.3-0.1,0.4c0,0.1-0.1,0.2-0.3,0.3c-0.1,0-0.3,0-0.4,0c-0.8,0.8-1.6,1.6-2.4,2.4
		c-0.3,0.3-0.3,0.3-0.8,0.5c-0.3,0.1-0.4,0.3-0.6,0.5c-0.9,0.9-1.9,1.9-2.8,2.8c-0.5,0-0.6,0-0.6,0.5c-0.1,0.3-0.2,0.3-0.6,0.3
		c-0.3,0.3-0.7,0.7-1,1c-0.2,0.2-0.3,0.2-0.5,0.2c-0.1,0-0.3,0.1-0.3,0.2c-0.1,0.6-0.1,0.6-0.6,0.6c-0.4,0.3-0.8,0.8-1.2,1.1
		c0,0-0.4,0.1-0.6,0.1c-0.2,0.2-0.5,0.5-0.7,0.7c-0.1,0.1-0.2,0.1-0.4,0.1c-0.2,0-0.3,0.2-0.3,0.4c0,0.1,0,0.3-0.2,0.3
		c-0.6,0.2-0.6,0.2-0.9,0.5c-0.1,0-0.3,0-0.4,0c-0.2,0.2-0.4,0.4-0.6,0.6c-0.1,0.1-0.3,0.3-0.4,0.4c-0.2,0.3-0.5,0.2-0.7,0.3
		c-0.3,0.2-0.5,0.5-0.7,0.7c-0.1,0-0.3,0-0.4,0c-0.3,0.3-0.6,0.6-0.9,0.8c-0.1,0-0.3,0-0.4,0c-0.4,0.4-0.8,0.8-1.2,1.2
		c-0.1,0-0.1,0-0.2,0.1c-0.5,0.1-0.5,0.1-0.5,0.5c0,0.3-0.1,0.4-0.4,0.4c-0.2,0-0.4,0-0.6,0c-0.3,0.3-0.6,0.6-0.9,0.8
		c-0.1,0-0.3,0-0.4,0c-0.2,0.2-0.4,0.4-0.6,0.6c-0.2,0.3-0.5,0.1-0.7,0.3c-0.3,0.2-0.5,0.5-0.7,0.7c-0.1,0-0.3,0-0.4,0
		c-0.1,0.1-0.3,0.3-0.4,0.4c-0.1,0-0.3,0-0.4,0c-0.1,0.1-0.2,0.2-0.3,0.3c-0.2,0.2-0.4,0.4-0.6,0.5c-0.3-0.1-0.5,0.1-0.7,0.3
		c0,0-0.1,0.1-0.2,0.1c-0.2,0-0.4,0.1-0.5,0.2c-0.2,0.2-0.4,0.4-0.6,0.6c-0.1,0-0.3,0-0.4,0c-0.1,0.1-0.3,0.3-0.4,0.4
		c-0.1,0-0.3,0-0.4,0c-0.2,0.2-0.5,0.5-0.7,0.7c0,0-0.1,0.1-0.2,0.1c-0.3,0-0.6,0-0.8,0.1c-0.2,0.2-0.5,0.5-0.8,0.8
		c-0.2,0-0.4,0-0.6,0c-0.4,0-0.4,0.1-0.5,0.5c0,0.3-0.1,0.4-0.4,0.4c-0.2,0-0.4,0-0.6,0c-0.1,0.1-0.3,0.3-0.5,0.4
		c-0.1,0-0.3,0-0.4,0c-0.1,0.1-0.1,0.1-0.1,0.2c-0.2,0.3-0.4,0.3-0.7,0.3c-0.2,0.1-0.3,0.3-0.5,0.4c-0.3-0.1-0.5,0.1-0.7,0.4
		c-0.1,0.2-0.3,0.3-0.4,0.5c-0.3,0-0.5,0-0.7,0.3c0,0.1-0.1,0.1-0.2,0.2c-0.1,0-0.3,0-0.4,0c-0.2,0.1-0.3,0.3-0.5,0.4
		c-0.1,0-0.3,0-0.4,0c-0.2,0.1-0.3,0.3-0.5,0.4c-0.3,0-0.5,0-0.8,0c-0.2,0.2-0.4,0.4-0.6,0.6c-0.2,0.2-0.2,0.2-0.5,0.2
		c-0.4,0-0.7,0.1-0.9,0.4c-0.3,0-0.5,0-0.8,0c-0.3,0.3-0.6,0.6-0.9,0.9c-0.3,0-0.5,0-0.8,0c-0.2,0.1-0.3,0.3-0.5,0.4
		c-0.1,0.1-0.3,0-0.4,0c-0.2,0.3-0.5,0.4-0.9,0.4c-0.2,0-0.4,0-0.5,0.2c-0.1,0.1-0.2,0.2-0.3,0.2c-0.3,0-0.5,0.2-0.7,0.4
		c-0.3,0-0.5,0-0.7,0.3c0,0.1-0.1,0.1-0.1,0.2c-0.3,0-0.5,0-0.8,0c-0.2,0.1-0.3,0.3-0.5,0.4c-0.1,0-0.3,0-0.4,0
		c-0.2,0.2-0.3,0.3-0.5,0.4c-0.3,0-0.5,0-0.8,0c-0.2,0.2-0.4,0.5-0.7,0.4c-0.1,0-0.1,0-0.2,0.1c-0.2,0.3-0.5,0.4-0.9,0.3
		c-0.1,0-0.1,0-0.2,0c-0.1,0.1-0.3,0.2-0.5,0.4c-0.4,0.1-0.8,0-1.2,0c-0.3,0.3-0.6,0.6-0.9,0.8c-0.6,0-1.1,0-1.6,0
		c-0.2,0.1-0.3,0.3-0.5,0.4c-0.1,0-0.3,0-0.4,0.1c-0.1,0.1-0.2,0.2-0.3,0.3c0,0-0.1,0.1-0.2,0.1c-0.3-0.1-0.5,0.2-0.7,0.4
		c-0.4,0.1-0.8,0-1.3,0.1c-0.1,0.1-0.3,0.2-0.4,0.4c-0.1,0-0.3,0-0.4,0c-0.1,0.1-0.3,0.3-0.4,0.4c-0.5,0-1.1,0-1.7,0
		c-0.2,0.1-0.3,0.3-0.4,0.4c-0.1,0-0.3,0-0.4,0c-0.2,0.1-0.3,0.3-0.4,0.4c-0.6,0-1.1,0-1.7,0c-0.2,0.3-0.5,0.4-0.9,0.4
		c-0.1,0-0.1,0-0.2,0c-0.4,0-0.4,0-0.9,0.4c-0.1,0-0.1,0.1-0.2,0c-0.3-0.1-0.5,0.2-0.7,0.4c-0.7,0-1.4,0-2.1,0
		c-0.2,0.1-0.3,0.3-0.5,0.4c-0.4,0-0.8,0-1.2,0c-0.2,0.1-0.3,0.3-0.4,0.4c-0.6,0-1.1,0-1.7,0c-0.1,0.1-0.2,0.2-0.3,0.3
		c0,0-0.1,0.1-0.2,0.1c-0.5,0-1,0-1.5,0c-0.1,0-0.1,0-0.2,0.1c-0.2,0.2-0.4,0.4-0.7,0.4c-0.1,0-0.3,0-0.4,0c-0.4,0-0.7,0.1-0.9,0.4
		c-0.1,0-0.1,0-0.2,0c-0.8,0-1.7,0-2.5,0c-0.2,0-0.4,0.1-0.5,0.3c0,0.1-0.1,0.1-0.1,0.1c-0.1,0-0.3,0-0.4,0
		c-0.1,0.1-0.3,0.3-0.4,0.4c-0.7,0-1.4,0-2.1,0c-0.2,0.1-0.3,0.3-0.4,0.4c-2.3,0-4.6,0-6.9,0c-0.1,0-0.1,0-0.2,0
		c-0.2,0.1-0.3,0.3-0.5,0.4c-0.4,0-0.9,0-1.3,0.1c-0.1,0.1-0.2,0.2-0.3,0.3c-0.1,0.1-0.2,0.1-0.4,0.1c-2.4,0-4.7,0-7.1,0
		c-0.4,0-0.7,0.1-0.9,0.4c-0.1,0-0.1,0-0.2,0c-0.2,0-0.4,0-0.7,0c-0.1,0.1-0.3,0.3-0.5,0.4c-0.8,0-1.6,0-2.5,0
		c-0.1-0.1-0.3-0.3-0.4-0.4c-55.4,0-110.9,0-166.3,0c-0.2,0.1-0.3,0.3-0.4,0.4c-0.8,0-1.7,0-2.5,0c-0.2-0.1-0.3-0.3-0.5-0.4
		c-0.1-0.1-0.3,0-0.4,0c-0.3-0.3-0.7-0.7-1-1c0-108.4,0-216.8,0-325.2c0.1-0.2,0.3-0.3,0.4-0.5c0-0.6,0-0.6,0.6-0.6
		c0.1,0,0.3,0,0.4,0c0.2,0,0.4,0,0.6,0c58.6,0,117.3,0,175.9,0c0.2,0,0.4,0.1,0.5,0.2c0,0.1,0.1,0.1,0.1,0.1c0.1,0,0.1,0,0.2,0
		c2.6,0,5.1,0,7.7,0c0.1,0.1,0.3,0.3,0.5,0.4c0.4,0,0.8,0,1.2,0c0.2,0.1,0.3,0.3,0.5,0.4c1.8,0,3.6,0,5.4,0c0.2,0.1,0.3,0.3,0.5,0.4
		c0.3,0,0.5,0,0.8,0c0.2,0.3,0.5,0.4,0.9,0.4c0.5,0,1,0,1.5,0c0.1,0,0.1,0,0.2,0.1c0.1,0.1,0.2,0.2,0.3,0.3c0.5,0.1,1,0.1,1.4,0.1
		c0.2,0,0.4,0.1,0.5,0.2c0,0.1,0.1,0.1,0.2,0.2c0.5,0.1,1.1,0,1.7,0c0.1,0.1,0.3,0.3,0.5,0.4c0.8,0,1.6,0,2.5,0
		c0.2,0.1,0.3,0.3,0.5,0.4c0.1,0,0.3,0,0.4,0c0.2,0.1,0.3,0.3,0.5,0.4c0.9,0,1.7,0,2.5,0c0.2,0.3,0.5,0.5,0.9,0.4c0.1,0,0.1,0,0.2,0
		c0.1,0,0.2,0.1,0.3,0.2c0.1,0.2,0.3,0.2,0.5,0.2c0.4-0.1,0.7,0.1,0.9,0.4c0.5,0.1,1.1,0,1.7,0c0.1,0.1,0.3,0.3,0.5,0.4
		c0.1,0,0.3,0,0.4,0c0.2,0.1,0.3,0.3,0.5,0.4c0.4,0,0.8,0,1.2,0c0.2,0.1,0.3,0.3,0.5,0.4c0.4,0,0.8,0,1.2,0c0.2,0.4,0.5,0.5,0.9,0.4
		c0.3-0.1,0.5,0.2,0.7,0.4c0.4,0.1,0.8,0,1.2,0.1c0.4,0.2,0.6,0.6,0.9,0.8c0.4,0,0.8,0,1.2,0c0.2,0.1,0.3,0.3,0.4,0.4
		c0.1,0,0.3,0,0.4,0c0.2,0.1,0.3,0.3,0.4,0.4c0.3,0,0.6,0,0.9,0.1c0.2,0.3,0.5,0.4,0.9,0.4c0.2,0,0.4,0,0.6,0c0.1,0,0.2,0.1,0.3,0.2
		c0.2,0.2,0.4,0.4,0.6,0.6c0.4,0,0.8,0,1.3,0c0.3,0.3,0.6,0.6,0.9,0.8c0.4,0,0.8,0,1.2,0c0.2,0.2,0.3,0.3,0.5,0.4
		c0.3,0,0.6,0,0.8,0.1c0.2,0.2,0.5,0.5,0.7,0.7c0.3,0.1,0.7,0,1,0c0.4,0,0.4,0.1,0.5,0.5c0,0.1,0,0.1,0,0.2c0,0,0.1,0.1,0.1,0.1
		c0.3,0,0.5,0,0.8,0c0.1,0.1,0.3,0.3,0.4,0.4c0.3,0,0.5,0,0.8,0c0.3,0.3,0.6,0.6,0.8,0.8c0.1,0,0.2,0,0.3,0c0.4,0,0.7,0,0.9,0.3
		c0.1,0.2,0.4,0,0.6,0.2c0.1,0.1,0.2,0.2,0.3,0.3c0,0,0.1,0.1,0.2,0c0.2,0,0.3,0,0.4,0.1c0.1,0.1,0.2,0.2,0.3,0.3c0.3,0,0.5,0,0.8,0
		c0.3,0.3,0.6,0.6,0.9,0.9c0.3,0,0.6,0,0.8,0c0.3,0.3,0.5,0.5,0.7,0.7c0.2,0.1,0.4,0.1,0.6,0.1c0.2,0,0.4,0.1,0.5,0.2
		c0.1,0.1,0.2,0.2,0.3,0.2c0.2,0,0.3,0,0.4,0.1c0.2,0.3,0.5,0.5,0.7,0.7c0.3,0,0.6,0,0.9,0c0.1,0.1,0.2,0.2,0.3,0.3
		c0.2,0.2,0.3,0.4,0.6,0.5c0.3-0.1,0.5,0.2,0.7,0.4c0,0,0.1,0.1,0.2,0.1c0.2,0,0.3,0,0.4,0.1c0.2,0.2,0.5,0.5,0.7,0.7
		c0.3,0,0.5,0,0.9,0c0.2,0.2,0.4,0.5,0.7,0.7c0.2,0.2,0.4,0.1,0.6,0.2c0.2,0.2,0.5,0.5,0.7,0.7c0.1,0.1,0.3,0,0.4,0.1
		c0.2,0,0.3,0.2,0.5,0.4c0.2,0,0.4,0,0.6,0c0.4,0,0.4,0,0.5,0.5c0,0.3,0.1,0.3,0.4,0.3c0.2,0,0.4,0,0.7,0c0.3,0.3,0.7,0.7,1,1
		c0.1,0.1,0.2,0.2,0.3,0.2c0.1,0,0.3,0,0.4,0.1c0.2,0.2,0.5,0.5,0.8,0.8c0.3,0,0.5,0,0.8,0c0.2,0.1,0.3,0.3,0.5,0.4
		c0.2,0.2,0.4,0.4,0.6,0.6c0.2,0.3,0.5,0.2,0.7,0.3c0.2,0.2,0.4,0.4,0.7,0.4c0.1,0,0.1,0,0.2,0.1c0.4,0.4,0.8,0.8,1.2,1.2
		c0.1,0,0.3,0,0.4,0c0.3,0.3,0.6,0.6,0.9,0.9c0.2,0.2,0.5,0.3,0.9,0.4c0.2,0.2,0.5,0.5,0.7,0.7c0.1,0,0.3,0,0.4,0
		c0.3,0.3,0.7,0.7,1,1c0.1,0.1,0.2,0.2,0.3,0.2c0.1,0,0.3,0,0.4,0.1c0.2,0.2,0.5,0.5,0.7,0.7c0.2,0.1,0.4,0,0.6,0.2
		c0.4,0.4,0.8,0.8,1.2,1.1c0.1,0,0.3,0,0.4,0c0.7,0.7,1.4,1.4,2,2.1c0.2,0,0.4-0.1,0.5,0.2c0.1,0.1,0,0.3,0.1,0.4
		c0,0.1,0.1,0.2,0.3,0.3c0.1,0,0.3,0,0.4,0c0.7,0.7,1.3,1.4,2,2.1c0.1,0,0.3,0,0.4,0c0.4,0.4,0.8,0.8,1.2,1.2c0.1,0,0.1,0,0.2,0.1
		c0.5,0.1,0.5,0.1,0.5,0.5c0,0.3,0.1,0.4,0.4,0.4c0.4,0,0.4,0,0.5,0.5c0,0.3,0.1,0.3,0.4,0.3c0.1,0,0.1,0,0.2,0c1,1,2.1,2.1,3.1,3.1
		c0.2,0.3,0.5,0.2,0.7,0.3c0.1,0,0.1,0.1,0.1,0.1c0,0.2-0.1,0.4,0.1,0.6c0.1,0.1,0.2,0.1,0.4,0.1c0.3,0,0.3,0.2,0.3,0.6
		c0.5,0.5,1,1,1.5,1.5c0.6,0,0.5,0,0.6,0.6c0,0.1,0.1,0.1,0.1,0.2c1.3,1.3,2.7,2.7,4,4c0.1,0.2,0,0.5,0.3,0.7c0.2,0,0.4-0.1,0.5,0.2
		c0.1,0.1,0.1,0.2,0.1,0.4c0,0.1,0,0.1,0.1,0.2c0,0,0.1,0.1,0.2,0.1c0.6,0.1,0.6,0.1,0.6,0.6c0,0.1,0.1,0.1,0.1,0.2
		c0.8,0.8,1.6,1.6,2.4,2.4c0,0.1,0,0.3,0,0.4c0.3,0.3,0.6,0.6,0.8,0.9c0,0.6,0,0.6,0.6,0.6c0.2,0.2,0.4,0.4,0.6,0.6
		c0,0,0.1,0.1,0.1,0.2c0,0.2,0,0.4,0.2,0.5c0.1,0,0.3,0,0.4,0c0.1,0.1,0.1,0.1,0.2,0.2c0.2,0.6,0.2,0.7,0.4,0.9
		c0.1,0.1,0.3,0.3,0.4,0.4c0,0.2,0,0.3,0,0.4c0.4,0.4,0.8,0.8,1.2,1.2c0.1,0.1,0.1,0.2,0.1,0.4c0,0.2,0.2,0.3,0.4,0.3
		c0.2,0,0.3,0,0.3,0.2c0.2,0.6,0.2,0.6,0.4,0.9c0.1,0.1,0.3,0.3,0.4,0.4c0,0.2,0,0.3,0,0.5c0.1,0.1,0.2,0.2,0.3,0.3
		c0.2,0.2,0.4,0.3,0.5,0.6c-0.1,0.3,0.2,0.5,0.3,0.7c0.1,0.1,0.1,0.2,0.1,0.4c0,0.2,0.2,0.3,0.4,0.3c0.3,0,0.4,0.1,0.4,0.4
		c0,0.2,0,0.3,0.1,0.4c0.1,0.1,0.2,0.2,0.3,0.3c0,0.1,0,0.3,0,0.4c0.5,0.5,1,1,1.5,1.5c0.2,0.2,0.2,0.3,0.2,0.5
		c0,0.2,0.2,0.3,0.4,0.5c0,0.1,0,0.3,0,0.4c0.3,0.3,0.6,0.6,0.8,0.9c0,0.1,0,0.3,0,0.4c0.1,0.1,0.2,0.2,0.3,0.3
		c0.2,0.2,0.4,0.3,0.5,0.6c-0.1,0.3,0.2,0.5,0.4,0.7c0,0,0.1,0.1,0.1,0.2c0,0.2,0,0.3,0.1,0.4c0.2,0.2,0.5,0.5,0.7,0.7
		c0,0.1,0,0.3,0,0.4c0.1,0.1,0.1,0.1,0.1,0.2c0.2,0.3,0.5,0.5,0.7,0.8c-0.1,0.3,0.1,0.5,0.3,0.7c0,0,0.1,0.1,0.1,0.2
		c0,0.1,0,0.3,0.1,0.4c0.2,0.2,0.5,0.5,0.7,0.7c0,0.1,0,0.3,0,0.4c0.3,0.3,0.6,0.6,0.8,0.9c0,0.1,0,0.3,0,0.4
		c0.1,0.1,0.3,0.3,0.4,0.5c0,0.1,0,0.3,0.1,0.4c0.1,0.1,0.2,0.2,0.3,0.3c0,0,0.1,0.1,0.1,0.2c0,0.2,0,0.3,0.1,0.4
		c0.1,0.1,0.2,0.2,0.3,0.3c0.1,0.3,0,0.5,0.1,0.8c0,0.1,0.1,0.2,0.3,0.3c0.1,0,0.3,0,0.4,0c0,0,0.1,0.1,0.1,0.1c0,0.3,0,0.5,0,0.8
		c0.1,0.1,0.3,0.3,0.4,0.4c0,0.1,0,0.3,0,0.4c0.1,0.1,0.2,0.2,0.3,0.3c0.2,0.2,0.4,0.4,0.5,0.6c-0.1,0.3,0.1,0.5,0.3,0.7
		c0,0,0.1,0.1,0.1,0.2c0,0.2,0,0.3,0.1,0.4c0.2,0.2,0.4,0.4,0.3,0.7c0.1,0.2,0.3,0.3,0.4,0.5c0,0.1,0,0.2,0,0.4
		c0.1,0.1,0.3,0.3,0.4,0.4c0,0.1,0,0.3,0,0.4c0.1,0.2,0.3,0.3,0.4,0.5c0,0.3,0,0.5,0,0.8c0.2,0.2,0.4,0.4,0.6,0.6
		c0.2,0.2,0.2,0.2,0.2,0.5c0,0.1,0,0.3,0,0.4c0.2,0.4,0.5,0.6,0.8,0.9c0,0.3,0,0.5,0,0.8c0.1,0.2,0.3,0.3,0.4,0.5c0,0.3,0,0.5,0,0.8
		c0.3,0.3,0.6,0.5,0.8,0.9c0,0.1,0,0.1,0,0.2c0,0.4,0,0.7,0.4,0.9c0,0,0.1,0.1,0.1,0.2c0.1,0.4,0.1,0.4,0.4,0.7c0,0.3,0,0.5,0.3,0.7
		c0.1,0,0.1,0.1,0.2,0.2c0,0.4,0,0.8,0,1.2c0.3,0.3,0.6,0.6,0.9,0.9c0,0.3,0,0.6,0,0.8c0.3,0.3,0.5,0.5,0.8,0.8c0.1,0.3,0,0.7,0.1,1
		c0,0.3,0,0.3,0.2,0.5c0,0,0.1,0.1,0.2,0.2c0,0.3,0,0.5,0,0.8c0.1,0.2,0.3,0.3,0.4,0.5c0,0.1,0,0.3,0,0.4c0.1,0.2,0.3,0.3,0.4,0.5
		c0,0.5,0,1.1,0,1.6c0.3,0.3,0.5,0.5,0.7,0.7c0.1,0.1,0.1,0.2,0.1,0.4c0,0.3,0,0.6,0,0.8c0,0.1,0.1,0.2,0.2,0.3
		c0.1,0.1,0.2,0.2,0.2,0.3c0,0.2,0,0.4,0,0.7c0.1,0.1,0.2,0.3,0.4,0.5c0,0.1,0,0.3,0,0.4c0.1,0.1,0.3,0.3,0.4,0.4c0,0.5,0,1.1,0,1.6
		c0.3,0.3,0.6,0.6,0.8,0.9c0,0.7,0,1.4,0,2c0.4,0.2,0.5,0.5,0.4,0.9c0,0.2,0,0.4,0.2,0.5c0.1,0.1,0.2,0.2,0.2,0.3c0,0.2,0,0.4,0,0.7
		c0.1,0.1,0.2,0.3,0.4,0.5c0,0,0,0.1,0,0.2c0,0.8,0,1.5,0,2.3c0.3,0.3,0.6,0.6,0.8,0.9c0,0.6,0,1.1,0,1.7c0.3,0.2,0.4,0.5,0.4,0.9
		c0,0.5,0,1,0,1.5c0,0.1,0,0.1,0,0.2c0.2,0.2,0.4,0.3,0.4,0.7c0,0.3,0,0.7,0,1c0,0.3,0.2,0.5,0.4,0.7c0,0.1,0,0.1,0,0.2
		c0,0.7,0,1.4,0,2.1c0,0.3,0,0.3,0.2,0.5c0,0,0.1,0.1,0.2,0.2c0,0.3,0,0.5,0,0.8c0.1,0.2,0.3,0.3,0.4,0.5c0,1.2,0,2.5,0,3.7
		c0.1,0.2,0.3,0.3,0.4,0.5c0,0.3,0,0.5,0,0.8c0.3,0.2,0.4,0.5,0.4,0.9c0,0.5,0,1,0,1.5c0,0.1,0,0.1,0,0.2
		C397.5,329.5,397.6,329.6,397.7,329.7z M156.5,255.8c-0.1,0.4-0.5,0.4-0.8,0.4c-0.4,0-0.5,0.1-0.5,0.4c0,62.7,0,125.4,0,188
		c0,0.3,0.1,0.4,0.3,0.4c0.3,0,0.5,0.2,0.7,0.4c0.4,0.1,0.8,0,1.2,0c22.9,0,45.7,0,68.6,0c0.3,0,0.5-0.2,0.7-0.4c1.8,0,3.6,0,5.4,0
		c0.1-0.1,0.3-0.3,0.5-0.4c1,0,1.9,0,2.9,0c0.2-0.1,0.3-0.3,0.5-0.4c0.4,0,0.8,0,1.2,0c0.1-0.1,0.1-0.1,0.2-0.2
		c0.1-0.1,0.3-0.3,0.5-0.3c0.7,0,1.4,0,2.1,0c0.1,0,0.1,0,0.2,0c0.2-0.1,0.3-0.3,0.5-0.4c0.3,0.1,0.5-0.2,0.7-0.4
		c0.5-0.1,1.1,0,1.7,0c0.1-0.1,0.3-0.2,0.5-0.4c0.2,0,0.5,0,0.8,0c0.2-0.1,0.3-0.3,0.5-0.4c0.3,0,0.5,0,0.8,0
		c0.2-0.1,0.3-0.3,0.5-0.4c0.4,0,0.8,0,1.2,0c0.2-0.2,0.4-0.4,0.6-0.6c0.2-0.2,0.2-0.2,0.5-0.2c0.4,0,0.8,0,1.3,0
		c0.1,0,0.2-0.1,0.3-0.2c0.1-0.1,0.2-0.2,0.3-0.2c0.3,0,0.5-0.2,0.7-0.4c0.1,0,0.3,0,0.4,0c0.1-0.1,0.3-0.3,0.4-0.4
		c0.3,0,0.5,0,0.8,0c0.2-0.1,0.3-0.3,0.4-0.4c0.1,0,0.3,0,0.4,0c0,0,0.1-0.1,0.1-0.1c0.1-0.2,0.3-0.3,0.5-0.3c0.2,0,0.4,0,0.6,0
		c0.3-0.3,0.5-0.5,0.8-0.8c0.1,0,0.1,0,0.2,0c0.1,0,0.1,0,0.2,0c0.4,0.1,0.7-0.1,0.9-0.4c0.3,0,0.6,0,0.8,0c0.3-0.3,0.6-0.6,0.9-0.9
		c0.3,0,0.6,0,0.8,0c0.2-0.2,0.4-0.4,0.6-0.6c0.2-0.2,0.2-0.2,0.5-0.2c0.1,0,0.3,0,0.4,0c0.1,0,0.1,0,0.2-0.1
		c0.2-0.2,0.4-0.4,0.7-0.3c0.2-0.1,0.4-0.4,0.6-0.5c0.1-0.1,0.2-0.2,0.3-0.3c0.3,0,0.6,0,0.9,0c0.2-0.2,0.5-0.5,0.7-0.7
		c0.1-0.1,0.2-0.1,0.4-0.1c0.1,0,0.1,0,0.2-0.1c0.2-0.2,0.4-0.4,0.7-0.4c0.3-0.1,0.4-0.3,0.6-0.5c0.1-0.1,0.2-0.2,0.3-0.3
		c0.1,0,0.3,0,0.4,0c0.3-0.3,0.6-0.6,0.9-0.8c0.2,0,0.3,0,0.4,0c0.2-0.1,0.3-0.3,0.5-0.4c0.3,0.1,0.5-0.2,0.7-0.4
		c0.1-0.2,0.3-0.3,0.4-0.4c0.1,0,0.3,0,0.4,0c0.2-0.1,0.3-0.3,0.5-0.4c0.1,0,0.2,0,0.4,0c0.2-0.2,0.5-0.5,0.7-0.7
		c0,0,0.4-0.1,0.6-0.1c0.2-0.2,0.5-0.5,0.7-0.7c0.2-0.1,0.5,0,0.7-0.3c0.1-0.1,0.2-0.2,0.3-0.3c0.2-0.2,0.4-0.4,0.6-0.6
		c0.2-0.2,0.5-0.5,0.7-0.7c0.2-0.3,0.5-0.1,0.7-0.3c0.3-0.2,0.5-0.5,0.7-0.7c0.1,0,0.3,0,0.4,0c0.2-0.2,0.4-0.4,0.6-0.6
		c0.3-0.3,0.6-0.6,0.9-0.9c0.6-0.6,0.6-0.6,0.8-0.6c0.4-0.1,0.4-0.1,1-0.7c0.3-0.3,0.6-0.6,0.9-0.9c0.6-0.6,1.2-1.2,1.8-1.8
		c0.1,0,0.1,0,0.2,0c0.3,0.1,0.4-0.1,0.4-0.3c0.1-0.5,0.1-0.5,0.5-0.5c0.3,0,0.4-0.1,0.4-0.4c0-0.4,0.1-0.4,0.5-0.5
		c0.1,0,0.1,0,0.1,0c0.3-0.2,0.5-0.4,0.6-0.6c0-0.5,0-0.6,0.4-0.6c0.2,0,0.3,0,0.4-0.1c0.2-0.2,0.1-0.4,0.2-0.6
		c0.7-0.7,1.5-1.5,2.2-2.2c0.1-0.1,0.3-0.3,0.3-0.5c0-0.2,0-0.2,0.5-0.6c0.1-0.1,0.3-0.3,0.4-0.4c0.2-0.2,0.4-0.4,0.6-0.6
		c0.2-0.2,0.4-0.4,0.6-0.6c0-0.2,0-0.3,0-0.4c0.1-0.2,0.3-0.2,0.5-0.2c0.1,0,0.2-0.1,0.3-0.3c0-0.1,0-0.3,0.1-0.4
		c0.5-0.5,1.1-1.1,1.6-1.6c0-0.1,0-0.3,0-0.4c0.2-0.2,0.4-0.4,0.6-0.6c0.1-0.1,0.3-0.3,0.4-0.4c0.3-0.2,0.1-0.5,0.3-0.7
		c0.2-0.3,0.5-0.5,0.7-0.7c0-0.1,0-0.3,0-0.4c0.3-0.3,0.7-0.7,1-1c0.2-0.2,0.2-0.5,0.3-0.7c0.3-0.3,0.5-0.5,0.7-0.7
		c0-0.1,0-0.3,0-0.4c0.1-0.2,0.3-0.3,0.4-0.5c0-0.1,0-0.2,0-0.4c0.3-0.3,0.6-0.6,0.8-0.9c0-0.2,0-0.3,0-0.4c0.2-0.2,0.4-0.4,0.6-0.6
		c0.2-0.2,0.2-0.3,0.2-0.5c0-0.2,0.2-0.3,0.4-0.5c0-0.1,0-0.3,0-0.4c0-0.1,0.1-0.1,0.1-0.2c0.3-0.2,0.5-0.5,0.7-0.7
		c0-0.3,0-0.6,0-0.9c0.3-0.3,0.5-0.5,0.7-0.7c0,0,0.1-0.1,0.1-0.2c0-0.2,0-0.4,0-0.6c0-0.1,0-0.1,0.1-0.2c0.2-0.2,0.4-0.4,0.4-0.7
		c0.1-0.3,0.4-0.4,0.5-0.6c0.1-0.1,0.2-0.2,0.3-0.3c0-0.3,0-0.5,0-0.8c0.3-0.3,0.6-0.6,0.9-0.9c0-0.3,0-0.6,0-0.8
		c0.2-0.2,0.4-0.3,0.4-0.5c0-0.2,0.1-0.4,0.2-0.5c0.2-0.2,0.4-0.4,0.6-0.6c0.1-0.4,0-0.8,0-1.3c0.1-0.1,0.3-0.3,0.4-0.4
		c0-0.1,0-0.3,0-0.4c0.1-0.2,0.3-0.3,0.4-0.5c0-0.3,0-0.5,0-0.8c0.1-0.2,0.3-0.3,0.4-0.5c-0.1-0.3,0.1-0.5,0.3-0.7
		c0,0,0.1-0.1,0.1-0.2c0-0.3,0.2-0.5,0.4-0.7c0.1-0.4,0-0.8,0.1-1.2c0.2-0.4,0.6-0.6,0.8-0.9c0-0.7,0-1.4,0-2
		c0.2-0.4,0.6-0.6,0.8-0.9c0-0.4,0-0.8,0-1.2c0.2-0.2,0.4-0.3,0.4-0.7c0-0.4,0-0.8,0-1.3c0-0.1,0-0.1,0.1-0.2
		c0.2-0.3,0.5-0.5,0.7-0.8c0-0.7,0-1.4,0-2.1c0.1-0.2,0.3-0.3,0.4-0.5c0-0.1,0-0.3,0-0.4c0.1-0.2,0.3-0.3,0.4-0.5c0-0.8,0-1.7,0-2.5
		c0.1-0.1,0.1-0.1,0.2-0.2c0.2-0.3,0.2-0.3,0.2-0.5c0-0.7,0-1.4,0-2.1c0-0.1,0-0.1,0-0.2c0.2-0.2,0.4-0.4,0.4-0.7c0-0.1,0-0.3,0-0.4
		c0-0.4,0.1-0.7,0.4-0.9c0-0.1,0-0.3,0-0.4c0-0.8,0-1.7,0-2.5c0-0.4,0.1-0.7,0.4-0.9c0-0.4,0-0.8,0-1.2c0.1-0.2,0.3-0.3,0.4-0.5
		c0-4.9,0-9.7,0-14.6c-0.1-0.2-0.3-0.3-0.4-0.5c0-0.4,0-0.8,0-1.2c-0.4-0.4-0.4-0.4-0.4-0.9c0-1,0-1.9,0-2.9c0-0.3,0-0.5,0-0.8
		c-0.4-0.4-0.4-0.4-0.4-0.7c0-0.4-0.1-0.7-0.4-0.9c0-0.1,0-0.1,0-0.2c0-0.6,0-1.3,0-1.9c0-0.4-0.1-0.7-0.4-0.9c0-0.8,0-1.7,0-2.5
		c-0.1-0.2-0.3-0.3-0.4-0.5c0-0.3,0-0.5,0-0.8c-0.1-0.2-0.3-0.3-0.4-0.4c0-0.6,0-1.1,0-1.7c-0.2-0.2-0.4-0.3-0.4-0.7
		c0-0.1,0-0.2-0.1-0.2c-0.3-0.2-0.4-0.5-0.4-0.9c0-0.2,0-0.4,0-0.6c0-0.4-0.1-0.7-0.4-0.9c-0.1-0.3,0-0.6-0.1-0.9
		c-0.1-0.1-0.3-0.3-0.4-0.4c0-0.1,0-0.3,0-0.4c-0.1-0.1-0.3-0.3-0.4-0.5c0-0.6,0-1.1,0-1.7c-0.1-0.1-0.1-0.1-0.2-0.1
		c-0.3-0.2-0.3-0.4-0.3-0.7c-0.1-0.2-0.3-0.3-0.4-0.5c0-0.2,0-0.5,0-0.7c0-0.1-0.1-0.2-0.2-0.3c-0.2-0.1-0.2-0.3-0.2-0.5
		c0-0.1,0-0.1-0.1-0.2c-0.2-0.2-0.4-0.4-0.3-0.7c-0.1-0.2-0.3-0.3-0.4-0.5c0-0.4,0-0.8,0-1.2c-0.3-0.3-0.6-0.6-0.8-0.9
		c0-0.4,0-0.9,0-1.3c-0.2-0.2-0.5-0.5-0.7-0.7c0-0.1-0.1-0.1-0.1-0.2c0-0.1,0-0.1,0-0.2c0.1-0.4-0.1-0.7-0.4-0.9c0-0.3,0-0.5,0-0.8
		c-0.3-0.3-0.6-0.6-0.9-0.9c0-0.1,0-0.3,0-0.4c-0.1-0.1-0.1-0.1-0.2-0.2c-0.3-0.2-0.3-0.4-0.3-0.7c-0.1-0.1-0.1-0.1-0.2-0.2
		c-0.2-0.1-0.3-0.3-0.2-0.5c0-0.1,0-0.1-0.1-0.2c-0.2-0.2-0.4-0.4-0.4-0.7c-0.1-0.3-0.4-0.4-0.5-0.6c-0.1-0.1-0.2-0.2-0.3-0.3
		c0-0.1,0-0.3,0-0.4c-0.1-0.2-0.3-0.3-0.4-0.5c0-0.1,0-0.3,0-0.4c-0.1-0.1-0.2-0.2-0.3-0.3c-0.1-0.1-0.1-0.2-0.1-0.4
		c0-0.1,0-0.1,0-0.2c-0.1-0.1-0.2-0.2-0.3-0.3c-0.1-0.2,0-0.4-0.2-0.6c-0.2-0.2-0.5-0.5-0.7-0.7c0-0.1,0-0.3,0-0.4
		c-0.3-0.3-0.6-0.6-0.8-0.9c0-0.1,0-0.3,0-0.4c0,0-0.1-0.1-0.1-0.1c-0.2-0.2-0.2-0.3-0.3-0.7c-0.2-0.2-0.5-0.5-0.7-0.7
		c-0.1-0.1,0-0.3-0.1-0.4c0-0.1-0.1-0.2-0.3-0.3c-0.6-0.1-0.6-0.1-0.6-0.6c-0.1-0.1-0.3-0.3-0.4-0.4c0-0.1,0-0.3,0-0.4
		c-0.2-0.2-0.4-0.4-0.6-0.6c-0.2-0.2-0.2-0.3-0.3-0.7c-0.2-0.2-0.5-0.5-0.7-0.7c-0.1-0.4-0.1-0.6-0.3-0.7c-0.3-0.3-0.7-0.7-1-1
		c0-0.1,0-0.3,0-0.4c-0.5-0.5-1.1-1.1-1.6-1.6c0-0.1,0-0.3,0-0.4c-0.2-0.2-0.4-0.4-0.6-0.6c0,0-0.1-0.1-0.2-0.1
		c-0.2,0-0.3,0-0.4-0.1c-0.2-0.2-0.1-0.4-0.2-0.6c-0.4-0.4-0.9-0.9-1.3-1.3c-0.2-0.2-0.4-0.4-0.6-0.6c-0.2-0.2-0.5-0.5-0.7-0.7
		c-0.3-0.2-0.2-0.5-0.3-0.7c-1.3-1.3-2.6-2.6-3.8-3.8c-0.2-0.1-0.5,0-0.7-0.3c-0.2-0.3-0.5-0.5-0.7-0.7c-0.2-0.2-0.4-0.4-0.6-0.6
		c-0.6-0.6-1.2-1.2-1.8-1.8c-0.3,0-0.6,0-0.6-0.3c0-0.1,0-0.3-0.1-0.4c-0.1-0.2-0.4-0.1-0.6-0.1c-0.2-0.2-0.5-0.5-0.7-0.7
		c0,0-0.1-0.1-0.2-0.1c-0.1,0-0.3,0-0.4-0.1c-0.4-0.4-0.8-0.8-1.2-1.2c-0.1,0-0.3,0-0.5,0c-0.4-0.4-0.7-0.8-1.1-1.2
		c0,0-0.1-0.1-0.2-0.1c-0.5-0.3-0.5-0.3-0.5-0.6c0,0-0.1-0.1-0.1-0.1c-0.1-0.1-0.3,0-0.4-0.1c-0.2,0-0.3-0.2-0.5-0.4
		c-0.1,0-0.3,0-0.4,0c-0.3-0.3-0.6-0.6-0.9-0.8c-0.1,0-0.3,0-0.4,0c-0.2-0.2-0.3-0.3-0.5-0.4c-0.1-0.1-0.3-0.3-0.5-0.4
		c-0.1,0-0.3,0-0.4-0.1c-0.2-0.2-0.5-0.5-0.7-0.7c-0.3,0-0.5,0-0.7-0.3c0-0.1-0.1-0.1-0.1-0.2c-0.1,0-0.3,0-0.4,0
		c-0.2-0.2-0.4-0.4-0.6-0.6c-0.2-0.2-0.3-0.2-0.7-0.3c-0.2-0.2-0.5-0.5-0.7-0.7c-0.1,0-0.1,0-0.2,0c-0.1,0-0.1,0-0.2,0
		c-0.4,0.1-0.7-0.1-0.9-0.4c-0.1,0-0.3,0-0.4,0c-0.3-0.3-0.6-0.6-0.9-0.8c-0.1,0-0.3,0-0.4,0c-0.1-0.1-0.3-0.3-0.5-0.4
		c-0.3,0.1-0.5-0.1-0.7-0.3c0,0-0.1-0.1-0.2-0.1c-0.2,0-0.3,0-0.4-0.1c-0.2-0.1-0.3-0.4-0.5-0.3c-0.3,0-0.5-0.2-0.7-0.4
		c-0.2-0.1-0.3-0.3-0.4-0.4c-0.4,0-0.8,0-1.2,0c-0.3-0.3-0.6-0.6-0.9-0.8c-0.2,0-0.4,0-0.6,0c-0.1,0-0.2-0.1-0.3-0.2
		c-0.1-0.2-0.3-0.2-0.5-0.2c-0.1,0-0.1,0-0.2-0.1c-0.2-0.2-0.4-0.4-0.7-0.3c-0.2-0.1-0.3-0.3-0.5-0.4c-0.2,0-0.5,0-0.8,0
		c-0.3-0.3-0.6-0.6-0.9-0.8c-0.6,0-1.1,0-1.7,0c-0.2-0.2-0.4-0.4-0.6-0.6c-0.2-0.2-0.2-0.2-0.5-0.2c-0.4,0-0.7-0.1-0.9-0.4
		c-0.4-0.1-0.8,0-1.3,0c-0.3-0.3-0.6-0.5-0.9-0.8c-0.6,0-1.1,0-1.7,0c-0.1-0.1-0.1-0.1-0.2-0.2c-0.2-0.3-0.4-0.3-0.7-0.3
		c-0.2-0.3-0.5-0.4-0.9-0.4c-0.3,0-0.7,0-1,0c-0.1,0-0.2-0.1-0.3-0.2c-0.1-0.1-0.2-0.2-0.3-0.2c-0.2,0-0.4,0-0.6,0
		c-0.4,0-0.7-0.1-0.9-0.4c-0.3,0-0.5,0-0.8,0c-0.2-0.1-0.3-0.3-0.5-0.4c-1,0-1.9,0-2.9,0c-0.2-0.1-0.3-0.3-0.5-0.4
		c-0.7,0-1.4,0-2.1,0c-0.2-0.1-0.3-0.3-0.5-0.4c-3,0-6,0-9,0c-0.1,0-0.1,0-0.2,0c0,0-0.1-0.1-0.1-0.1c-0.1-0.2-0.3-0.2-0.5-0.2
		c-12.5,0-25,0-37.5,0c-9.2,0-18.5,0-27.7,0C157,255.8,156.8,255.7,156.5,255.8z"/>
	<path class="st0" d="M940.1,512.2c-0.2,0.1-0.3,0.3-0.4,0.4c-0.7,0-1.4,0-2.1,0c-0.2-0.1-0.3-0.3-0.5-0.4c-0.3,0.1-0.5-0.1-0.7-0.3
		c-0.2-0.3-0.5-0.5-0.7-0.7c0-0.8,0-1.7,0-2.5c0.2-0.2,0.5-0.4,0.4-0.7c0-105.7,0-211.4,0-317.1c0-0.2,0-0.4,0-0.6
		c0-0.1-0.1-0.2-0.2-0.3c-0.1-0.1-0.2-0.2-0.2-0.3c0-1.3,0-2.5,0-3.8c0-0.3,0-0.3,0.2-0.5c0.1-0.1,0.3-0.3,0.4-0.4
		c33.3,0,66.6,0,99.9,0c0.3,0,0.7-0.1,1,0.1c0.1,0,0.1,0.1,0.1,0.1c0,0.6,0,1.2,0,1.9c0,61.6,0,123.3,0,184.9c0,46.4,0,92.8,0,139.3
		c0,0.5,0,0.5-0.5,0.6c-0.1,0-0.1,0-0.2,0.1c-0.2,0.2-0.4,0.4-0.7,0.3c-0.2,0.1-0.3,0.3-0.5,0.4c-0.5,0-1.1,0-1.7,0
		c-0.1-0.1-0.3-0.3-0.4-0.4C1002.3,512.2,971.2,512.2,940.1,512.2z"/>
	<path class="st0" d="M868.8,514.7c-0.1,0-0.1,0-0.2,0c-0.6,0-1.3,0-1.9,0c-0.1,0.1-0.3,0.3-0.5,0.4c-1.6,0-3.3,0-5,0
		c-0.1-0.1-0.3-0.3-0.5-0.4c-0.8,0-1.7,0-2.5,0c-0.3-0.3-0.5-0.5-0.7-0.7c0,0-0.1-0.1-0.2-0.1c-0.6,0-1.3,0-1.9,0
		c-0.1,0-0.1,0-0.2-0.1c-0.2-0.2-0.5-0.5-0.8-0.8c-0.3,0-0.5,0-0.8,0c-0.2-0.1-0.3-0.3-0.5-0.4c-0.1,0-0.3,0-0.4,0
		c-0.2-0.2-0.3-0.4-0.5-0.6c-0.1-0.1-0.2-0.2-0.3-0.2c-0.1,0-0.3,0-0.4,0c-0.2-0.2-0.5-0.5-0.7-0.7c-0.1-0.1-0.3,0-0.4-0.1
		c-0.2,0-0.3-0.3-0.5-0.4c-0.2-0.1-0.4,0-0.6-0.2c-0.1-0.1-0.1-0.2-0.1-0.4c0-0.3-0.1-0.3-0.6-0.3c-1.2-1.2-2.4-2.4-3.6-3.6
		c0-0.1,0-0.2,0-0.4c-0.3-0.3-0.6-0.6-0.8-0.9c0-0.2,0-0.3,0-0.4c-0.2-0.2-0.4-0.4-0.6-0.6c-0.2-0.2-0.2-0.2-0.2-0.5
		c0-0.1,0-0.3,0-0.4c-0.2-0.4-0.5-0.6-0.8-0.9c0-0.1,0-0.3,0-0.4c-0.1-0.2-0.3-0.3-0.4-0.5c0-0.3,0-0.5,0-0.8
		c-0.3-0.3-0.5-0.5-0.7-0.7c0,0-0.1-0.1-0.1-0.2c0-0.4,0-0.8,0-1.3c0-0.3,0.1-0.6-0.1-0.8c-0.1-0.1-0.2-0.2-0.3-0.3
		c0,0-0.1-0.1-0.1-0.2c0-0.3,0-0.7,0-1.1c-0.1-0.1-0.2-0.3-0.4-0.5c-0.1-0.5,0-1.1,0-1.7c-0.1-0.1-0.3-0.3-0.4-0.4
		c0-0.7,0-1.4,0-2.1c0.1-0.1,0.3-0.3,0.4-0.5c0-0.5,0-1.1,0-1.6c0.1-0.2,0.3-0.3,0.4-0.5c0-0.4,0-0.8,0-1.3c0.3-0.2,0.4-0.5,0.4-0.9
		c0-0.6,0-1.3,0-1.9c0-0.1,0-0.1,0.1-0.2c0.2-0.2,0.5-0.5,0.8-0.8c0-0.3,0-0.5,0-0.8c0.3-0.3,0.6-0.6,0.9-0.9c0-0.3,0-0.5,0-0.8
		c0.4-0.4,0.8-0.8,1.2-1.2c0-0.2,0-0.4,0-0.6c0-0.4,0.1-0.5,0.5-0.5c0.3,0,0.4-0.1,0.4-0.4c0-0.1,0-0.1,0-0.2
		c0.1-0.1,0.3-0.3,0.4-0.5c0-0.1,0-0.3,0-0.4c1.2-1.2,2.4-2.4,3.6-3.6c0.1,0,0.2,0,0.4,0c0.2-0.1,0.3-0.3,0.5-0.4
		c0.2,0,0.4,0.1,0.6-0.2c0.1-0.1,0-0.3,0.1-0.4c0-0.1,0.1-0.2,0.3-0.3c0.1,0,0.3,0,0.4,0c0.2-0.2,0.5-0.5,0.7-0.7
		c0.4-0.1,0.8,0,1.2-0.1c0.4-0.2,0.6-0.5,0.9-0.8c0.1,0,0.3,0,0.4,0c0.2-0.1,0.3-0.3,0.5-0.4c0.4,0,0.8,0,1.2,0
		c0.3-0.3,0.5-0.6,0.9-0.8c0.3,0,0.7,0,1,0c0.1,0,0.2-0.1,0.3-0.2c0.1-0.2,0.3-0.2,0.5-0.2c0.4,0.1,0.7-0.1,0.9-0.4c0,0,0.1,0,0.2,0
		c2.3,0,4.6,0,6.9,0c0.1,0.1,0.3,0.3,0.5,0.4c0.3,0,0.5,0,0.8,0c0.2,0.1,0.3,0.3,0.5,0.4c0.4,0,0.8,0,1.2,0c0.2,0.1,0.3,0.3,0.5,0.4
		c0.1,0.1,0.3,0,0.4,0c0.2,0.3,0.5,0.4,0.9,0.4c0.3,0,0.7,0,1,0c0.1,0,0.1,0,0.2,0.1c0.4,0.4,0.8,0.8,1.2,1.2c0.3,0,0.5,0,0.8,0
		c0.2,0.1,0.3,0.3,0.5,0.4c0.1,0,0.3,0,0.4,0c0.5,0.5,1.1,1.1,1.6,1.6c0.1,0,0.3,0,0.4,0c0.3,0.3,0.6,0.6,0.9,0.8
		c0.2,0,0.4-0.1,0.6,0.2c0.1,0.1,0,0.3,0.1,0.4c0,0.1,0.1,0.2,0.3,0.3c0.1,0,0.3,0,0.4,0c0.4,0.4,0.8,0.8,1.2,1.2
		c0.1,0.1,0.2,0.2,0.2,0.3c0,0.1,0,0.3,0.1,0.4c0.2,0.2,0.5,0.5,0.7,0.7c0,0.1,0.1,0.5,0.1,0.6c0.4,0.4,0.8,0.8,1.2,1.2
		c0,0.3,0,0.5,0,0.8c0.3,0.3,0.5,0.5,0.8,0.8c0.1,0.1,0,0.3,0.1,0.4c0,0.2,0.2,0.3,0.4,0.5c0,0.3,0,0.5,0.3,0.7
		c0.1,0,0.1,0.1,0.2,0.2c0,0.3,0,0.5,0,0.8c0.1,0.2,0.3,0.3,0.4,0.5c0,0.3,0,0.5,0,0.8c0.3,0.3,0.5,0.5,0.7,0.7c0,0,0.1,0.1,0.1,0.2
		c0,0.1,0,0.1,0,0.2c0,3.7,0,7.4,0,11c0,0.1,0,0.3-0.1,0.4c-0.2,0.2-0.5,0.5-0.7,0.7c-0.1,0.4,0,0.8,0,1.3c-0.1,0.1-0.3,0.3-0.4,0.5
		c0,0.1,0,0.3,0,0.4c-0.1,0.2-0.3,0.3-0.4,0.5c0,0.1,0,0.3,0,0.4c-0.1,0.2-0.3,0.3-0.4,0.5c-0.1,0.1,0,0.3,0,0.4
		c-0.2,0.2-0.5,0.5-0.7,0.7c-0.1,0.3,0,0.5-0.1,0.8c-0.2,0.4-0.5,0.6-0.8,0.9c0,0.1,0,0.3,0,0.4c-0.1,0.2-0.3,0.3-0.4,0.5
		c0,0.2,0.1,0.4-0.2,0.6c-0.1,0.1-0.3,0-0.4,0.1c-0.1,0-0.2,0.1-0.3,0.3c0,0.1,0,0.3,0,0.4c-0.9,0.9-1.8,1.8-2.7,2.7
		c-0.5,0-0.5,0-0.6,0.5c0,0.1-0.1,0.3-0.2,0.3c-0.1,0-0.3,0-0.4,0c-0.1,0.1-0.1,0.1-0.2,0.2c-0.1,0.1-0.2,0.2-0.3,0.3
		c-0.1,0-0.3,0-0.4,0c-0.2,0.2-0.4,0.4-0.6,0.6c-0.2,0.3-0.5,0.1-0.7,0.3c-0.3,0.2-0.5,0.5-0.7,0.7c-0.3,0-0.5,0-0.8,0
		c-0.3,0.3-0.6,0.6-0.9,0.8c-0.2,0-0.3,0-0.4,0c-0.2,0.3-0.5,0.4-0.9,0.4c-0.3,0-0.7,0-1,0c-0.4,0-0.7,0-0.9,0.4
		c0,0-0.1,0.1-0.2,0.1C869.1,514.2,869,514.5,868.8,514.7z"/>
	<path class="st0" d="M1115.6,468.8c0.2,0.1,0.3,0.3,0.4,0.4c0.1,0,0.3,0,0.4,0c0.2,0.1,0.3,0.3,0.4,0.4c0.4,0,0.9,0,1.3,0
		c0.2,0.2,0.5,0.5,0.7,0.7c0.5,0.1,1,0,1.4,0c0.3,0,0.3,0,0.5,0.2c0,0,0.1,0.1,0.1,0.1c0.1,0,0.3,0,0.4,0c0.3,0.3,0.6,0.6,0.9,0.8
		c0.3,0,0.5,0,0.8,0c0.2,0.2,0.3,0.3,0.5,0.5c0.1,0.1,0.3,0.3,0.5,0.4c0.1,0,0.3,0,0.4,0.1c0.2,0.2,0.5,0.5,0.7,0.7
		c0.1,0,0.3,0,0.4,0c0.1,0,0.1,0.1,0.2,0.1c0.8,0.8,1.6,1.6,2.4,2.4c0.2,0.1,0.4,0,0.6,0.1c0.1,0.2,0,0.4,0.2,0.6
		c0.6,0.6,1.3,1.3,1.9,1.9c0,0,0.1,0.1,0.1,0.2c0,0.1,0,0.3,0,0.4c0.3,0.3,0.3,0.3,0.4,0.9c0.2,0.2,0.5,0.5,0.8,0.8
		c0,0.3,0,0.5,0,0.8c0.3,0.4,0.6,0.6,0.9,0.9c0,0.1,0,0.3,0,0.4c0.1,0.1,0.1,0.1,0.2,0.1c0.3,0.2,0.3,0.4,0.3,0.7
		c0.1,0.2,0.3,0.3,0.4,0.5c0,0.4,0,0.7,0,1.1c0,0.1,0,0.1,0.1,0.2c0.1,0.1,0.2,0.2,0.3,0.3c0,0.1,0.1,0.1,0.1,0.2c0,0.5,0,1,0,1.5
		c0,0.1,0,0.1,0.1,0.2c0.2,0.2,0.4,0.4,0.3,0.7c0.1,0.2,0.3,0.3,0.4,0.5c0,2.3,0,4.7,0,7.1c-0.1,0.1-0.3,0.3-0.4,0.4
		c0,0.1,0,0.3,0,0.4c-0.1,0.2-0.3,0.3-0.4,0.5c0,0.4,0,0.8,0,1.2c-0.2,0.2-0.3,0.3-0.4,0.5c0,0.4,0,0.9,0,1.3
		c-0.2,0.2-0.5,0.5-0.7,0.7c-0.1,0.3,0,0.5-0.1,0.8c-0.2,0.4-0.6,0.6-0.8,1c0,0.2,0,0.5,0,0.8c-0.1,0.1-0.2,0.2-0.3,0.3
		c-0.2,0.2-0.4,0.4-0.5,0.6c-0.1,0.1,0,0.3-0.1,0.4c-0.1,0.2-0.3,0.3-0.4,0.5c0,0.1,0,0.3-0.1,0.4c0,0.1-0.1,0.1-0.1,0.1
		c-0.3,0-0.3,0-0.6,0.5c0,0.1-0.1,0.1-0.1,0.2c-0.2,0.2-0.5,0.5-0.7,0.7c0,0.1,0,0.3,0,0.4c-0.2,0.2-0.4,0.4-0.6,0.6
		c-0.2,0.1-0.4,0-0.5,0.1c-0.4,0.4-0.8,0.8-1.2,1.2c-0.1,0.1-0.3,0.3-0.5,0.4c-0.1,0-0.3,0-0.4,0.1c-0.1,0-0.1,0.1-0.1,0.1
		c0,0.3,0,0.3-0.5,0.6c-0.1,0-0.1,0-0.2,0.1c-0.4,0.4-0.8,0.8-1.2,1.2c-0.2,0-0.4,0-0.6,0c-0.3,0-0.4,0.1-0.4,0.3
		c-0.1,0.5-0.1,0.5-0.5,0.5c-0.1,0-0.3,0-0.4,0c-0.1,0-0.1,0-0.2,0c-0.1,0.1-0.2,0.2-0.3,0.3c-0.1,0.1-0.2,0.1-0.4,0.1
		c-0.1,0-0.2,0.1-0.3,0.2c-0.1,0.2-0.3,0.2-0.5,0.2c-0.1,0-0.2,0.1-0.3,0.2c0,0.1-0.1,0.1-0.2,0.2c-0.5,0.1-1.1,0-1.6,0
		c-0.3,0.2-0.6,0.6-0.9,0.8c-0.8,0-1.7,0-2.5,0c-0.2,0.1-0.3,0.3-0.4,0.4c-1.7,0-3.4,0-5,0c-0.2-0.3-0.5-0.4-0.9-0.4
		c-0.6,0-1.2,0-1.9,0c-0.1,0-0.1,0-0.2,0c-0.2-0.2-0.5-0.5-0.7-0.7c-0.1,0-0.1,0-0.2,0c-0.6,0-1.1,0-1.7,0c-0.3,0-0.3,0-0.5-0.2
		c0,0-0.1-0.1-0.1-0.1c-0.1,0-0.3,0-0.4,0c-0.3-0.3-0.6-0.6-0.9-0.8c-0.3,0-0.5,0-0.8,0c-0.2-0.2-0.4-0.4-0.6-0.6
		c-0.2-0.2-0.2-0.2-0.5-0.2c-0.1,0-0.3,0-0.4,0c-0.1,0-0.1,0-0.2-0.1c-0.4-0.4-0.8-0.8-1.2-1.2c-0.1,0-0.3,0-0.4,0
		c-0.1-0.1-0.3-0.3-0.4-0.4c-0.2-0.2-0.2-0.2-0.9-0.4c-0.2-0.1-0.2-0.1-0.2-0.6c-0.1-0.1-0.3-0.3-0.4-0.4c-0.1-0.2-0.3-0.2-0.5-0.2
		c-0.2,0-0.3-0.2-0.3-0.5c0-0.3-0.1-0.3-0.4-0.4c-0.4,0-0.4,0-0.5-0.5c0-0.1,0-0.1-0.1-0.2c-0.2-0.2-0.5-0.5-0.7-0.7
		c-0.1-0.4-0.1-0.5-0.3-0.7c0,0-0.1-0.1-0.1-0.1c-0.1-0.2,0.1-0.4-0.1-0.6c-0.1-0.1-0.2-0.1-0.4-0.1c-0.2,0-0.3-0.1-0.3-0.4
		c0-0.2,0-0.4,0-0.6c-0.1-0.1-0.1-0.1-0.2-0.2c-0.3-0.2-0.3-0.4-0.3-0.7c-0.3-0.3-0.5-0.5-0.7-0.7c-0.1-0.2-0.1-0.4-0.1-0.6
		c0-0.3,0-0.3-0.2-0.5c-0.2-0.2-0.4-0.4-0.6-0.6c0-0.4,0-0.8,0-1.2c-0.1-0.2-0.3-0.3-0.4-0.5c0-0.1,0-0.3,0-0.4
		c-0.1-0.2-0.3-0.3-0.4-0.4c0-0.4,0-0.8,0-1.3c-0.3-0.2-0.5-0.5-0.4-0.9c0-1.7,0-3.5,0-5.2c0-0.8,0-1.5,0-2.3c0-0.1,0-0.3,0-0.4
		c0.3-0.2,0.4-0.5,0.4-0.9c0-0.1,0-0.1,0-0.2c-0.1-0.4,0.1-0.7,0.4-0.9c0,0,0-0.1,0.1-0.2c0.1-0.3,0.1-0.3,0.4-0.7
		c0.1-0.4,0-0.8,0.1-1.3c0.2-0.3,0.5-0.6,0.8-0.9c0-0.3,0-0.5,0-0.8c0.1-0.2,0.3-0.3,0.4-0.5c-0.1-0.3,0.1-0.5,0.3-0.7
		c0.1-0.1,0.1-0.2,0.1-0.4c0-0.1,0-0.1,0.1-0.2c0.4-0.4,0.8-0.8,1.2-1.2c0-0.1,0-0.3,0-0.4c0.2-0.2,0.5-0.5,0.7-0.7
		c0.2-0.2,0.6-0.4,0.5-0.8c0.1-0.3,0.4-0.5,0.7-0.8c0.2-0.3,0.5-0.5,0.7-0.7c0.3-0.3,0.6-0.6,0.9-0.9c0.5,0,0.5,0,0.6-0.5
		c0.1-0.3,0.2-0.3,0.6-0.3c0.4-0.4,0.8-0.8,1.2-1.2c0.1-0.1,0.2-0.1,0.4-0.1c0.1,0,0.1,0,0.2-0.1c0.2-0.2,0.5-0.5,0.7-0.7
		c0.3,0,0.5,0,0.8,0c0.3-0.3,0.6-0.6,0.9-0.8c0.2,0,0.4,0,0.6-0.2c0.1-0.1,0.2-0.2,0.3-0.2c0.4,0,0.8,0,1.2-0.1
		c0.2-0.2,0.4-0.4,0.7-0.4c0.2-0.1,0.3-0.2,0.5-0.4c0.4-0.1,0.8,0,1.3-0.1c0.1-0.1,0.2-0.2,0.4-0.4c0.4,0,0.8,0,1.2,0
		c0.2-0.1,0.3-0.3,0.5-0.4C1110.9,468.8,1113.2,468.8,1115.6,468.8z"/>
	<path class="st0" d="M397.4,496.2c-0.1-0.2-0.3-0.3-0.4-0.4c0-0.2,0-0.3,0-0.4c-0.3-0.2-0.5-0.5-0.4-0.9c0-1.5,0-3.1,0-4.6
		c0-0.1,0-0.3,0-0.4c0.2-0.2,0.4-0.4,0.4-0.7c0-0.1,0-0.1,0.1-0.2c0.1-0.1,0.2-0.2,0.3-0.3c0.1-0.4,0-0.8,0-1.3
		c0.1-0.1,0.3-0.3,0.4-0.5c0-0.8,0-1.6,0-2.5c0.3-0.3,0.6-0.6,0.8-0.9c0-0.2,0-0.3,0-0.4c0.1-0.1,0.2-0.2,0.3-0.3
		c0.1-0.1,0.1-0.2,0.1-0.4c0-0.3,0.4-0.4,0.4-0.7c0-0.2,0.1-0.4,0.2-0.5c0.1,0,0.1-0.1,0.1-0.1c0.1-0.3,0-0.5,0.3-0.7
		c0.2-0.2,0.4-0.4,0.6-0.6c0-0.1,0-0.3,0-0.4c0.3-0.3,0.6-0.5,0.8-0.9c-0.1-0.4,0.3-0.6,0.5-0.8c0.2-0.3,0.5-0.5,0.7-0.7
		c0-0.4,0-0.7,0.5-0.6c0.1,0,0.1,0,0.2-0.1c0.5-0.5,1-1,1.5-1.5c0.2-0.2,0.4-0.6,0.8-0.6c0.2,0,0.2,0,0.6-0.5
		c0.2-0.2,0.5-0.5,0.7-0.7c0.1,0,0.3,0,0.4,0c0.3-0.3,0.6-0.6,0.9-0.8c0.3,0,0.6,0,0.8,0c0.3-0.3,0.5-0.5,0.8-0.7
		c0,0,0.1-0.1,0.2-0.1c0.3,0.1,0.5-0.2,0.7-0.4c0.5-0.1,1.1,0,1.6,0c0.4-0.2,0.6-0.6,0.9-0.8c0.4,0,0.8,0,1.2,0
		c0.2-0.1,0.3-0.3,0.5-0.4c0.3,0,0.5,0,0.8,0c0.2-0.3,0.5-0.5,0.9-0.4c2.1,0,4.2,0,6.3,0c0.1,0,0.3,0,0.4,0.1
		c0.5,0.4,0.2,0.4,0.9,0.4c0.3,0,0.5,0.2,0.7,0.4c0.4,0.1,0.8,0,1.3,0c0.1,0.1,0.3,0.3,0.5,0.4c0.1,0,0.3,0,0.4,0
		c0.2,0.1,0.3,0.3,0.5,0.4c0.4,0,0.8,0,1.2,0c0.2,0.1,0.3,0.3,0.5,0.4c0.1,0.1,0.3,0,0.4,0c0.2,0.2,0.4,0.4,0.6,0.6
		c0.2,0.2,0.2,0.2,0.5,0.2c0.1,0,0.3,0,0.4,0c0.4,0.2,0.6,0.5,0.9,0.8c0.1,0,0.3,0,0.5,0c0.4,0.4,0.7,0.8,1.1,1.2
		c0,0,0.1,0.1,0.2,0.1c0.5,0.3,0.5,0.3,0.5,0.6c0.1,0.1,0.2,0.2,0.3,0.2c0.2,0,0.3,0,0.4,0.1c0.7,0.7,1.5,1.5,2.2,2.2
		c0,0.2,0,0.3,0,0.4c0.2,0.2,0.4,0.4,0.6,0.6c0.2,0.1,0.4,0,0.6,0.2c0.1,0.2,0,0.4,0.2,0.6c0.2,0.3,0.5,0.5,0.7,0.7
		c0,0.3,0,0.5,0.3,0.7c0.1,0,0.1,0.1,0.2,0.2c0,0.1,0,0.3,0,0.4c0.1,0.2,0.3,0.3,0.4,0.5c0,0.1,0,0.3,0,0.4c0.1,0.2,0.3,0.3,0.4,0.5
		c0.1,0.1,0,0.3,0,0.4c0.2,0.2,0.5,0.5,0.7,0.7c0.1,0.3,0,0.7,0.1,1c0,0.3,0,0.3,0.2,0.5c0,0,0.1,0.1,0.2,0.2c0,0.3,0,0.5,0,0.8
		c0.1,0.2,0.3,0.3,0.4,0.5c0,0.1,0,0.3,0,0.4c0.1,0.2,0.3,0.3,0.4,0.5c0,3.5,0,7,0,10.4c-0.1,0.2-0.3,0.3-0.4,0.5
		c-0.1,0.1,0,0.3,0,0.4c-0.2,0.2-0.4,0.3-0.4,0.7c0,0.1-0.1,0.2-0.2,0.3c-0.2,0.1-0.2,0.3-0.2,0.5c0.1,0.4-0.1,0.7-0.4,0.9
		c0,0.3,0,0.5-0.3,0.7c-0.1,0-0.1,0.1-0.2,0.2c0,0.2,0,0.4,0,0.6c0,0.3-0.1,0.4-0.3,0.4c-0.5,0.1-0.5,0.1-0.5,0.7c0,0.1,0,0.3,0,0.4
		c-0.2,0.2-0.3,0.3-0.4,0.5c-0.1,0.1,0,0.3-0.1,0.4c-0.2,0.2-0.5,0.5-0.7,0.7c-0.1,0.2,0,0.5-0.3,0.7c-0.4,0.3-0.7,0.7-1,1
		c0,0.2,0.1,0.5-0.2,0.6c-0.1,0.1-0.3,0-0.4,0.1c-0.1,0-0.1,0.1-0.2,0.1c0,0-0.1,0.1-0.1,0.2c0,0.2,0,0.4-0.2,0.5
		c-0.1,0.1-0.3,0-0.4,0c-0.6,0.6-1.3,1.3-1.9,1.9c-0.2,0.2-0.4,0.2-0.6,0.2c-0.5,0.4-0.9,0.9-1.4,1.3c-0.2,0-0.5,0-0.8,0
		c-0.2,0.2-0.3,0.3-0.5,0.5c-0.2,0.2-0.4,0.4-0.7,0.4c-0.2,0.1-0.3,0.2-0.5,0.4c-0.3,0-0.5,0-0.7,0.3c0,0.1-0.1,0.1-0.1,0.2
		c-0.1,0-0.3,0-0.4,0c-0.2,0.1-0.3,0.3-0.5,0.4c-0.5,0-1.1,0-1.6,0c-0.2,0.1-0.3,0.3-0.5,0.4c-0.3-0.1-0.5,0.1-0.7,0.3
		c0,0-0.1,0.1-0.2,0.1c-0.6,0-1.1,0-1.7,0c-0.3,0-0.5,0.2-0.7,0.4c-0.1,0.1-0.3,0.1-0.4,0.1c-1.4,0-2.8,0-4.2,0
		c-0.4,0.1-0.7-0.1-0.9-0.4c-0.1,0-0.1,0-0.2,0c-0.8,0-1.5,0-2.3,0c-0.3-0.3-0.6-0.6-0.9-0.8c-0.7,0-1.4,0-2.1,0
		c-0.2-0.1-0.3-0.3-0.5-0.4c-0.1,0-0.3,0-0.4-0.1c-0.1-0.1-0.2-0.2-0.3-0.3c0,0-0.1-0.1-0.2-0.1c-0.3,0.1-0.5-0.2-0.7-0.4
		c-0.2-0.1-0.5,0-0.7-0.3c-0.2-0.2-0.4-0.4-0.6-0.6c-0.1,0-0.3,0-0.4,0c-0.2-0.1-0.3-0.3-0.4-0.4c-0.1,0-0.3,0-0.4,0
		c-0.2-0.2-0.5-0.5-0.7-0.7c0,0-0.1-0.1-0.2-0.1c-0.2,0-0.4,0-0.5-0.2c-0.1-0.1,0-0.3,0-0.4c-0.1-0.2-0.2-0.2-0.3-0.2
		c-0.1,0-0.1,0-0.2,0c-0.1,0-0.1-0.1-0.2-0.1c-0.2-0.2-0.4-0.4-0.6-0.6c-0.2-0.2-0.5-0.5-0.7-0.7c-0.2-0.2-0.5-0.2-0.7-0.3
		c-0.2-0.2-0.4-0.4-0.6-0.6c0-0.1,0-0.3,0-0.4c-0.3-0.3-0.5-0.5-0.7-0.7c0,0-0.1-0.1-0.1-0.2c0-0.2,0-0.4-0.2-0.5
		c-0.1-0.1-0.3,0-0.4,0c-0.1-0.1-0.2-0.2-0.2-0.3c0-0.2,0-0.4,0-0.6c-0.2-0.4-0.6-0.6-0.8-0.9c0-0.1,0-0.3,0-0.4
		c-0.1-0.2-0.3-0.3-0.4-0.4c0-0.1,0-0.3,0-0.4c-0.1-0.1-0.3-0.3-0.4-0.5c0-0.1,0-0.3-0.1-0.4c-0.1-0.1-0.2-0.2-0.3-0.3
		c0,0-0.1-0.1-0.1-0.2c0-0.2-0.1-0.4-0.2-0.5c-0.2-0.2-0.4-0.4-0.6-0.6c0-0.7,0-1.4,0-2.1c-0.1-0.2-0.3-0.3-0.4-0.5
		C397.4,497,397.4,496.6,397.4,496.2z"/>
</g>
</svg>
