<?xml version="1.0" encoding="utf-8"?>
<!-- Generator: Adobe Illustrator 25.4.1, SVG Export Plug-In . SVG Version: 6.00 Build 0)  -->
<svg version="1.1" id="Layer_1" xmlns="http://www.w3.org/2000/svg" xmlns:xlink="http://www.w3.org/1999/xlink" x="0px" y="0px"
	 width="1200px" height="700px" viewBox="0 0 1200 700" style="enable-background:new 0 0 1200 700;" xml:space="preserve">
<style type="text/css">
	.st0{fill:#FFFFFF;}
</style>
<g>
	<path class="st0" d="M223.4,243.2c-0.4,1-0.6,1.8-1,2.5c-1.9,3.4-3.9,6.7-5.9,10c-1.1,1.8-2.5,3.5-2.6,5.8c1-1.2,2.1-2.1,3.6-2.7
		c1.9-0.8,3.5-2,5.3-3c4.1-2.1,8.3-4.2,12.4-6.3c3.5,0.5,5.5-2.4,8.2-3.7c0.3-0.2,0.7-0.3,1.2-0.6c1.5,1.1,3.2,2.1,4.7,3.4
		c2.7,2.3,6.1,2.6,9.1,3.6c0.6,0.2,1.3,0.2,1.9-0.1c1.6-0.7,3.1-1.5,5-1.2c0.3,0,0.8-0.5,1-0.8c0.6-0.6,1-1.3,1.6-2
		c2.8,0,5.5,0,8.3,0c3.3,0,6.5-0.2,9.4-2.2c1.2-0.8,2.6-1.4,4-2.1c0-0.2-0.1-0.5-0.1-0.7c-3.4-0.7-6.9-1.5-10.3-2.2
		c-0.3-1.6,0-2.5,1.1-3.3c0.7-0.5,1.3-1.4,1.9-2c0.6-0.6,1.1-1.3,1.9-1.6c4.2-2.1,6.1-5.5,5.9-10.3c1-0.4,1.9-0.8,2.7-1.1
		c0.8,2.9,1.6,5.5,2.2,8.2c0.4,1.8,0.6,3.6,0.7,5.4c0.4,7.7,0.7,15.5,1,23.2c0.1,2.1,1,3.7,2.2,5.7c0.1-0.8,0.2-1.1,0.2-1.5
		c0-5.2,0-10.5-0.2-15.7c-0.1-3.2,0.1-6.3,1-9.3c0.9-3.1,1-6.2,0.8-9.4c-0.1-1.4,0-2.8,0-4.3c4.1,0.3,4.8-0.3,5.4-4.7
		c0.1-1,0.6-1.4,1.6-1.5c0.9-0.1,1.9-0.6,2.7-1c2.7-1.3,5.4-2.6,8.5-4.1c0.1,1.5,0.1,2.5,0.3,3.5c0.3,2.2,0.3,4.5,1.1,6.4
		c2.3,5.8,2.6,11.6,0.7,17.6c-1.3,4.4-1,8.7,0.8,12.9c0.4,0.9,0.7,1.8,0.7,2.7c0.3,5.1,0.4,10.1,0.7,15.2c0.3,4.7,0.6,9.3,1.2,14
		c0.3,2.9,1.1,5.8,1.7,8.6c0.5-3.4,1-6.7,0.9-10.1c-0.2-6.9-0.7-13.7-1-20.6c0-0.8,0.1-1.7,0.2-2.5c0.3-2.9,1-5.9,0.8-8.8
		c-0.4-4.6,0.4-8.9,1.9-13.2c1.5-4.4,2.6-9,2.1-13.8c-0.2-1.5-0.3-3-0.5-4.6c-0.3-3.2,1.2-5.3,2.9-5.4c2.7-0.3,3.5-2.4,4.2-4.7
		c0.2-0.7,0.2-1.4,0.4-2.4c5.7,4.5,10.8,9.3,17.5,12.9c-1.2-3.3-2.3-5.9-3.2-8.6c-0.9-2.8-1.9-5.5-2.1-8.4c2.7-1.4,5-1,7.2,0.5
		c2.5,1.8,5.1,3.4,7.6,5.2c2.1,1.5,4.4,2.2,7.4,3.1c-3.8-5-7.1-9.5-10.6-13.9c-1.4-1.8-1.2-3.5-0.5-5.3c0.5-1.3,1.3-2.4,2-3.7
		c2,0.4,3.8,0.8,5.6,1.2c1.7,0.4,3.4,0.9,5.1,1.4c-0.6-0.9-1-1.9-1.7-2.7c-2.5-2.9-5-5.8-6.9-7.9c0-3.4,0-5.8,0-8.1
		c2.1-1.7,5.1-1.8,6.8-4.6c-1.9-0.4-3.8,0.2-5.1-1.2c0.1-1.5,0.2-3,0.4-4.4c0.7-4.1,1.1-8.4,2.3-12.3c1.3-4.2,1.4-8.5,1.4-12.7
		c0-2.3,0.2-4.1,1.5-5.8c1.3-1.9,1.9-4,2.1-6.4c0.2-2.4,0.8-4.9,1.8-7.1c4.7-10.4,10.9-20,17.9-28.9c2.8-3.5,5.6-7,9.4-9.7
		c1.8-1.3,3.2-3.1,4.7-4.7c0,0,0,0,0,0c0,0,0,0,0,0c0.1-0.1,0.3-0.2,0.4-0.3c-0.2,0-0.4,0.1-0.6,0.1c-1.8,0.8-3.6,1.4-5.2,2.4
		c-5.3,3.4-10.6,6.9-16,10.4c-0.1-0.6-0.2-0.8-0.1-1.1c1-5.4,3.9-10.1,5.5-15.3c1.3-4.2,3.8-8,5.8-12c0.2-0.4,0.3-0.9,0.7-1.8
		c-2.5,1.1-3.8,2.8-5.2,4.4c-2.4,2.8-4.7,5.7-7.2,8.3c-2.6,2.7-6.1,4.2-9.3,6.4c-2.7-3.4-0.9-7-1.2-10.4c-1.1,1.4-2,3-2.9,4.5
		c-2.2,3.3-4.4,6.6-6.6,9.9c-2,3-5.2,3-7.9,4.2c-1.9-3.5,0-6.7-0.2-10.1c-1.9,2.3-3.6,4.6-5.2,7c-0.7,1-1.4,1.9-2.6,2.3
		c-2.9,1-5.8,2.2-9,3.4c0-1.7,0.1-3,0-4.3c-0.2-1.3-0.7-2.5-1.2-4.4c-1.6,2.3-2.9,3.9-3.9,5.8c-1.2,2.1-3.1,3.2-4.9,4.4
		c-1.7,1.1-2.4,3.6-5,3.8c0-3.6,2.4-6.4,2.7-10.1c-2.7,2.3-5,4.4-7.5,6.4c-1.8,1.4-3.7,3-6,1.9c-2.5-1.1-5-1.3-7.6-0.8
		c-1.2,0.2-2.1-0.1-3-0.9c-2-1.8-4.1-3.6-6-5.4c-1-0.9-1.9-1.9-3.6-2.2c0.2,1.6,0.4,2.8,0.6,4.2c-2.6,0.8-5,0.2-7.4-0.2
		c-1.9-0.4-3.4-0.2-4.7,1.4c-3.7-2.1-4.9-6.7-8.8-9.2c0,2.5,0,4.5,0,6.5c-1.7-0.4-1.6-0.4-3.2-1.7c-0.9-0.8-2.2-1.9-3-1.6
		c-1.5,0.5-2.3-0.1-3.3-0.8c-4.2-2.9-8-6.4-11.2-10.5c-0.2-0.3-0.5-0.4-0.8-0.6c-0.2,0.1-0.3,0.2-0.5,0.2c1.2,4.2,2.3,8.3,3.6,12.8
		c-2.9-0.2-5.4-0.4-7.6-2c-2.5-1.8-4.9-3.7-7.5-5.4c-6.2-4.1-11-9.5-14.7-16c-0.4-0.7-0.9-1.3-1.3-1.9c1.3,7.3,3.6,14.1,7.5,20.9
		c-1.5-0.3-2.3-0.5-3.2-0.6c-0.7-0.1-1.8-0.3-2.1,0.1c-1.1,1.4-2,0.8-3.1,0.1c-0.7-0.4-1.5-0.4-2.3-0.6c-0.4-0.1-0.9-0.2-1.2-0.5
		c-2.7-3.3-5.6-6.4-7.9-9.9c-1.9-3-3.1-6.5-4.6-9.8c-0.3-0.6-0.6-1.3-1-1.9c-0.2,4.6,0.3,9,1.4,13.3c0.2,0.7,0.5,1.9,0.2,2.1
		c-2,1.6-1.3,3.4-0.7,5.3c0.1,0.4,0.2,0.8,0.1,1.1c-0.6,3.4-2.2,6.5-3.3,9.8c-0.3,0.8-1.2,1.3-1.8,2c0,0,0,0-0.1,0c0,0,0,0,0,0
		c0,0,0.1-0.1,0.1-0.1c-1.2,2.9-2.1,5.9-3.6,8.6c-0.9,1.6-1,2.9-0.3,4.4c1.2,2.5,2.3,5,3.7,7.3c1.6,2.8,3.5,5.4,5.1,8.2
		c1.4,2.3,1.3,3.3-0.4,5.4c-1.8,2.1-3.7,4.1-5.6,6.2c0.5,1.2,1.8,0.9,2.8,1.2c2.9,0.9,5.8,1.7,8.7,2.5c0.9,0.3,1.7,0.8,2.6,1.3
		c-2.5,4.4-1.4,6.6,3.2,7c0.1,0.2,0.3,0.5,0.4,0.7c1.1,2.3,2,2.7,4.3,1.9c0.7-0.2,1.4-0.4,2.1-0.7c2.5-1.2,4.9-0.3,6.3,1.5
		c2,2.4,4.5,4.2,6.8,6.3c1.1,0.3,2.1,0.6,3.2,0.8c2.3,0.5,4.3,1.4,5.9,3.2c0.4,0.4,1.1,0.6,1.6,0.9c0.6,0.5,1.2,1.1,1.8,1.6
		c2.5,1.6,4.9,3.3,7.4,4.9c4.8,0.6,8,4,11.4,7c0.7,0.6,0.9,2,1.1,3.1c0.3,1.4,0.3,2.8,0,4.3c-0.2-0.6-0.5-1.1-0.7-1.7
		c-0.5-1.5-0.8-3.2-1.4-4.6c-0.4-0.9-1.1-1.8-1.9-2.3c-3-1.8-6-3.4-9.1-5.1c-2.9-0.9-5.7-2.1-7.3-5c-0.7-0.3-1.4-0.4-2-0.9
		c-1.2-0.9-2.1-0.7-3.1,0.6c-0.7-2.5-1.8-4.2-4.3-4.5c-1.1-0.1-2-1.2-3-1.8c-2-0.2-3.6-1.1-4.8-2.9c-0.7-1-1.7-1.8-2.5-2.7
		c-0.9-1.1-2.1-1.6-3.4-1.3c-2.4,0.5-4.8,1.2-7.2,1.8c-0.2,0-0.2,0.3-0.4,0.4c-1.1,0.8-2.1,1.8-3.3,2.4c-4.6,2-9.2,3.9-13.8,5.8
		c-0.7,0.3-1.4,0.7-2.7,1.4c2.6,0.5,4.4,1.1,6.3,1.3c4.7,0.4,9,2,13.2,3.9c1.5,0.7,1.6,1.7,0.5,2.9c-0.8,0.8-1.7,1.5-2.7,2
		c-3.7,1.7-7.4,3.3-11.2,4.9c-0.8,0.3-1.9,0.2-2.1,1.5c0.1,0.1,0.3,0.3,0.4,0.4c4.2,1,8.4,0.8,12.6,0.4c1.3-0.1,2.5-0.3,3.5,0.8
		c0.9,0.9,2.1,1,3.3,0.3c0.6-0.4,1.3-0.7,2-1.1c0.2-0.3,0.4-0.8,0.7-0.9c2.8-0.6,5.5-1.6,8.4-1.3c1.3,0.1,2.7-0.2,4-0.3
		c0.5-0.3,0.9-0.5,1.4-0.8c0.4-1.1,0.9-2.2,1.5-3.8c0.6,2.2,0.3,3.4-1.1,4.3c-0.4,0.3-0.9,0.6-1.3,1c-0.9,0.4-1.8,0.9-2.7,1.1
		c-3.4,0.6-6.9,1-10.3,1.5c-1.1,1-2.2,2-3.3,2.9c-0.5-0.2-0.8-0.4-1.2-0.5c-2-0.8-2.4-0.6-2.2,1.7c0.1,1.6-0.4,2.8-1.8,3.5
		c-4.1,2.1-8.2,4.2-12.3,6.4c-0.8,0.4-1.9,0.5-2.6,2.1c3.1-0.1,5.9-0.5,8.7-0.2c2.8,0.3,5.8-0.1,8.8,2c-5.7,3.4-11.6,5.4-17,8.3
		c-5.5,2.9-11.1,5.6-16.7,8.4c0,0.2,0.1,0.4,0.1,0.6c1.8-0.1,3.6-0.1,5.3-0.4c3.5-0.5,6.8-2.2,10.4-2.4c3.1-0.1,6.2-0.1,9.6,0.1
		c-1.4,2.4-3.2,3.4-5.2,4.2c-1.5,0.6-3.2,1.2-4.4,2.2c-1.8,1.6-3.8,2.6-5.9,3.7c-3.6,1.9-7.4,3.6-10.7,5.9
		c-6.1,4.2-11.7,9.3-18.2,12.8c-3.3,1.8-6.5,3.9-9.8,5.8c-0.7,0.4-1.5,0.5-2.3,0.7c0,0.8,0,1.5,0,2.3c1.4-0.4,2.8-0.7,4.2-1.1
		c1.8-0.6,3.4-1.4,5.2-1.8c9.5-2,18.6-5.1,27.9-8c1.9-0.6,3.9-1,5.9-1.5c3.5-0.8,7-1.6,10.5-2.5c1.8-0.4,3.5-0.9,5.3-1.4
		c-2.9,3.4-6.1,6.2-10,8.1c-3.3,1.6-6.6,3.4-9.9,5c-1.3,0.7-2.6,1.4-3.6,3.2c2-0.2,3.6,0,5-0.5c3.4-1.3,6.9-1.8,10.5-2.1
		C213.3,241.7,218.2,242,223.4,243.2z M311.6,170.9c-0.1,0-0.4-0.3-0.4-0.5c0-0.2,0.2-0.4,0.5-0.9c0.2,0.5,0.5,0.7,0.4,0.9
		C312.1,170.6,311.8,170.8,311.6,170.9z M309.1,141.4c0.6-1.8,0.9-3.7,1.2-5.6c0.3-2.7,0.5-5.4,0.8-8.2c0.2-0.1,0.4-0.1,0.7-0.2
		c0.3,0.4,0.9,0.8,1,1.3c0.3,2.2,0.7,4.3,0.7,6.5c0.1,4.5,0,9,0.1,13.5c0,0.2,0.2,0.5,0.5,1.1c1.2-3.8,1.1-7.4,1.9-10.8
		c0.8-3.5-0.7-7.3,1.7-11c3.8,0.2,7.9,0.5,12.1,0.7c0.2,2.4,1.1,4.5,0.1,6.6c-1.1,0-1.5-2.1-3-0.8c0.8,2.6,1.6,5.2,2.6,8.3
		c-1.2-0.6-1.9-1-2.8-1.5c0.5,3.9,2.7,7.3,1.1,11.2c-1.1-1.1-2-2.2-3-3.3c-0.2,0.1-0.3,0.2-0.5,0.4c1,3.7,1.9,7.5,2.9,11.3
		c-1.9,1.2-2.8,2.8-2.1,5c0.1,0.1,0.1,0.3,0.2,0.4c-0.2,0-0.3,0-0.5,0c-3.7-1-4.1-0.8-5.6,2.8c-2.6,0.6-6.3-1.1-7.5-3.4
		c-1.5-2.9-2.2-5.8-2.3-9.2c-0.1-3.4-0.3-6.9-0.6-10.3C308.3,144.4,308.6,143,309.1,141.4z M295.3,174.4c-0.1-0.5-0.1-1.1,0.2-1.7
		c0.3,0.6,0.5,1.2,1,2.2C295.8,174.6,295.4,174.5,295.3,174.4z M301.6,127.9c0.1,0.2,0.1,0.3,0.2,0.5c-1.1,0.6-2.3,1.2-3.4,1.8
		c0.1-0.7,0.2-1.4,0.3-2.3C299.7,127.9,300.6,127.9,301.6,127.9z M297.3,140c0.2-1.4,0.4-2.9,0.4-4.3c-0.1-2,1.1-3.2,2.4-4.2
		c1-0.7,2.2-0.7,3.1,0.2c1.3,1.3,2.5,2.7,2.4,4.9c-0.2,2.8-0.2,5.5-1.2,8.2c-0.6,1.6-0.6,3.6-0.2,5.3c1.5,5.9,1.7,11.9,1.9,17.9
		c0.1,3.6-4,6.4-7.2,5c-0.6-0.2-1.2-0.7-1.5-1.2c-1.3-2.4-3-4.6-2.5-7.7c0.2-0.9,0-1.9,0-2.9c-0.1,0-0.2,0-0.2,0
		C295.6,154.1,296.5,147,297.3,140z M289.4,177C289.3,177,289.3,177,289.4,177C289.3,177,289.3,177,289.4,177c0.4-1.6,0.9-3.2,1.4-5
		C291.9,174.4,291.5,175.7,289.4,177z M277.4,145.3c0.4-3.8,0.6-7.6,1.1-11.4c0.2-2,0.7-4.1,1.1-6.2c2,0,3.6,0,5.3,0
		c-0.7,1.8-1.4,3.5-1.9,5.2c-0.3,1.1-0.7,2.2-0.6,3.3c0.1,3.1-0.8,5.8-2.7,8.1c-0.6,0.7-0.8,1.7-1.1,2.5c-0.4,1.1-0.8,2.3-1.1,3.4
		c-0.2,0-0.3-0.1-0.5-0.1C277,148.6,277.2,147,277.4,145.3z M275.8,171.5c-0.4-5.8,1.4-11.1,3-16.5c0.7-2.3,1.2-4.6,1.9-6.8
		c0.3-1,0.9-1.9,1.4-2.7c0.9-1.4,2-2.8,2.7-4.3c0.6-1.3,1.1-2.8,1.2-4.3c0.1-2.4,0.9-4,3.2-4.9c1.9,1.7,2.7,3.9,2,6.5
		c-0.8,3.3-1.3,6.6,0.3,9.8c0.2,0.3,0.2,0.8,0.1,1.1c-1.1,5-0.4,10.1-0.3,15.1c0,2.5-0.4,4.6-1.8,6.7c-0.9,1.3-1.3,2.9-1.7,4.5
		c-0.4,1.4-1.1,2.2-2.6,2.5c-3.4,0.5-6.7,1.3-10,2c-1.2,0.3-2,0.1-2-1.6C276.1,177.3,275.9,174,275.8,171.5z M246.7,158.7
		c0.1,2.2-0.2,3-1.8,4.7C244.5,161.1,244.6,160.9,246.7,158.7z M243.7,166.1c0-0.1,0.1-0.1,0.2-0.2c0.1,0.1,0.2,0.3,0.3,0.4
		c-0.1,0.1-0.2,0.2-0.3,0.3C243.8,166.4,243.7,166.2,243.7,166.1z"/>
	<path class="st0" d="M912.9,384.9C912.9,384.8,912.9,384.8,912.9,384.9C912.9,384.8,912.9,384.8,912.9,384.9L912.9,384.9z"/>
	<path class="st0" d="M1032.3,230.9c-6-5.5-12.6-10.3-19.4-14.7c-5.8-3.8-11.8-7.4-17.2-12c-0.5-0.5-1-1-1.8-1.8
		c8.8,0.7,17.2,1.3,25.5,2c0.1-0.2,0.2-0.5,0.2-0.7c-1.4-0.8-2.7-1.8-4.2-2.5c-2.9-1.5-5.8-2.8-8.8-4.2c-1.5-0.7-2.4-1.8-3-3.5
		c-0.3-0.8-0.9-1.6-1.6-2.1c-0.9-0.6-2.1-0.8-3-1.3c-1.2-0.6-2.6-1.2-3.5-2.2c-2.5-2.8-5.7-3.4-9.1-2.8c-2.1,0.4-4.2,1.2-6.2,2.2
		c-1.7,0.8-3.3,2-4.8,3.2c-2.5,1.9-5.2,3.7-7.2,6c-1.8,2.1-3.9,3.6-6.1,5c0.2-0.5,0.5-1,0.9-1.4c2.1-2.2,4.2-4.5,6.4-6.7
		c1-1,2.2-1.9,3.4-2.8c0.8-0.6,1.8-1.2,2.5-1.7c-0.5-1.7-1.4-1.7-2.5-1.6c-2.3,0.3-4.6,0.8-6.8,0.5c-2-0.3-3.7,0-5.3,1
		c-3.3,2.2-6.5,4.6-10,7.1c0.6,0.8,1,1.9,1.6,2c1.8,0.3,1.8,1.6,2,3c1.4,0.3,2.8,0.6,4.2,1c-1.6,1.6-2.3,1.5-4.6-0.5
		c-0.6-0.6-1.1-1.2-1.8-1.9c-0.5,0-1,0-1.5,0.1c-0.6,0.2-1.2,0.5-1.8,0.7c-0.9,0.3-1.8,0.7-2.6,0.7c-5.3-0.2-10.5,0.1-15.4,2.3
		c-0.5,0.2-1.2,0-1.8,0c0.3-0.6,0.7-0.9,1-1c2.4-0.6,4.8-1.1,6.9-2.7c0.7-0.5,2.1-0.6,2.9-0.2c1.8,0.8,3.6,0.5,5.4,0.5
		c1.6,0,2.9-0.5,3.7-2c-0.4-3.4-0.4-3.4,2.6-5c1.1-0.6,2.1-1.1,3.1-1.8c1-0.7,1.8-1.5,2.8-2.3c-1.4-2.5-3.7-1.8-5.5-2.2
		c-2-0.4-4-0.5-6.1-0.7c1.7-0.9,3.4-1.3,5-1.9c1.2-0.4,2.2-0.4,3.4,0.3c1.7,1,2.3,0.7,3.1-1.2c0.1-0.3,0.2-0.7,0.2-0.9
		c1.5-0.7,2.7-1.1,4,0.1c0.4,0.4,1,0.5,1.5,0.6c1.3,0.2,1.9-0.2,2.1-1.6c0.1-0.4,0-0.9-0.1-1.4c0.9-0.3,1.7-0.5,2.5-0.7
		c0.4,0.3,0.6,0.5,1,0.7c3.3,2.1,4.2,1.7,4.8-2.2c1-0.7,2-0.6,3.1-0.1c1,0.5,2.1,1,3-0.2c0.7-1,1.5-2.1,2-3.3c2-4,4.1-7.9,5.9-12
		c0.9-1.9,2-3.2,3.7-4.4c5.1-3.2,10.1-6.7,15.1-10.1c0.5-0.4,0.9-1,1.6-1.8c-5.5,0.2-10.4,1.5-15.4,0.9c0-0.4,0-0.7,0.1-0.8
		c3.7-2.6,7.4-5.3,11.3-7.7c3-1.9,6-3.6,9-5.5c0.6-0.3,0.9-1,1.6-1.7c-3.1-0.3-5.7,0.6-8.3,1.2c-3,0.7-5.7,0-8.9-0.7
		c1.7-2.6,3.3-5,4.8-7.3c2.3-3.5,4.6-7.1,5.1-11.5c-0.9-0.6-1.7-0.5-2.7,0.1c-3.1,1.9-6.6,2.7-10.2,3c-2.8,0.2-5.7,0.2-8,2.5
		c-0.3,0.3-0.9,0.1-1.4,0.1c0.3-0.3,0.6-0.5,0.8-0.8c1.2-2.2,3-3.2,5.5-3c1.6,0.1,3.3,0.4,4.9,0.1c4.6-1,8.9-3.1,11.2-7.5
		c2.3-4.3,5.2-8.1,7.6-12.3c1.1-1.8,1.9-3.9,2.3-6c0.7-3.5-1.1-6.4-3-9.1c0.1,0,0.1,0,0.2,0c0,0-0.1,0-0.1,0c0.6,0.1,1.4,0,1.6,0.4
		c0.6,0.9,1,2,1.4,3.1c0.6,1.6,1.1,3.3,1.8,5.4c1-1.2,1.6-1.8,2.1-2.6c1.8-2.9,3.3-5.9,4.2-9.3c1.3-5,3.1-9.8,4.5-14.7
		c1.5-5.5,2.9-11,4-16.6c0.5-2.3,0.4-4.7,0.5-7.1c0-0.3-0.4-0.7-0.6-1c-1.2,1.8-2.2,3.3-3.2,4.8c-3.7,5.5-7.2,11.3-11.3,16.6
		c-2.9,3.7-6.7,6.7-10.2,10c-0.2,0.2-0.7,0.3-1,0.4c-1.7,0.8-1.8,2.3-0.2,3.4c1.1,0.7,2.2,1.4,3.2,2.2c1,0.8,2.1,1.6,1.5,3.2
		c0.1,0,0.1,0,0.2,0c0,0-0.1,0-0.1,0c-0.4-0.3-0.9-0.5-1.1-0.9c-1.3-2.2-2.8-3.8-5.4-4.3c-0.4-0.1-0.9-1.3-0.8-1.8
		c0.7-2.5,1.2-5,2.8-7.1c1.3-1.8,2.4-3.8,2.8-6.3c-1.7,0-2.9,0.7-4,1.8c-1.4,1.5-2.8,3.1-4.1,4.6c-4.8,5.7-9.7,11.3-15.4,16
		c-2.4,2-5.2,2.6-8.2,3.4c0.1-0.7,0-1.2,0.1-1.6c0.6-2.5,1.6-4.8,3.1-7c1.9-2.8,3.7-5.7,5.2-8.7c0.8-1.5,1-3.3,1.5-5
		c-0.7,0.7-1.5,1.4-2.1,2.3c-1.9,2.9-4.3,5.2-7.1,7.1c-1.9,1.2-3.6,2.7-5.3,4.1c-5.9,4.8-11.9,9.2-18.4,13.1c-2,1.2-3.9,1.1-6.2-0.3
		c1.9-2.7,3.7-5.1,5.6-7.7c-1.4-0.8-2.5-0.2-3.5,0.4c-4.4,2.2-8.8,4.3-13.2,6.4c-0.7,0.3-1.6,0.5-2.4,0.3c-1.5-0.3-3-0.8-4.8-1.3
		c1.2-1.8,2.3-3.5,3.5-5.2c-0.1-0.2-0.2-0.4-0.4-0.6c-0.8,0.3-1.7,0.4-2.4,0.8c-1.7,1-3.3,2.1-4.9,3.2c-1.7,1.2-3.3,2.3-5.4,2.6
		c-3.1,0.4-3.8,1.8-2.8,5.2c-0.5-1.4-1-2.9-1.4-4.3c-0.3-0.9-0.8-1.4-1.7-1.5c-3.1-0.4-6.2-0.7-9.3-1.2c-2.9-0.5-6-0.7-8.5-2
		c-6.2-3-11.8-7.1-16.4-12.4c-0.5-0.6-1.2-1-2-1.7c-0.4,4.7,3.6,7.4,3.5,12.2c-4.2-3.7-8.1-6.8-11.7-10.4c-3.5-3.6-6.6-7.7-9.8-11.6
		c-0.2,2.8,1.1,5,2.2,7.1c1.1,2.2,1.5,4.4,1.4,6.9c-0.4,0-0.7,0.1-0.9,0c-3.1-1.8-6.4-3.5-9.4-5.5c-4.4-3-8.6-6.2-13-9.2
		c-1.9-1.3-4-2.6-6.4-3c-0.1,0.4-0.2,0.6-0.1,0.7c0.4,0.8,0.8,1.5,1.2,2.3c3.4,6.8,7.3,13.3,8.4,21c0.2,1.2,0.4,2.5,0.6,3.7
		c1.7,8.1,3,16.3,3.8,24.6c0.1,0.7,0,1.5,0,2.1c-0.5,0.2-0.7,0.4-1,0.4c-7.2,0.2-14.5,1.6-21.7,0.4c-1.5-0.3-3.1-0.1-4.7-0.1
		c-0.9,0-1.9,0-2.6-0.4c-3-1.9-5.8-3.9-8.7-5.9c-0.7-0.5-1.4-1-2.1-1.6c-0.1,0.1-0.3,0.2-0.4,0.3c1.1,2.6,2.2,5.3,3.4,8
		c-6.2,0.7-9.1,0-13.8-3.3c-2.4-1.7-4.8-3.6-7.2-5.3c-0.7-0.5-1.4-1.3-2.6-0.7c1.1,2.7,3.7,4.8,2.1,8.4c-1.2-0.2-2.8,0-3.8-0.6
		c-2.4-1.6-4.6-3.5-6.7-5.5c-2.8-2.5-5.4-5.2-8.1-7.7c-0.8-0.7-1.5-1.6-3-1.7c0.2,0.8,0.3,1.4,0.6,1.8c1.9,2.7,2.1,5.8,2.4,9
		c0.1,0.8-0.1,1.7-0.2,2.5c-0.1,1.1-0.1,2.2-0.1,3.3c-2-0.8-2-2.7-1.9-4.8c-0.9-0.4-1.9-0.8-2.9-1.2c-1.5-0.5-3-1-4.4-1.6
		c-0.5-0.2-1-0.5-1.3-0.9c-1.4-1.8-2.7-3.6-4-5.4c-1.4-1.9-2.8-3.8-4.2-5.8c-1.6,2-0.7,4.2-0.6,6.8c-1.2-0.3-2.2-0.4-3-0.8
		c-2.1-1.3-4.1-2.8-6.2-4.2c-3-2-6.2-3.8-9-6.1c-6.6-5.2-12.6-11-17.3-18.2c-0.8,1.6-0.1,3,0.6,4.3c1.5,2.9,3.2,5.8,4.9,8.6
		c3,4.9,6,9.8,9.1,14.6c0.4,0.3,0.7,0.5,1.1,0.8c0,0,0,0,0,0c-0.6-0.1-1.1-0.1-1.7-0.2c-1.3-0.9-2.6-1.8-3.9-2.7
		c-3.1-2.4-6.3-4.7-9.3-7.2c-1.4-1.1-2.7-2.3-3.8-3.7c-3.1-4-6-8.2-9.1-12.2c-1.7-2.2-3.6-4.2-5.4-6.2c0.4,5.9,5.2,9.6,6.6,14.8
		c-1.2,0.8-2.3,1.6-3.4,2.3c-2.6-2.1-5-4.5-7.8-6.3c-2.6-1.7-4.8-3.8-6.9-6.1c-0.9-1-1.9-2.1-2.8-3.1c-0.2,0.1-0.3,0.2-0.5,0.4
		c1.8,3.5,3.4,7.2,5.4,10.5c4.1,6.7,7.1,14,9.5,21.6c1.9,6,3.2,12.2,2.9,18.6c-0.3,6.5-0.7,13-1,19.5c0,0.7,0,1.4,0,2.7
		c2-2.5,3.5-4.5,5.2-6.4c1.7-1.9,2.9-4.2,5.2-6.1c0.2,2.1,0.3,3.6,0.5,5.1c0.2,1.2,0.5,2.4,0.7,3.6c0.5,2.1,1.2,4.2,1.4,6.4
		c0.3,3.9,0.4,7.8,0.4,11.7c0.1,3.7,0,7.4,0,11.4c-4.2,1.6-8.4,3.2-12.7,4.8c4.3,2,9,0.7,13.4,2.7c-0.1,0.8-0.1,1.6-0.2,2.3
		c-4.5,1.6-9.2,1.2-13.8,3c2.1,1.6,3.9,2.2,5.9,2.6c2.4,0.5,4.8,1.3,7.1,2.1c1.3,0.4,1.6,1.4,0.9,3c-5.1,0-10.2,0.6-15.5-0.6
		c0-1.2,0-2.3,0-3.3c0.1-5.5,0.2-11.1,0.2-16.6c0-3.4,0.1-6.6-1-10.1c-1.1-3.7-1.3-8.1-0.6-11.9c1.2-7,1.2-13.9,0.9-20.9
		c-0.1-2.2-0.3-4.4-0.6-6.6c-0.3-2-0.9-4-2.3-5.9c0,7.2-0.3,9.2-1.6,11.7c-0.2-0.4-0.3-0.8-0.4-1.1c-0.7-4.8-2.4-9.2-3.9-13.7
		c-1.5-4.2-2.9-8.4-2.1-13.1c0.3-1.8,0.1-3.6-0.1-5.4c-0.2-2-0.6-4-1.7-5.9c0,2.1-0.3,4-1.6,6.2c-1.4-3.3-2.7-6.2-3.7-9.1
		c-2.6-7.2-6.1-13.9-10-20.3c-2.4-3.9-4.7-8-7.1-11.9c-0.3-0.6-0.7-1.1-1.1-1.6c-0.1,0.1-0.3,0.2-0.4,0.3c0.3,1.8,0.6,3.5,0.9,5.3
		c1.2,7.7,2.5,15.4,3.6,23.2c0.5,3.6,0.8,7.3,1.2,10.9c-0.2,0.1-0.4,0.2-0.6,0.3c-1.3-1.4-2.6-2.9-3.9-4.3c-0.2,1.3,0,2.3,0.4,3.2
		c1.2,3.1,2.5,6.2,3.7,9.3c0.5,1.3,1,2.7,1.1,4.1c0.5,5.5,0.8,11,1.1,16.6c0,0.6-0.1,1.2-0.2,1.9c-2-1.2-3.8-2.3-5.9-3.6
		c0.3,1.2,0.5,1.9,0.7,2.6c1.4,4.9,2.8,9.9,4.4,14.8c0.6,2.1,0.6,4.1,0.3,6.2c-0.3,2-0.6,4-0.9,5.9c-0.5,3-1,5.9-1.5,9.4
		c-2.3-3.5-4.2-6.9-7.8-8.7c0.7,4.1,1.6,7.9,2,11.8c0.4,4,0.2,8,0.6,12c0.2,2.5,0.7,5.1,3,6.7c0.1,0.1,0,0.4,0,0.5
		c-3.5,0.4-4,0.8-5.4,4.4c-0.6,1.5-1.3,2.9-2.1,4.7c-1.9-3.3-3.4-6.3-5.5-8.6c-2.1,0.7-1.6,2.3-1.4,3.7c0.5,4.9,1.2,9.9,1.7,14.8
		c0.1,0.5-0.1,1.1-0.3,2.1c-7.6-12.9-13.3-26.2-18.2-39.9c2-1.3,4.1-2.7,6.3-4.1c-0.8-0.9-1.4-1.5-1.9-2.2
		c-3.8-5.2-7.6-10.5-7.9-17.5c1.9-0.5,3.9-0.9,6.2-1.5c-0.9-1-1.6-1.7-2.2-2.4c-2.3-2.5-4.6-4.9-6.9-7.5c-1.2-1.4-1.9-2.9-1.7-4.9
		c2.3,0,4.3,0,7,0c-0.8-1.1-1.2-1.9-1.8-2.6c-2.8-3.2-5.8-6.1-7.5-10.2c-0.4-1.1-1.4-1.6-2.6-0.9c-1.8-3.5-2.5-3.8-6.6-3
		c-1.3,0.3-2.7,1-4-0.1c-1.5-1.2-3.3-1.7-5.1-2c-1.8-0.3-2.7-1.5-3.3-3.2c0.6,0,1.2,0.1,1.5,0.5c1.7,1.8,4,2.2,6.2,2.9
		c2,0.7,2.4,0.3,3.4-1.7c0.5-0.9,1-1.7,1.5-2.6c0,0,0,0,0,0c0,0,0,0,0-0.1h0c0,0,0,0,0,0c0,0,0,0,0,0c0,0-0.1,0.1-0.1,0.1
		c0.4-0.6,0.8-1.2,1.2-1.8c0.2,1-0.2,1.6-1.1,1.8c-0.1,0.5-0.3,1-0.4,1.6c-0.5,2.4,0.1,3.3,2.5,2.9c1.7-0.3,3.1,0.1,4.1,1.6
		c0.3,0.4,0.8,0.7,1.5,1.3c0.4-0.9,0.9-1.6,1.1-2.4c0.8-4-0.3-7.9-1.1-11.8c-0.1-0.6-0.9-1-1.7-1.8c-1.3,2.1-2.3,3.8-3.5,5.5
		c-0.4,0.5-1,0.9-1.5,1.4c1.4-2.8,2.8-5.6,4.2-8.4c0.5-1,0.8-1.9,0.5-3.4c-0.4-1.9-1.4-3.7-1.7-5.6c-0.5-2.9-1.1-5.9-1.1-8.8
		c-0.1-7-2-13.6-3.4-20.3c-0.1-0.6-0.5-1.1-0.8-1.8c-1.4,5.1-2.6,10-4,14.9c-2.8,9.7-5.7,19.4-8.4,29.1c-0.4,1.3-0.1,2.8,0.1,4.2
		c0.1,0.7,0.5,1.4,0.8,2.3c-3.1-0.2-4.9,1.4-6.1,4c-0.7,1.6-1.7,3.2-2.6,4.7c-2.5,4.2-6.1,7.4-9.6,10.6c-1.2,1.1-1.8,2.2-1.9,4.4
		c1.2-0.6,2.2-1,2.9-1.6c2.1-1.7,4.2-0.9,6.3-0.2c0.4,0.1,0.9,1.1,0.8,1.5c-0.7,2.5-1.1,5-3.4,6.7c-1.8,1.3-3.5,2.8-5.1,4.3
		c-2.6,2.4-4.1,5.4-5,9.4c2.7-1.2,4.9-2.2,7-3.2c0.1,0.2,0.3,0.3,0.4,0.5c-0.5,1.6-1.1,3.2-1.5,4.8c-0.6,2.9-2.3,4.7-4.9,5.5
		c-1,0.3-2.1,0.7-2.3,2.1c1.8,1.8,3.6,3.5,5.3,5.3c-0.4,0.9-0.6,1.7-0.9,2.4c-2.1,5.2-4.2,10.4-6.3,15.6c-0.6,1.6-1.8,3.1-1.9,4.6
		c-0.2,3.3-1.4,6.2-2.7,9.1c-0.7,1.7-1.4,3.3-2.1,5c-1,2.5-2,5.1-3.1,7.9c-1.5-1.4-3-2.4-4-3.9c-2.2-3.3-2.9-6.7-0.4-10.3
		c0.5-0.8,0.8-1.7,1.3-2.5c1.4-2.4,1.2-4.8,0.2-7.7c-1.3,3-3.3,4.6-5.9,5.9c-0.4-2.3-0.9-4.4-1.1-6.4c-0.1-0.8,0.3-1.6,0.7-2.3
		c0.8-1.8,1.9-3.5,2.6-5.3c0.5-1.2,0.9-2.6,0.2-4.6c-0.8,1.2-1.2,2-1.7,2.7c-0.6,0.9-1.2,1.6-2.5,1.4c-0.3-1.7-0.7-3.4-1-5.1
		c-0.3-1.8-1.4-3-2.6-4c-1.1,0.5-2,1-2.9,1.4c-0.4,0.2-0.9,0.2-1.1,0.4c-2,2.2-4.7,2.7-7.4,3.3c-1,0.2-2,0.3-2.9,0.5
		c-3.5,0.7-7,2.1-10.5,0.3c-0.4-0.2-1.1-0.1-1.3,0.1c-1.2,2-2.1,0-2.8-0.3c-1,0.7-1.7,1.3-2.7,2c0,4.8,0,9.7,0,14.5
		c-0.8-0.1-1.8-0.5-2.1-0.3c-0.4,0.4-0.4,1.3-0.5,2c0,0.4,0.2,0.7,0.3,1.1c1.2,5.5,2.4,11,3.5,16.5c0.2,0.8,0.2,1.7,0.2,2.6
		c0,5.6-0.1,11.3-0.2,16.9c0,0.2-0.2,0.5-0.4,1.1c-1.1-1.6-1.9-2.9-3.1-4.6c0.1,4.9,0.8,9.3,3,13.1c1.9,3.1,2.9,6.3,3.7,9.8
		c0.4,1.6,1,3.1,1.4,4.6c0.9,2.9,1.8,5.8,1.8,8.9c-1.8,0.1-2.9-0.8-3.8-2.1c-0.8-1.4-1.6-2.8-2.4-4.2c-0.5-0.8-0.7-1.9-2.2-1.8
		c0.1,0.9,0.2,1.7,0.4,2.5c1,3.2,2.1,6.3,3.3,9.4c2.9,7.4,7.2,13.7,12.4,19.5c0.6,0.7,1.3,0.9,2.3,1c2.1,0.4,3.7-0.7,5.5-1.4
		c1.3-0.5,2.4-0.8,3.7-0.1c1.3,0.7,2.7,1.1,4.1,1.7c0.5,0.2,1,0.6,1.2,1.1c0.6,2,2.9,1.3,3.7,2.8c2.1-0.1,4.3-0.2,6.4-0.2
		c1.5,0,3.2-0.1,4.5,0.4c1.1,0.4,2,0.6,3.1,0.3c1.5-0.5,3-1.3,4.4-1.2c1.3,0.1,2-0.5,3-1.1c0.8-0.5,1.8-1.1,2.7-1.2
		c3-0.3,4.8-2,6.1-4.8c0.5-1,1.1-2,1.9-2.8c1.6-1.6,3.3-3.1,4.9-4.6c0.5-0.5,0.9-1,1.6-1.9c-2.3-0.3-4.2-0.5-6.4-0.7
		c1.2-3,1.8-5.8,3.3-8c1.8-2.7,4-5.2,6.4-7.4c1.4-1.3,2.5-2.6,3.5-4.1c-2.3-1.5-0.9-3.6-1.2-5.4c-0.3-2.5,2.7-2.8,3.3-4.9
		c-1.1-0.2-2-0.3-2.8-0.5c0-3.5,0-6.7,0-9.9c0-1.1,0.7-1.4,1.7-1.4c0.2,3.1,0.5,6.2,0.7,9.3c0.2,0,0.3,0,0.5,0
		c0.2-3.3,0.3-6.6,0.5-10c0.6,0,1.2,0,1.9,0c0.5,7,1.1,14,1.6,20.9c0.1,0,0.2,0,0.3,0c0-6.9,0-13.8,0-20.7c6.2-1.7,15.1,7.9,13.9,14
		c-2.3,0-4.4-1.5-7.3-0.9c2.2,2.6,4.2,4.8,6.1,7.1c1.3,1.6,2.7,3.2,3.9,4.9c0.4,0.6,0.5,1.5,0.7,2.2c-1.9,0.1-3.9-0.4-6.1,0.5
		c1.4,1.5,2.6,2.7,3.7,4.1c2.1,2.7,4,5.5,6.1,8.1c1.5,1.8,2.4,3.7,2.1,6.5c-1.9,0.6-3.8,1.2-6.3,2c1.4,1.1,2.5,2,3.6,2.7
		c1,0.7,1.8,1.5,2.5,2.5c1.8,2.5,0.5,5.9,2.6,8.2c0.9,4.3,1.9,8.6,2.7,12.9c0.2,1,0.3,2.1,0.1,3.1c-0.8,4.2-1.4,8.5-2.6,12.6
		c-1.9,7.1-4,14.1-8.7,19.9c-0.3,0.3-0.2,0.9-0.3,1.3l0.1,0.1c0.9-0.5,1.8-0.8,2.6-1.4c2.6-1.9,5.2-3.9,7.7-5.9
		c3.5-2.7,6.9-5.4,10.4-8c0.2-0.2,0.4-0.3,0.7-0.5c0.6,0.4,1.2,0.8,1.7,1.2c0.7-0.5,1.4-0.9,2-1.4c1.4-1.3,3.4-2.2,2.7-5
		c-0.2-1,0.3-2.7,1.5-3.7c1.6-1.4,2.9-3.2,4.4-4.8c0.5-0.5,1-1.4,1.6-1.4c0.7-0.1,1.4,0.6,2.2,1c1.8-2.2,3.7-4.5,5.6-6.8
		c0.1-0.1,0.3-0.3,0.3-0.5c-0.1-2,1.4-3.2,2.2-4.7c1-1.9,2-3.8,3-5.8c1.4-2.7,2.8-5.3,5.1-7.3c1.7-1.4,3.1-3.2,4.5-5
		c1.9-2.4,3.4-5,5.3-7.3c5.5-6.6,9-14.4,12.8-22c0.6-1.2,0.8-2.6,1.1-4c-0.2-0.1-0.5-0.2-0.7-0.4c-1.2,1.7-2.5,3.4-3.7,5.2
		c-1.2,1.7-2.6,3-4.7,3c-0.1,0.1-0.2,0.1-0.3,0.2c0-0.2,0.1-0.3,0.1-0.5c0.4-1.5,0.9-2.9,1.2-4.4c0.2-0.8,0.4-1.9,0-2.5
		c-1.6-2.8-3-5.6-6-7.2c-1.3-0.7-2.6-2.1-3.1-3.5c-1.4-3.6-2.3-7.4-3.4-11.1c-0.5-1.9-0.7-3.9-1.3-5.9c-0.6-2.1-1.4-4.1-1.9-6.2
		c-0.8-2.9-1.8-5.8-0.8-9c0.3-0.9-0.3-2.2-0.6-3.3c-0.2-0.7-0.6-1.4-0.8-2.1c0.2-0.1,0.3-0.2,0.5-0.3c0.6,0.9,1.6,1.7,1.9,2.7
		c0.6,2,0.9,4.2,1.3,6.3c0.5,2.6,0.8,5.2,1.5,7.8c0.4,1.5,1.1,2.9,2,5c-0.5,3.4,0.8,7.5,1,11.7c0.2,3.4,2.5,5,4.7,6.2
		c1.6,0.9,2.8,1.9,3.7,3.4c3.3-0.9,5.7-3.2,5.9-5.8c0.1-2.9,0.1-5.7-0.2-8.6c-0.1-1.2,0.2-2,0.9-2.8c0.6-0.6,1.2-1.1,2.1-1.8
		c-1.8-1.6-3.4-3.1-4.9-4.4c-1,0.4-1.6,0.7-2.3,0.9c-0.1-0.2-0.2-0.3-0.3-0.5c0.5-0.7,1-1.5,1.7-2.5c3.3,1.1,6.7,2.5,10.1,3.4
		c3.5,1,7.3,0.6,10.8,2.1c-0.8,2.2-2.7,1.5-4,2.1c-1.5,0.7-3.1,1.1-4.7,1.7c-1.4,0.6-2.8,1.2-4.3,1.9c1.4,3,1.4,3,4.1,3.1
		c2.6,0.1,5.3,0.3,7.9,0.4c0,0.6,0.1,1,0.1,1.4c-0.5,3.3-0.9,6.6-1.7,9.9c-0.8,3-0.5,5.6,1.5,8c0.4,0.5,0.7,1.1,1,1.7l-0.1,0
		c0,0,0,0,0,0h0c0,0,0,0,0,0.1c0,0,0,0,0.1,0c0.1,0,0.1,0.1,0.2,0.1c0.6,2.2,1.3,4.2,3.1,5.6c0,0,0,0-0.1,0l0.1,0.1
		c-3-0.9-3.7-2-3.4-5.8c-1.4,0.6-1.5-1.5-2.8-1.5c-0.7,0.7-1.7,1.4-2.2,2.4c-0.7,1.3-0.9,2.9-1.3,4.3c-0.3,1-0.1,1.7,0.8,2.2
		c2.7,1.5,5.5,2.5,8.6,2.4c2.3-0.1,2.9-1.3,1.9-3.5c0,0,0,0,0.1,0l-0.1-0.1c1.6-0.1,0.7,2.2,2.1,2.2c5.7-1.2,11.2-2.8,15.9-6.7
		c-1.7,3.7-5.1,4.7-8.4,5.7c-2.8,0.9-5.8,1.1-8.4,2.3c-2.4,1-4.5,1.5-6.9,0.6c-1.5-0.5-3-1-4.4-1.6c-1.6-0.6-2.1-0.5-2.8,1.1
		c-0.3,0.7-0.4,1.5-0.6,2.2c-0.4,1.4-0.9,2.8-1.4,4.6c-0.6-1.2-1-1.9-1.4-2.6c-0.2,0-0.4,0-0.6,0c1.5,5.6-0.7,10.1-3.4,14.5
		c-0.2-3.9-0.8-7.6-2.1-11.2c-0.6,2.6-1.1,5.1-1.4,7.6c-0.4,3.5-0.7,7-1.2,10.5c-0.2,1.4-0.7,2.8-1.5,4c-4.6,7.1-8.8,14.3-14.4,20.7
		c-2.4,2.7-4.5,5.5-5.9,8.9c-1,2.3-2.3,4.6-4.5,6.1c-0.4,0.3-0.8,1.1-0.7,1.3c0.6,1-0.1,1.6-0.5,2.3c-1,1.8-2,3.7-3,5.5
		c-0.2,0.2-0.4,0.3-0.5,0.5c0.3,0,0.6-0.1,0.8-0.1c3.3-2.4,6.6-4.8,10-7.1c5.4-3.6,10.8-7.2,16.3-10.8c1.9-1.3,4.1-1.7,6.7-1.8
		c-4,7.9-7.6,15.6-12.6,22.5c-0.7,1-1.2,2.1-1.9,3.1c0,0,0,0,0,0c0,0,0,0,0,0c-0.2,0.1-0.3,0.2-0.5,0.2c0.2-0.1,0.4-0.1,0.5-0.2
		c0.7-0.6,1.5-1.1,2.1-1.7c3.6-3.7,7.2-7.4,10.8-11c3.5-3.5,6.9-7.2,10.6-10.5c3.5-3.2,7.4-6,11.1-9c1.3-1,2.7-1.9,4-2.8
		c0.1,0.8-0.2,1.3-0.4,1.8c-3.1,7.7-6.7,15.1-10.6,22.3c-0.3,0.6-0.3,1.4-0.4,2c2.9-3,5.5-6.1,8.6-8.8c5.3-4.6,10.8-8.9,16.4-13.2
		c1.4-1.1,3-1.9,4.6-2.4c6.7-2.2,13.3-4.3,20-6.3c0.8-0.2,1.6-0.4,2.4-0.5c5.2-0.5,10.4-0.9,15.7-1.3c1-0.1,2,0,2.8,0
		c0.3,1.4,0.5,2.3,0.7,3.2c3.1,0.3,5.5-0.9,7.8-2.4c0.8-0.5,1.9-1.2,2.7-1.1c2.5,0.3,5-1.5,7.4,0.3c0.3,0.3,1.2-0.3,1.8-0.4
		c1.2-0.1,2.4,0.1,2.9,1.5c0.2,0.4,0.4,0.8,0.6,1.1c0.6,0,1.1,0,1.5,0c1.8,0.2,3.4,0.3,4.3-2c0.4-1.1,2.2-1,3.3,0.1
		c0.4,0.4,0.8,1,0.9,1.2c2.6-0.1,4.8-0.6,6.9-0.1c5,1.1,10,2.3,14.4,5.4c0.6,0.4,1.6,0.9,2.2,0.7c2.2-0.6,3.7,0.3,5.2,1.7
		c1.1,1.1,2.5,1.4,3.8,0.5c1.2-0.7,2.2-0.6,3.3,0.1c3.3,1.8,6.7,3.7,10,5.5c1.3,0.7,2.6,1.3,3.9,2c0.1-0.1,0.2-0.2,0.3-0.3
		c-1-0.9-2.1-1.8-3.1-2.8c-0.7-0.6-1.5-1.1-2.1-1.8c-3.6-4.2-7.1-8.5-10.6-12.8c-0.7-0.8-1.4-1.5-2.1-2.3c-2-2.4-3.9-4.9-5.9-7.4
		c-0.2-0.2-0.2-0.5-0.2-0.8c-0.5-1.9-1.6-3.2-3.1-4.2c-0.7-0.5-1.5-1.2-1.9-2c-1.8-4.1-4.6-7.4-7.7-10.6c-3.5-3.7-6.2-8.3-9.3-12.4
		c-2.2-2.8-4.5-5.5-6.8-8.3c-0.9-1.2-1.9-2.3-2.8-3.5l0,0c0.1,0.5,0,1.1,0.2,1.6c1.3,4.6,2.7,9.1,4.1,13.7c0.1,0.2-0.2,0.5-0.2,0.8
		c-2.7-0.3-5.1,1.1-7.8,0.4c-1.4-0.4-2.9-0.4-4.1-1.4c-1-0.8-2-1.6-3-2.5c-2.8-2.4-5.5-4.8-8.3-7.1c-0.7-0.6-1.4-1.5-2.9-0.9
		c2.9,3.2,4.7,6.7,5.4,10.8c-1.6,1.2-2.9,0.9-4.4-0.1c-2.7-1.9-5.4-3.7-8.2-5.3c-1.9-1.2-4.1-1.6-6.3-2c2.7,2.2,5.3,4.4,6.4,7.8
		c-2.1,0.6-4,1.2-6.2,1.9c-0.4-0.2-1.1-0.6-1.9-0.9c-1.2-0.5-2.5-0.9-3.7-0.1c-2.5,1.7-5.3,1.3-8,1c-1.6-0.2-2.2-0.7-2-2.4
		c0.2-1.7,0.5-3.4,1.1-5c1.1-2.9,2.3-5.8,3.6-8.7c2.8-5.9,7.2-10.6,12-14.8c1.1-1,2.2-1.5,3.8-1c0.7,0.3,1.7,0.2,2.5,0
		c4.3-1.2,8.6-0.9,12.9-0.3c3.3,0.5,6.6,1.3,9.3,3.9c4.3,4.1,8.9,7.8,13.5,11.8c0-0.4,0.1-0.7,0.1-1.1c0.1-4.7,0.1-9.4,0.2-14.1
		c0.3-8.8,0.5-17.6,0.9-26.4c0.4-7.7,0.9-15.5,1.4-23.2c0.1-0.8,0.4-1.7,0.6-2.5c0.2-0.8,0.3-1.6,0.5-2.4c-1.7-0.7-2.7,0.3-3.6,1.1
		c-5,4.6-10.1,9.2-15,13.9c-1.5,1.5-3,2.2-5.1,2c-2.2-0.3-4.3-0.4-6.6,0c-6.1,1-12.2,0-18.6-0.6c0.8-2.8,1.6-5.4,2.3-8.1
		c0.4-1.7,0.6-3.5,0.8-5.2c-4.1,4.7-8,9.7-14.4,12.5c0.5-1.1,0.8-1.7,1.1-2.3c1.5-2.5,3-5,4.5-7.5c1.6-2.9,3.2-5.8,4.7-8.7
		c-0.1-0.1-0.2-0.2-0.3-0.3c-3,1.9-5.9,3.8-8.9,5.7c-0.2,0.1-0.5,0.3-0.7,0.4c0.1-0.3,0.2-0.6,0.3-0.9c2-4.5,4-9,6.1-13.7
		c-3.2,0.5-5.6,2.5-8.5,4.2c-0.1-2.5,0.1-4.6-0.4-6.6c-0.7-3.2,0.4-5.6,2.1-7.9c0.4-0.5,0.8-1,1.1-1.6c1.2-2.2,2.9-2.9,5.3-2.3
		c3.2,0.8,6.5,1.4,9.7,2.2c0.8,0.2,1.5,0.5,2.4,0.8c0,1.9,0.2,3.8-0.1,5.5c-0.3,1.8-1,3.5-1.7,5.7c5-1.5,7.3-6.5,11.8-8
		c3.4,4.5,3.4,9.2,1.1,14.2c3.4-2.7,6.8-5.2,9.3-8.3c-1-2.3-1.7-4.3-2.7-6.3c-1.6-3.2-3.5-6.1-7.2-7.4c-2.8-1-5.1-3-5.3-6.6
		c-0.1-1.6-0.2-3.2-0.1-4.8c0.1-2.4-0.1-4.7-2.2-6.4c-1.7-1.4-2.8-3.2-3.5-5.3c1.5,1.4,2.9,3,4.5,4.3c1.8,1.5,2.5,3.5,2.5,5.7
		c0,1.2,0,2.5,0,3.7c0.1,4,1.2,7.3,5.3,8.7c1.3,0.5,2.7,1.4,3.5,2.6c2.7,3.9,5,8,7.7,12.2c-1.1,2.7-2.3,5.6-3.4,8.5
		c-1.1,2.9-2.3,5.9-1.7,9.8c1.4-1.8,2.3-3.2,3.4-4.4c3.6-3.6,7.3-7,10.9-10.6c4.6-4.7,9.5-9.1,13.1-14.7c0.8-1.2,2-2.2,2.9-3.3
		c0.9-1,1.8-2.1,2.7-3.2c0.5-0.6,0.8-1.5,1.4-1.7c2.8-0.8,3.9-3.9,6.6-4.9c2.1-0.7,2.8-3.2,3.6-5.2c0.5-1.1,1-1.9,2.4-2
		c0.8,0,1.7-0.6,2.4-1.2c1.2-0.9,2.3-2,3.8-3.3c0.3,2.2,0.6,4.1,0.7,6c0.1,1.7,0.3,3.1,2.3,3.8c-1.3,1-2.3,1.6-2.2,3.3
		c0.4,5.3,0.5,10.7,0.7,16.1c0.1,2.5,0,4.9,0,7.5c-6.1,1.6-12,3.2-17.9,4.6c-5.9,1.4-11.9,2.3-17.8,3.9c5.9,1.1,11.8,1.8,17.7,2.7
		c5.9,0.9,11.7,1.8,18.2,2.8c-1.1,0.6-1.5,0.9-2,1c-7.1,2.5-14.3,4.1-21.8,4.8c-1,0.1-2,0.5-3,0.8c0,0.2,0.1,0.4,0.1,0.6
		c8.8,0.7,17.6,1.5,26.2,3.1c0.2,1.8-1,1.9-1.8,2.1c-3.5,0.8-7,1.6-10.5,2.3c-1,0.2-1.9,0.5-2.9,0.8c0,0.2,0.1,0.5,0.1,0.7
		c0.8,0.1,1.6,0.3,2.4,0.3c1.7,0.1,3.5,0,5.2,0.1c1.9,0.1,3.8,0.3,5.8,0.5c1,0.1,2.2,0.4,2,1.8c-0.1,0.5-1.1,1.1-1.8,1.3
		c-4.8,1.1-9.7,2.2-14.6,3.2c-0.6,0.1-1.3,0.4-1.9,0.6c0,0.2,0,0.5,0.1,0.7c3.2,0.9,6.5-0.1,9.7,0.6c3.3,0.7,6.4,1.9,9.8,2.9
		c-0.2,1.6-0.3,2.9-0.5,4c-2.6,1.4-5.3,1.2-8,2.9c3,0.6,5.5,1.1,8,1.6c0.2,0.7,0.4,1.2,0.4,1.8c0.3,4,0.7,8,0.9,12
		c0.2,2.6-1.4,4.9-3.9,5.5c-3.5,0.8-7.1-0.1-9.1-4.1c-0.4-0.8-0.8-1.7-1.2-2.5c0.6,5.9,2.5,11.2,4.8,16.4c2.7,6.2,4.6,12.7,5.8,19.4
		c1.1,6.3,1.9,12.6,4.2,18.6c1.9,4.9,3.8,9.7,6.2,14.4c3.4,6.4,6.8,12.7,11.3,18.3c5.8,7.1,11.2,14.5,18.4,20.2
		c0.3,0.2,0.4,0.6,0.7,1c-0.9,0.8-1.7,1.6-2.6,2.2c-1.3,0.7-2.9,2-3.9,1.7c-2.5-0.8-3.5,1.1-5,2.1c-0.7,0.5-1.3,1-2,1.6
		c-1.3,1.1-2.8,1.7-4.5,1.9c-4.2,0.5-8.4,1.3-12.5,1.9c-4.8,0.7-9.7,1.3-14.5,1.9c-1.2,0.1-2.6,0-3.7-0.5c-5-2.4-9.5-5.4-13.3-9.5
		c-0.8-0.8-1.7-1.5-2.6-2.2c-0.2,0.1-0.4,0.3-0.6,0.4c0.3,1.1,0.6,2.1,0.9,3.2c0.5,2.2,1.2,4.4,1.6,6.7c0.3,1.7-0.8,2.6-2.5,2.4
		c-0.5-0.1-1.1-0.2-1.6-0.4c-4.5-2.1-9.1-4.1-13.6-6.3c-2-1-3.7-2.7-5.5-4.1c-0.8-0.6-1.6-1.1-2.6-0.8c-0.1,2.3,1,3.7,2.5,5
		c2,1.7,3,4,4.6,6.7c-3-0.5-5.4-1-7.8-1.3c-1.6-0.2-2.6-1-3.4-2.4c-1-1.8-2.2-3.8-4.4-4.4c-0.7,0.5-1.4,1.3-2,1.4
		c-2,0.2-2.2,2.2-2.6,3.2c-0.5,1.6-0.2,3.6,0,5.3c0.5,4.4,2.5,8.3,4.6,12.1c0.9,1.8,2.2,3.3,2.3,5.5c0,0.4,0.4,0.8,0.7,1.2
		c1.8,2.5,3.6,5,5.4,7.6c1.1,1.6,2.1,3.3,3.9,4.3c0.3,0.2,0.4,0.9,0.5,1.4c0.1,0.1,0.1,0.3,0.2,0.4c-0.2,0-0.3-0.1-0.5-0.1
		c-1.1-0.8-2.2-1.7-3.4-2.4c-2.1-1.2-3-3.4-4.2-5.3c-2.2-3.4-4.9-6.7-5.5-11.1c-0.1-0.6-0.4-1.4-0.8-1.8c-1.9-1.6-2.3-4-3.4-6.1
		c-1.8-3.6-1.9-7.6-1.7-11.9c-2.8-0.6-3.8-3-4.8-5.5c-0.1-0.4-0.2-0.7-0.4-1.1c-1.2-2.3-2.3-4.5-4.8-5.8c-0.9-0.4-1.5-1.4-2.2-2.1
		c-0.2-0.2-0.5-0.2-0.7-0.3c-0.4,0.6-0.7,1.2-1.1,1.9c-4.9-4.8-8.3-10.8-13.6-15.8c-0.5,7.3-0.3,13.9,0.1,21.2
		c-1.7-1.6-2.7-2.8-4-3.7c-1.3-0.8-2.8-1.2-4.2-1.8c-0.2,0.2-0.4,0.4-0.6,0.6c4,6.4,7.1,13.1,9.2,20.5c2.1,7.5,2.4,15.1,2.6,22.9
		c-3.7-1.2-6.8-3.5-10.2-7.5c0,0.7-0.3,1.5,0,2.1c0.7,1.6,1.4,3.1,2.4,4.5c3.9,5.6,6.9,11.7,9,18.3c0.2,0.6,0.2,1.2,0.5,2.2
		c-5.2-3.6-9.5-7.8-14.6-10.6c2.4,4.8,4.9,9.5,7.5,14.1c2.7,4.6,5.6,9.1,7.8,14.3c-2.3,0.3-4.2-0.2-5.9-1.2
		c-3.3-1.9-6.5-3.9-9.8-5.8c-0.8-0.5-1.5-1.3-2.5-0.6c1.6,1.9,3.2,3.7,4.7,5.6c2.9,3.7,5.9,7.4,8.6,11.2c1.3,1.8,2.1,3.9,3.4,6.2
		c-5.9,0-11.2-1.3-17-0.8c4.6,3.3,8.8,6.3,13.5,9.7c-1.6,0.4-2.6,0.5-3.6,0.8c-3.2,0.8-6.5,1.5-9.7,2.3c-3.6,0.9-7.1,1.9-10.6,3
		c-2.3,0.7-4.8,0.9-7.4,2.4c9.9,3.6,19.5,6.6,29,10.5c-0.8,0.6-1.7,1-2.5,1.2c-5.1,1.2-10.2,2.4-15.3,3.6c-1.2,0.3-2.4,0.4-3.4,1.5
		c8.4,2.5,17,3.3,25.6,6.9c-4.7,1.9-8.7,3.5-12.7,5.1c0,0.2,0,0.4,0.1,0.6c5.1,1.3,10.5,1.2,15.7,3.2c-0.4,1.2-0.6,2.2-1.1,3.1
		c-1.2,2.5-2.6,4.9-3.8,7.3c-2.2,4.5-4.5,9-6.6,13.5c-0.2,0.4-0.1,1-0.2,1.8c4.1-0.9,6.8-4.1,10.5-5.9c0.2,2.5,0.4,4.6,0.6,6.8
		c0.2,1.8-0.1,3.4-1.1,4.9c-1.8,2.8-3.6,5.6-5.5,8.2c-2.2,3-4.7,5.9-6.9,8.9c-1,1.3-1.9,2.8-2.8,4.2c0.1,0.2,0.2,0.3,0.3,0.5
		c4.4-1,8.8-2,13.4-3c0.1,1.4,0.1,2.7,0.3,3.9c0.3,3,0,5.9-1.3,8.6c-2.4,4.7-4.8,9.5-7.1,14.3c-1.1,2.4-1.9,4.9-2.8,7.3
		c3.7-2.3,7-4.7,10.6-5.9c1.4,0.6,2.4,1.1,3.8,1.8c-3.5,2.2-2.7,5.7-2.4,9c0.3,3.4,0.7,6.9,1.1,10.3c0.2,1.2-0.1,2.2-0.7,3.2
		c-1.6,3-3.3,6-4.4,9.2c-1.4,3.9-2.4,8-3.3,12.1c-0.6,2.6-0.2,4.4,0.8,6c1.2-4.2,2.1-6.1,4.3-8.9c1.8,0,3.6,0,5.4,0
		c1.1,0,2,0.1,2.4,1.4c0.5,1.5,1.6,1.7,2.9,1.4c2.3-0.5,4.5-0.4,6.8,0c2.8,0.5,5.4,0,8-1.4c3.1-1.8,6.3-2.5,9.7-0.5
		c1.5,0.9,3.1,0.6,4.2-0.8c0.8-1,1.5-0.9,2.4-0.5c0.7,0.4,1.4,0.8,1.7,1c1.3-0.1,2.1-0.2,3-0.3c1.4-0.1,3.7-2.8,3.7-4.3
		c0-1.4,0-2.9,0-4.2c2.2-1.9,4.2-1.6,6.1,0.3c0.4,0.4,0.9,0.7,1.4,0.9c2.1,1,3.4,2.8,4.2,5c0.5,1.5,1.2,2.9,1.9,4.5
		c1.7-2.9,2.7-8.4,2.2-11.2c-1.1-6.1-3-12-6-17.5c-1.6-2.9-2.9-6-4.6-8.8c-2.8-5-3.1-10.2-1.7-15.7c1,1.1,2,2.3,3,3.3
		c2.2,2.1,3.8,4.7,4.8,7.6c0.8,2.2,1.8,4.4,2.7,6.6c0.2,0.4,0.6,0.7,0.9,1.1c0.2-0.1,0.3-0.1,0.5-0.2c-0.1-1.8,0-3.6-0.5-5.3
		c-0.7-2.4-0.7-4.9-0.8-7.4c0-0.8,0-1.5-0.2-2.3c-1.2-5.6-2.7-11.1-5-16.4c-1.2-2.7-2.2-5.5-3-8.3c-1-3.3-0.2-6.6,0.5-9.8
		c0-0.1,0.1-0.1,0.5-0.4c4.1,2.3,7.9,4.8,10.3,9.3c0.9,1.7,1.5,3.8,3.6,4.5l0,0c0.1,0.1,0.2,0.1,0.3,0.2c0-0.2-0.1-0.3-0.1-0.5
		c-1.3-6.5-3.3-12.7-6.9-18.3c-0.6-1-1.1-1.8-0.6-3.1c0.3-0.8-0.1-2-0.3-3c-0.3-1.1-0.8-2.1-1.4-3c-1.7-2.6-3.2-4.3-6.2-1.7
		c-0.9,0.7-1.8,1.4-2.7,2c-1.3,1-2.1,2.3-2.2,4.1c-0.1,0.8-0.4,1.6-0.8,2.4c-0.5,1.1-1.3,2.1-1.6,3.3c-0.6,2.3-1.9,3.8-3.8,5
		c-2.4,1.7-3.2,4.4-3.9,7.1c-0.5,2-1.1,4.4-2.5,5.6c-1.6,1.5-2.2,3.3-2.8,5.2c-0.4,1.2-1.1,1.5-2.1,2.1c0-0.5-0.1-0.8,0-1
		c0.8-2.1,1.6-4.2,2.5-6.3c0.4-1,0.6-2.3,1.4-2.7c1.3-0.8,1.5-2.1,1.9-3.3c0.4-1.3,0.9-2.5,1.2-3.8c0.4-1.8,1.4-3,3-3.9
		c2.3-1.4,4-3.3,4.8-6c0.4-1.4,0.8-2.7,1.3-4.1c0.1-0.4,0.3-0.9,0.5-1.3c2-2.5,4-4.9,6.1-7.3c0.3-0.3,0.8-0.6,1.2-0.6
		c1.9,0,3.9,0.2,5.3,1.9c1.1,1.3,2,2.7,3.1,4c0.4,0.5,0.7,1.3,1.2,1.4c1.3,0.2,1.5,1.3,2,2.2c0.5,0.9,0.9,1.8,1.5,2.9
		c1.6-5.3,0.1-9.8-2.3-14c-0.5-0.8-1.1-1.6-1.4-2.5c-1.7-5.8-4.6-11-8.1-15.9c-0.4-0.6-1-1.3-1.1-1.9c-0.1-2.3-0.1-4.5-0.1-7.3
		c9.4,0,17.5-4.4,25.8-7.6c2.9,3.8,10.2,4.3,12.2-1.8c0.4-1.3,1.2-1.7,2.3-2.1c4.2-1.9,8.4-3.8,12.6-5.8c1.3-0.6,2.2-1.5,2.4-3.2
		c0.1-0.9,0.9-1.9,1.5-2.6c1.3-1.5,2.8-3,4.2-4.4c0.4-0.5,0.8-1.2,1.3-1.4c2.3-0.8,3-2.9,3.8-5c0.5-1.1,1.1-2.2,1.7-3.2
		c0.3-0.6,0.7-1.1,0.9-1.7c0.9-3.3,1.7-6.6,2.5-10.1c-0.6-0.6-1.2-1.3-1.8-2c-1.6-1.7-3.8-2.1-5.8-1.1c-0.7,0.3-1.3,0.7-2,1.1
		c-1.8,1.1-3.4,0.8-5.3,0c-1.2-0.5-2.4-1.8-3.9-1.1c-2.1,1-4.1,0.6-5.8-0.6c-2.3,1.6-2.3,1.6-4.4-1.4c-1.2,0.7-2.5,1.7-4,1
		c-1.7-0.8-2.9,0.2-4.2,1.2c-1.2,0.9-2.3,2.2-4.1,2.1c-0.3-2.1-0.6-4-0.7-6c-0.1-1.1,0-2.3,0.4-3.4c1.9-5.1,1.5-10.2-0.1-15.2
		c-1-3.1-0.4-5.7,0.5-8.6c1.5,0,2.9,0,4,0c1.4,3.2,2.6,6.3,4,9.3c0.9,1.9,1.4,3.9,1.3,6.1c-0.2,3.2-0.1,6.5-0.2,9.8
		c0,2.4,0.7,2.9,2.9,2.9c1.3,0,2.9-0.3,3.7,0.4c1.2,1.1,2.1,0,3,0.3c1.1,0.3,2.1,1.1,3.2,1.5c0.4,0.1,0.9-0.1,1.3-0.3
		c1-0.5,1.8-0.5,2.8,0c1.3,0.6,2.9,0.7,4.3,0.8c0.9,0,2-0.2,2.5-0.8c0.8-0.8,1.6-0.7,2.5-0.8c2.1-0.4,3.9-0.1,5.6,1.8
		c0.4-0.9,0.7-1.4,0.9-2c0.3-0.8,0.4-1.6,0.7-2.4c2-4.9,4.2-9.8,6-14.8c0.7-2.1,1.8-3.6,3.4-4.8c1.3-0.9,1.9-2.2,2-3.8
		c0.3-4.6,1.1-9.1,2.9-13.3c1.4-3.3,2.7-6.7,3.9-10.1c0.3-0.9,0.4-1.8,0.5-2.7c0.1-0.9-0.1-1.9,0.2-2.7c2-5.9,3.7-11.8,4.2-18.1
		c0.5-5.7,1.5-11.5,1.2-17.1c-0.3-6.9-1.7-13.8-2.8-20.7c-0.2-1.1-0.4-2.4-1.9-3.3c-0.5,2.5-1,4.6-1.3,6.7
		c-0.9,6.3-3.4,11.8-6.7,17.1c-2.3,3.7-5.7,6.1-9.4,8.8c0-1.9,0.2-3.5,0-5c-0.9-6.3-2-12.6-2.9-19c-0.5-3.8-1-7.7,0.4-11.6
		c0.7-2,0.9-4.3,0.9-6.5c-0.1-4.8,1.3-9,3.5-13.1c1.9-3.6,4.2-7,6-10.6c1.9-3.7,3.4-7.6,4.9-11.5c0.7-1.7,0.5-1.8-1.4-2.7
		c-0.8,1.4-1.7,2.7-2.3,4.2c-0.8,2-2.6,2.7-4.3,3.2c-1.6,0.5-3.6-2-3.1-3.7c1.3-4.3,3.2-8.4,5.8-12c2.3-3.1,4.6-6.2,6.9-9.3
		c1.1-1.5,1.5-3.2,1.3-5c-1.6,1.1-2.9,2.5-4.6,3.1c-1.9,0.7-4.1,1-6.2,0.7c-2.7-0.3-3.7-2.5-2.4-4.9c1.1-2.1,2.3-4.2,3.7-6
		c2-2.4,4.6-3.7,7.1-3.8c1.5,1.3,2.4,2.3,3.5,3c2.3,1.6,4,3.8,3.5,6.6c-0.6,3.2-0.7,6,1.7,8.3c0,0.4,0,0.6-0.1,0.7
		c-1.6,3.1-1.9,6.1-0.2,9.3c0.3,0.6,0.3,1.5,0.1,2.2c-0.9,3.4-1.1,6.8-0.3,10.2c0.2,0.7,0.1,1.5,0.1,2.3c0.2,5.3,0.3,10.6,0.5,15.9
		c1.3-1.3,1.7-2.8,1.7-4.5c0-2.4-0.1-4.8-0.1-7.2c0-2.3,0.3-4.6-0.1-6.9c-0.6-3.2-0.6-6.3,0.4-9.3c0.5-1.4,0.4-2.8-0.3-4.1
		c-1.2-2.1-1.1-4.1-0.1-6.3c0.4-0.9,0.6-2,0.6-3c0-2.1-0.3-4.2-0.2-6.3c0.1-1.5,0.5-3,1.2-4.3c0.8-1.4,1-2.6-0.3-3.8
		c0.8-1,1.6-1.8,0.6-3.1c-0.2-0.3-0.1-1.2,0.2-1.5c1.4-1.3,1.7-3,2.1-4.7c0.2-0.7,0.7-1.3,1.1-2c0.2,2.7-1,4.7-2.1,6.7
		c0.1,1.1-0.2,2.2-0.2,3.2c0,0.9,0.1,2,0.6,2.6c1,1,1.3,2.3,1.5,3.6c0.4,2.2,0.3,4.4,1.9,6.3c0.5,0.6,0.6,1.8,0.6,2.7
		c-0.1,3.4-0.8,6.8,0.8,10.1c0.2,0.4,0.1,0.9,0.1,1.4c-0.2,3.1,0,6.4-0.7,9.4c-0.7,3.2-0.6,6.3-0.4,9.4c0.1,2.4,0.3,4.8,0.5,7.2
		c1.2-1.9,1.1-4,1.2-6.1c0.3-5.2,0.6-10.5,1-15.7c0-0.3,0.1-0.6,0.1-0.8c0.7-2.8,0.6-5.5-0.4-8.2c-0.3-0.8-0.5-2-0.1-2.7
		c1.4-2.7,1.3-5.5,0.6-8.3c-0.1-0.2,0.1-0.5,0.2-1c3.1,0.4,6.1,0.8,9.3,1.2c0.8,4.5,1.5,8.8,2.2,13.2c0.1,0.6-0.1,1.3-0.3,1.9
		c-1.8,5.2-3.5,10.5-5.4,15.6c-3,8.4-5.8,16.9-10.6,24.5c-0.6,1-1.2,2.1-1.7,3.2c-0.9,1.8-1.8,3.7-2.6,5.5c3.3-1.9,6.3-4.3,9.4-6.3
		c3.2-2,6.6-3.7,10.3-5.8c0.5,0.7,1,1.4,1.5,2.1c4.3,0,8.5,0.1,12.8,0c3.7-0.1,6.7,1.6,9.6,3.6c-0.5,0.1-0.9,0.1-1.3,0
		c-2.6-0.9-5.2-1.9-7.8-2.7c-0.9-0.3-1.8-0.4-2.7-0.3c-1.7,0.1-3.3,0.5-4.9,0.6c-2.5,0.1-4.4,1.3-6.1,3.3c-0.9,1.1-1.5,2-1.5,3.4
		c-0.2,7.5-0.7,14.9-0.5,22.4c0.1,5-0.4,9.5-4,13.1c-0.2,0.2-0.3,0.5-0.5,0.7c-0.7,1.1-1,2.2-0.6,3.5c2.8,1.3,3.8,3.2,3.9,6.2
		c0.1,2.8-0.8,5-2.5,7c-1.5,1.7-2.9,3.5-4.3,5.2c-0.7,0.9-1.5,1.7-2.1,2.6c-1.4,2.1-1.3,2.5,0.4,4.1c1.1,1,2.2,2,3.3,3
		c0.8,0.7,1.1,1.5,0.7,2.5c-0.7,1.6-1.1,3.5-2.2,4.8c-4.7,6.1-9.6,12.1-14.3,18.2c-1.1,1.4-1.8,3.2-2.7,4.8c1.2-0.4,2.4-0.9,3.7-1.3
		c1.3-0.4,2.7-0.5,4-1c2.1-0.9,4.2-1.1,6.5-1.1c0.1,0.8,0.2,1.5,0.3,2.1c1.7,1.4,3.4,1.4,5.3,1.2c1.5-0.2,3.1-0.4,4.7-0.4
		c3.3,0.1,6.6,0.2,9.8,0.7c2.6,0.4,5.1,1.3,6.7,3.9l-0.1,0c0,0,0,0,0,0c0,0,0,0,0,0c-0.5-0.1-1.1-0.2-1.6-0.4
		c-2.3-0.8-4.6-2.2-7-2.3c-2.1,0-4.3-0.1-6.5-0.1c-1.5,0-3.1,0.4-4.6,0.2c-2-0.2-3.9,0-5.5,1.2c-1.2,0.8-2,2.4-3.2,3
		c-2.4,1-3.8,3.2-5.9,4.7c-4.1,2.9-7.7,6.5-11.3,10c-1.2,1.2-2.2,2.5-2.6,4.6c3.2-1.6,6.2-1.7,9.6-1c-2.3,5.2-4.4,10.2-6.5,14.9
		c-1.3,0.4-2.3,0.6-3.2,1c-6.5,3-12.1,7.2-15.9,13.7c-0.3,0.6-0.3,1.3-0.4,2l0,0c2.9-2.1,6.3-2.8,9.7-3.9c0.7-0.2,1.5-0.3,2.2-0.5
		c-0.4,1.1-1,1.9-1.6,2.5c-3,2.9-6,5.9-9.1,8.7c-3.8,3.4-7.8,6.7-11.8,9.9c-1,0.8-2.4,1.4-3.7,1.6c-4.3,0.5-8.2,1.9-12.1,3.6
		c-1.9,0.9-2.1,1-3,2.8c2.5-0.2,5-1.7,7.9-0.3c-4.2,3-7.8,6.2-12.9,6.7c-2.7,0.3-5.3,1.1-7.7,2.7c2.9,0.4,5.8,0.9,8.6,0.6
		c7.1-0.7,13.8-2.9,20.4-5.8c3.5-1.6,7.1-3,10.7-4.5c0.2,0,0.4,0,0.5-0.1c-0.1,0.1-0.2,0.2-0.2,0.4c-0.7,2.6-2.4,4.2-4.4,5.6
		c-1.3,0.9-2.7,1.7-3.7,3.2c0.4,0,0.6,0.1,0.7,0c7-2.6,12.8-7.1,17.5-13c1.1-1.4,2.3-2.4,3.7-3.3c2.9-1.9,5.7-3.8,8.5-5.7l0,0.2
		c0,0-0.1-0.1-0.1-0.1c0.8,1.2,0.2,2.3-0.3,3.2c-1.3,2.2-2.7,4.3-4.1,6.4c-0.7,1-1.7,1.8-2,3.5c0.9-0.4,1.4-0.5,1.8-0.8
		c5.8-4.2,11.2-8.7,13.7-16c0.8-2.5,2.1-4.7,4.5-6.2c2-1.3,3.8-3,5.6-4.7c0.5-0.5,1.1-1.1,1.3-1.7c0.5-1.8,1.9-2.6,3.2-3.7
		c1.9,5.1,0.3,10.3,1.2,15.3c0.8-0.9,1.3-1.9,1.8-2.9c0.7-1.7,1.2-3.6,2.1-5.3c2.5-4.7,4.3-9.7,4.3-15c0-4.8,2-8.3,4.4-11.9
		c0.3-0.5,0.8-0.9,1.2-1.4c1.6,1.7,2.3,3.5,2.1,5.6c-0.2,2.2-0.4,4.4-0.7,6.5c0,0,0,0,0,0c-0.1,0.2-0.2,0.4-0.3,0.6
		c0.2-0.1,0.4-0.3,0.6-0.4c4.3-5.1,7.5-10.7,8.1-17.6c0.1-1.1,0.4-2.3,0.3-3.4c-0.3-3.4,0.5-7-1.5-10.2c0,0,0.1,0.1,0.1,0.1
		c0,0-0.1-0.1-0.1-0.1c2.2,0.4,3.5-0.7,4.2-2.7c7.5,5.2,8.8,5.7,11.5,4.9c-0.4-0.8-1-1.6-1.3-2.4c-1.6-4.9-3.2-9.7-4.7-14.6
		c-0.2-0.8-0.1-1.9,0.1-2.7c0.8-3,1.7-6,2.6-9c0.1-0.3,0.3-0.6,0.7-1.4c2.1,2.7,4.1,5,5.8,7.5c2.1,3,3.9,6.2,5.9,9.3
		c0.7,1.1,1.6,2,2.4,3c0.2-0.1,0.4-0.3,0.6-0.4c-1.1-3.3-2-6.7-3.2-10c-2.5-6.6-4.9-13.2-6.4-20.1c-0.7-3.3-1.3-6.7,0.1-10.3
		c0.9,0.7,1.7,1.1,2.4,1.7c2.9,2.3,5.8,4.7,8.8,7c0.7,0.6,1.5,1.4,2.4,1c-1.5-4.2-2.9-8.2-4.3-12.2c-1.6-4.8-2.9-9.5-2.5-14.9
		c0.3-3.6,0-7.4-1-11c0.3,0.2,0.7,0.2,1.4,0.1c0.4-0.1,1,0.5,1.4,0.8c5.2,5.1,10.5,10.2,15.7,15.3c0.7,0.7,1.3,1.7,2.5,1.9
		c0-0.4,0.1-0.6,0-0.8c-0.3-0.7-0.6-1.4-0.9-2.1c-3.2-6.3-5.9-12.7-7.9-19.5c-2.4-8-3.3-16.3-4.6-24.4c-0.3-1.7,0.2-3.5,0.4-5.8
		c0.9,0.7,1.3,1.1,1.7,1.4c3,2.3,6,4.8,9.1,6.9c2.1,1.4,4.2,2.8,5.8,4.8c0.6,0.7,1.2,1.5,2.4,1.4c-1.5-2.8-3.4-5.3-4.9-7.9
		c-1.5-2.6-2.9-5.3-4.1-8.1c-1.3-2.9-2.4-5.8-3.5-8.7c-1-2.9-2.6-5.6-2.9-9.1c2.4,0.8,4.4,1.4,6.4,2.1c2,0.7,3.8,1.9,6.5,1.9
		c-0.6-0.8-1-1.2-1.2-1.6c-3.5-5.1-7.6-9.9-9.9-15.8c-0.6-1.4-0.7-3-1.2-5.1c4.6,0.2,8.7,0.5,12.9,0.6c4.1,0.1,8.2,1.1,12.9,0.4
		c-8.8-5.1-17.7-8.9-24.8-15.6c0.7-0.1,1.3-0.1,1.9,0.1c7.4,1.9,14.8,3.9,22.2,5.8c5.7,1.4,11.4,2.8,17.2,4c2.4,0.5,5,0.6,7.5,0.9
		c0.1-0.2,0.1-0.4,0.2-0.6C1038.9,236,1035.5,233.7,1032.3,230.9z M981.9,123.2c1-1.5,2-3,3-4.6
		C985.3,121.2,983.7,122.3,981.9,123.2z M980.9,124.7c-0.2,2.5-2.8,5.1-7,6.8C976.2,129.3,978.5,127,980.9,124.7z M964.1,134.9
		c1.6-0.3,3.2-0.7,4.8-1.2c1.3-0.4,2.5-1,3.8-1.4c-4.3,3.5-9.4,3.3-14.4,3.3C960.2,135.4,962.2,135.3,964.1,134.9z M943.7,128.2
		c0.1-0.9,0.4-1.8,0.7-2.8c3.8-0.9,6.2,1.6,5.6,5.3c-0.2,1.5-0.4,3-0.7,4.5c-0.3,1.5-0.4,2.9,0.8,4c1.4,1.1,2.6-0.1,3.8-0.7
		c0.6-0.3,1.2-0.7,1.8-1.1c0.1,0.2,0.2,0.4,0.3,0.5c-0.8,0.5-1.5,1.2-2.4,1.5c-0.8,0.4-1.8,0.5-2.6,0.7c-1.9,0.5-2.6,1.3-2.7,3.3
		c-0.2,2.9-0.4,5.7-0.6,8.6c0,0.4-0.2,0.7-0.4,1.5c-0.6-0.5-1.3-0.8-1.4-1.3c-0.7-2.4-1.5-4.7-1.8-7.2
		C943.6,139.5,942.8,133.9,943.7,128.2z M596.9,226.5c0-0.1,0.2-0.1,0.4-0.1c-0.1,0.9-0.3,1.6-0.4,2.4c-0.2,0-0.4-0.1-0.6-0.1
		C596.5,227.9,596.7,227.2,596.9,226.5z M593.9,238.8c0.1-2.3,1.8-3.2,3.3-4.8c0.2,1.8,0.4,3.2,0.6,4.8
		C596.4,238.8,595.2,238.8,593.9,238.8z M606.3,186.2c0.2,0,0.4,0,0.6,0c0.3,0.8,0.6,1.5,1,2.5c-0.9,0.1-1.4,0.2-2.5,0.3
		C605.8,187.9,606.1,187,606.3,186.2z M609.8,196.9c-2.3,0.2-4.5,0.3-6.7,0.5c0.4-1.6,0.9-3.2,1.3-4.8
		C608.7,192.2,609,192.3,609.8,196.9z M603.1,197.4l0.1,0.1L603.1,197.4C603.1,197.4,603.1,197.4,603.1,197.4z M600.9,207.3
		C600.9,207.3,600.9,207.3,600.9,207.3c0.1,0,0.2,0,0.2,0C601,207.4,601,207.4,600.9,207.3z M610.3,207.6c-2.8-1-5.5-1.4-8.4-0.2
		c-0.3,0.1-0.7,0-1-0.1c0.1-0.6,0.3-1.3,0.5-1.9c0.9-3.8,1-3.9,4.7-4.3c1.1-0.1,2.2-0.1,3.3,0c1.6,0.1,2.7,0.9,3.2,2.6
		c0.4,1.5,1,2.9,1.8,4.9C612.5,208.2,611.4,208,610.3,207.6z M665.6,174.5c0.1,0,0.2,0,0.3,0.1c-0.1,0-0.1,0.1-0.2,0.1
		C665.6,174.6,665.6,174.5,665.6,174.5z M666.4,175.8c-0.1-0.4-0.2-0.7-0.3-1.1c0.3,0.2,0.6,0.5,0.8,0.8
		C666.7,175.5,666.6,175.6,666.4,175.8z M668.6,180.3c-0.8-0.9-1.1-2.2-1.5-3.5c2.1,2.2,4.4,4.3,5.6,7.1
		C671.3,182.7,669.8,181.7,668.6,180.3z M687.3,207.1c1.2-0.1,2-0.2,3.2-0.4C689.5,208.5,688.5,207.5,687.3,207.1z M715.4,195.9
		c-5.4,0.7-10.9,1.4-16.7,2.2c0.2-3.4,0.3-6.6,0.5-9.9c5.4,0.6,10,3.2,14.8,5.3C714.8,193.9,716,194.1,715.4,195.9z M738.6,241
		c0.7-0.7,1.4-1.4,2.1-2.1c0.7-0.8,1.3-1.7,2-2.6C742.1,238.7,740.9,240.3,738.6,241z M770.9,223.8c1-1,2-2,3.8-1.2
		c-6.8,6.4-12.4,13.8-17,21.9c-0.2-0.1-0.5-0.1-0.7-0.2c0.4-1,0.6-2.1,1.2-3C761.8,235,765.8,228.9,770.9,223.8z M765.1,222.8
		c-2.8,4.2-5.4,8.1-8.2,12.3c-0.7-1.1-1.3-1.9-2-3.1c-2.8-0.6-5.4,0.9-8,2c-0.1,0-0.3,0-0.4,0c0.1,0,0.3,0,0.4,0
		c0.1-1.1,0.8-1.3,1.7-1.5c2.2-0.5,4.4-1.2,6.6-1.7c1.6-0.4,2-1.4,2-2.9c0-1.4,0-2.8,0-4.4C759.7,223.3,762.1,223.1,765.1,222.8z
		 M758.8,145.4c-0.2,0-0.4,0-0.6,0c-0.2-1.3-0.4-2.6-0.6-4.2c1.2,0.4,2,0.6,3.3,1C760.1,143.4,759.4,144.4,758.8,145.4z M775,115.4
		c-1.2-1.5-2.3-3-3.5-4.5c1.1-0.1,2.1,0.3,2.7,1.3c0.8,1.2,1.7,2.4,2.6,3.5C775.9,116.8,775.4,115.9,775,115.4z M778.5,117.4
		c0.2,0.3,0.4,0.5,0.6,0.8c-0.3-0.2-0.6-0.3-0.8-0.5C778.3,117.7,778.4,117.6,778.5,117.4z M851.6,232.2c-0.7-0.6-1.5-1.2-2.4-1.9
		c1.9-0.5,3.4-1,5-1.4C854.4,231,852.9,231.3,851.6,232.2z M788.2,537.2c-0.7,0.5-1.3,0.9-2,1.4c-3.5,3.7-8.2,5.4-12.3,8
		c-2.3,1.5-4.6,3.1-7.4,3.5c0.6-1.9,0.6-1.9,2.2-2.5c1.8-0.7,3.9-1.1,5.1-3c0.4-0.6,1.2-1,1.9-1.1c1.9-0.3,3.3-1.4,4.8-2.5
		c1.6-1.2,3.5-2,5.2-3c0.6-0.5,1.3-1,1.9-1.4c1-1.3,2-2.7,3.2-3.8c0.7-0.6,1.9-0.7,3-0.9C792.3,534.3,790.8,536.4,788.2,537.2z
		 M841.8,390.8l0.2,0.1l-0.2,0.1L841.8,390.8z M836.7,377.7c1.7,4.2,3.3,8.2,4.9,12.2c-4.2-3.1-5.8-7.9-8.8-12.4
		C834.6,377.6,835.7,377.7,836.7,377.7z M816.3,417.4c-0.7-0.6-1.1-1.6-1.5-2.6c-0.2-0.4,0-0.9,0.1-1.4c0.1-0.7,0.2-1.5,0.4-2.6
		c1.2,2.2,2.2,3.9,3.6,6.4C817.6,417.3,816.6,417.7,816.3,417.4z M841.7,400.7c-1,4.3-1.6,8.6-0.8,13.3c-3.2,1-5.9,1.2-8.9-0.4
		c-0.5,1.2-1,2.2-1.5,3.4c-0.4-0.2-0.9-0.6-1.4-0.9c-1.5-1.2-3.1-2.1-5-1.9c-3,0.3-4.7-1.6-5.9-3.8c-1.8-3.3-3.4-6.8-2.3-10.9
		c0.5-1.8,0.4-3.8,0.5-5.7c0-0.8-0.1-1.7-0.4-2.5c-1.1-2.9-2.3-5.8-3.5-8.6c-0.3-0.7-1-1.3-1.6-1.8c-1.3-1.2-2.4-2.6-2.6-4.6
		c0.9-0.1,1.7-0.2,2.5-0.3c0.1,0.3,0.1,0.6,0.1,0.9c0.3,1.8,1,2.3,2.2,1.2c0.8-0.8,1.5-1.4,2.6-0.9c0.2,0.1,0.5,0,0.8-0.1
		c2.2-1.1,2.2-1.1,4.2-0.6c0.1,2.5-0.4,4.7-2.2,6.6c-1.6,1.9-1.5,2.1,0.2,4.3c2.7-3.3,5.4-6.6,8.5-10.3c0.5,0.1,1.7,0.2,2.9,0.3
		c0.4,1,0.8,1.8,1.2,2.7c2.3,5.1,5.1,9.7,8.7,13.9C841.9,395.9,842.4,398,841.7,400.7z M862,392.4c-1.2-5-1-10.4-5.3-14.8
		c2.4-0.6,4-1,6.3-1.6C861.2,381.7,863.1,387.1,862,392.4z M874.7,142.4c-0.3-1.4-0.5-3.1-2.4-3.5c-2.5,1.6-2.9,4.9-4.7,6.9
		c-4.2,0.4-5.4-0.5-6.6-4.6c-1.2-4-2.6-7.8-5.4-11c2.1,0.8,3.7,2,4.4,4.4c0.9,3,2.1,5.9,3.5,8.7c1.1,2.3,3.1,2.2,4.5,0.1
		c0.4-0.6,0.6-1.2,0.9-1.8c1-2.5,1-2.5,3.5-4.1c1.8,0.5,2.6,1.8,3.1,3.6c0.8,2.9,2,5.7,2.8,8.6C876.4,147.6,875.2,145.2,874.7,142.4
		z M878.9,151c4.1,2.5,8,5.3,11.4,8.8C886.3,157.1,882.5,154.2,878.9,151z M919.2,92.1c0.2,1,0.5,2,0.6,3.1c0.2,1.6,0.4,3.1,0.1,4.7
		C918.9,97.4,919,94.8,919.2,92.1z M898.6,206.3c-1.1,1.3-2,2.5-3.3,4c0-1.9,0-3.4,0-5.1C896.4,205.6,897.4,205.9,898.6,206.3z
		 M891.6,161.6c2.4-2.4,2.1-5.5,1.7-8.7c-1.3-10.1-1.6-20.2-1.4-30.3c0-0.4,0.1-0.7,0.2-1.1c2.9-0.5,4.6,0.4,5.2,3.2
		c0.5,2,0.8,4.2,0.8,6.2c-0.1,8.1-0.3,16.2-0.4,24.4c-0.1,2.9,0,5.9,0,9.3c-0.3,0.4-0.9,1-1.6,1.9c-1-0.4-2.3-0.5-3-1.3
		C892.1,164.4,892,162.9,891.6,161.6z M895.2,218c-0.8-4.3-0.8-4.5,1.7-7.1c0.8-0.8,1.6-1.6,2.4-2.4c1.8-1.8,1.8-1.8,4.3-0.2
		C900.3,210.9,896.7,213.1,895.2,218z M910.5,122c-1.7,1.1-2.2,2.7-2,4.7c0.2,2.3,0.5,4.6,0.5,6.8c0.1,7.3,0,14.7,0,22
		c0,3-0.9,5.6-2.6,8c-0.4,0.5-0.9,1-1.4,1.3c-3,1.4-4.3,0.6-5-2.9c-0.2-1.2-0.4-2.5-0.3-3.7c0.1-5.6,0.2-11.3,0.3-16.9
		c0.1-3,0-5.9,0.1-8.9c0.1-2.2,0.1-4.4,0.5-6.5c0.5-2.8,2.3-4.1,4.9-3.6c2.3,0.5,3.8-0.8,5.6-1.7c1.6-1.8,3.2-3.6,4.7-5.5
		c1.4-1.6,2.3-3.2,2.5-5.5c0.2-1.6,0.9-3.1,1.6-4.6c0,0.1,0,0.2,0,0.3c0.2,7-3.3,11.8-8.5,15.7C911.2,121.4,910.9,121.8,910.5,122z
		 M918.8,160.9c-1.5,2-4.3,1.5-5.2-0.9c-0.7-1.7-1.3-3.7-1.2-5.5c0.3-8,0.5-16,2.2-23.9c0.5-2.2,1.4-4.3,2-6.4
		c2.1-0.2,2.6,0.8,2.9,2c1.4,4.1,2.1,8.2,1.7,12.6c-0.3,4.7-0.1,9.6,0.2,14.3C921.7,156.2,920.5,158.7,918.8,160.9z M927.6,159.4
		c-2,0.6-3.9-0.6-4.1-2.7c-0.2-2.2-0.2-4.4-0.2-6.6c0-2.3,0.1-4.6,0-6.9c-0.1-2.6-0.2-5.1,0.6-7.6c0.2-0.7,0.2-1.5,0.2-2.3
		c0.1-2.5,0.1-5.1,0.2-7.9c5.3,0,10,0,14.7,0c0.2,0.5,0.4,0.8,0.4,1.1c0.5,5.7,1.1,11.4,1.5,17.1c0.2,3.2-0.1,6.5-0.3,9.7
		c0,1.3-0.7,2-1.9,2.4C935,156.9,931.3,158.2,927.6,159.4z M954.3,389.4C954.3,389.4,954.3,389.4,954.3,389.4L954.3,389.4
		L954.3,389.4z M955.9,391.2C955.9,391.2,955.9,391.2,955.9,391.2L955.9,391.2C956,391.2,956,391.2,955.9,391.2
		c-0.3-0.3-0.7-0.7-1.1-1.1c0,0,0,0,0.1,0.1l0,0c0,0,0,0-0.1-0.1C955.8,389.8,956.2,390.2,955.9,391.2
		C956,391.2,956,391.2,955.9,391.2C955.9,391.2,955.9,391.2,955.9,391.2z M964.9,284.3c0,0-0.2-0.1-0.2-0.1c0-0.1,0.1-0.2,0.1-0.3
		c0.1,0.1,0.3,0.1,0.4,0.2C965.1,284.2,965,284.3,964.9,284.3z M969.1,300.2c-1.9,0.1-3.2-1.3-3.1-3.3c0.1-1.8,0.2-3.6,0.6-5.4
		c0.4-1.8,0.2-3.4-0.5-5c-0.2-0.4-0.3-0.8-0.5-1.7c0.7,0.3,1.3,0.5,1.4,0.7c0.3,1.3,0.8,2.6,0.5,3.8c-0.6,3.1,0,6.2,0.1,9.5
		c0.8,0.3,1.3,0.5,2.1,0.7C969.4,299.9,969.2,300.2,969.1,300.2z M975.9,306.2c-2.6-0.5-3.9-2.6-5.4-4.6c2.3,0.1,3.8,1.4,6.8,5.5
		C976.8,306.7,976.4,306.3,975.9,306.2z M978.3,308.1c0.7,0.6,1.5,1.2,2.2,1.8c-0.1,0.8-0.3,1.5-0.3,2.2c0,0.2,0,0.4,0,0.6
		C979.6,311.1,979,309.6,978.3,308.1z"/>
	<path class="st0" d="M753.4,360.4C753.4,360.4,753.4,360.4,753.4,360.4C753.4,360.4,753.4,360.4,753.4,360.4c0,0-0.1,0.1-0.1,0.1
		L753.4,360.4C753.4,360.4,753.4,360.4,753.4,360.4C753.4,360.4,753.4,360.4,753.4,360.4L753.4,360.4z"/>
	<path class="st0" d="M716.4,68.6C716.4,68.6,716.4,68.6,716.4,68.6C716.4,68.6,716.4,68.6,716.4,68.6c0,0-0.1,0.1-0.1,0.1
		L716.4,68.6C716.4,68.6,716.4,68.6,716.4,68.6C716.4,68.6,716.4,68.6,716.4,68.6L716.4,68.6z"/>
	<path class="st0" d="M747.8,397.7C747.8,397.7,747.8,397.7,747.8,397.7C747.8,397.7,747.8,397.7,747.8,397.7L747.8,397.7z"/>
	<path class="st0" d="M989.1,61.5c0,0,0,0.1,0,0.1C989.1,61.6,989.2,61.6,989.1,61.5L989.1,61.5z"/>
	<path class="st0" d="M420.5,523.4c1.6-1.3,3.4-2.5,5.1-3.7c1.7-1.2,3.2-2.6,2.4-5.1c-1-3.5,0.8-5.8,2.9-8.2
		c3.1,1.6,6.1,3.2,9.2,4.8c0.2-0.2,0.4-0.4,0.5-0.6c-2.4-4.7-5.2-9.1-8.5-13.4c-4,2.6-7.8,5-11.6,7.5c-2.1,1.5-4,3.2-6,4.8
		c-0.2,0.1-0.4,0.3-0.6,0.4c0.1-0.3,0.1-0.5,0.2-0.8c0.5-0.8,0.8-1.7,1.4-2.3c2.8-2.9,6.2-5,9.6-7c1.2-0.7,2.4-1.4,3.3-2.3
		c1.2-1.2,0.4-2.9,0.3-4.4c-0.1-3.3-0.3-6.5-0.4-10.1c2,0.8,3.6,1.2,5,2c2.1,1.1,4.3,1.4,6.6,1.5l0,0c0,0.1,0,0.1,0.1,0.2
		c0.1-0.1,0.1-0.1,0.2-0.2c-0.1,0-0.1,0-0.2,0c0,0,0,0,0,0l0,0c-0.1-0.4-0.1-0.7-0.2-1.1c-1-3.2-3.3-5.5-5.4-7.9
		c-0.8-1-1.6-2.1-1.9-3.3c-0.7-2.7-2.1-4.8-4.1-6.7c-0.6-0.6-1.2-1.2-1.6-1.9c-2.4-4.8-5.5-8.7-10.6-10.4c-0.2-0.1-0.2-0.4-0.5-0.9
		c1.5,0.6,2.7,1.2,4,1.5c1.5,0.3,2.6,1.3,3.7,2.3c1.8,1.6,3.3,0.9,3.8-1.7c0.3-1.6,0.5-3.2,0.9-4.8c1.1-4.5,2.2-9.1,3.2-13.6
		c0.5-2.2,0.7-4.6-0.6-7.1c-1.4,2.7-1.3,6-4.6,7.3c-0.1-4.5,0-8.7,0.9-12.9c0.8-3.8-0.2-6.7-3.2-9c-1.1-0.8-2.1-1.8-2.7-2.4
		c0.7,0.5,1.7,0.7,2.5,1.2c1.6,1,1.9,1,3.5-0.5c0.5-0.5,1.2-0.8,2-1.3c-2-2-1.7-4.4-1.8-6.8c-0.1-2.2,0-4.4-0.2-6.6
		c-0.1-0.9-0.7-1.8-1.2-3.1c-1.5,1.6-2.6,2.8-3.8,3.9c-0.2-0.2-0.4-0.3-0.6-0.5c0.5-0.7,0.8-1.5,1.4-2.1c0.6-0.7,1.6-1.1,2.1-1.8
		c0.8-1.1,1.8-2.4,1.9-3.6c0.1-2.6-0.5-5.3-0.5-7.9c0-4.5,0.2-8.9,0.3-13.2c4.3-1.4,9.3-0.9,13.9,1.3c0,5.1-2.2,10-2.8,15.6
		c2.9-3.6,5.7-6.8,7.1-11c0.3-1,0.7-2.1,2.1-1.7c0,2.2,0.3,4.4,0,6.6c-1.6,10.3-2.6,20.6-5.7,30.6c-1.9,6.3-3.9,12.5-5.9,18.8
		l0.2,0.2c0.4-0.3,0.8-0.5,1.1-0.9c4.3-5,7.6-10.8,10.8-16.6c2.5-4.6,5.1-9.1,8.1-13.3c3.9-5.5,7.3-11.2,9.9-17.5
		c3-7.3,6.2-14.5,9.3-21.7c1.9-4.4,4.1-8.8,5.9-13.3c1.1-2.7,1.8-5.6,2.4-8.5c0.8-3.8,1.2-7.7,2-11.6c0.2-1.3,0.8-2.5,1.5-3.6
		c1.1-1.9,2.4-3.6,3.6-5.4c0.4-0.6,0.7-1.2,1-1.8c-3.8,1.4-7.4,3.1-10.4,5.8c-0.8,0.7-1.6,1.7-2.5,2.2c-4.3,2-8.5,4-12.9,5.8
		c-2,0.8-4.2,1.5-6.4,1.8c-2.2,0.2-4.3,0.6-6.2,1.7c-0.1,0-0.2,0-0.3,0.1c-2.2,0.8-4.3-0.2-6.8-0.4c-0.1-2-0.6-4-0.2-5.9
		c0.4-2.2,0.3-4.4,0-6.5c-0.2-1.5-1.1-3.2,1-4.1c0.2-0.1,0.2-0.7,0.2-1.1c0.1-2.1,1.3-3.2,3-4c1.2-0.6,2.3-1.3,3.4-1.8
		c0.6-0.3,1.4-0.4,2.1-0.4c2.3,0.1,4.5,0.3,7.1,0.4c1.5,1.6,1.9,1.7,4.2,0.5c2.1-1.1,4.1-2.4,6.3-3.4c1.1-0.5,2.4,0,3.5-1
		c1.1-1,2.4-1.7,3.7-2.5c0.5-0.3,1-0.4,1.5-0.6c1.1-0.6,2.2-1.1,3.2-1.7c4.7-3.1,8-7.5,11.2-12.1c2.5-3.5,4.3-7.6,7.5-10.6
		c1.9-1.8,2.9-4.2,3.5-6.7c0.4-1.4,0.8-2.7,2.3-3.4c1.2-0.6,1.7-1.5,1.1-3c-0.3-0.7-0.2-1.7,0-2.5c0.8-3.9,1.7-7.8,2.6-11.7
		c0.7-3,0.9-6,0.3-9.1c-0.3-1.8-0.8-3.6-0.8-5.4c0-2.5,0.4-4.9,0.7-7.5c-0.6-0.5-1.2-1.3-1.9-1.5c-0.8-0.3-1.7-0.1-2.6-0.2
		c-0.6-1-1.1-2.1-1.8-3.1c-0.5-0.7-1.1-1.4-1.9-1.6c-1.7-0.5-3.6-0.8-5.4-1.2c-1.2-0.3-2.3-0.6-3.4-0.9c-3.9-0.9-6.2-4.2-9.4-6.3
		c-0.6-0.4-1.8-1-1.1-2.2c-0.1-0.1-0.2-0.1-0.3-0.2c0.1,0.1,0.2,0.1,0.3,0.2c3.2,2.5,6.3,5.3,9.7,7.4c2.6,1.7,4.6,1.6,6.4-1.3
		c0.8-1.2,1.7-1.5,3.1-1.1c-0.6,1.7-4.3,1.1-2.9,4.1c1.1,0.3,2.2,0.4,3.2,0.8c0.9,0.4,2,0.9,2.4,1.7c0.9,1.7,2,2.4,3.8,2.6
		c2.2,0.2,3.9-1.3,3.7-3.6c-0.2-2-0.3-4-0.6-6c-0.2-1.3,0.1-2.9-1.2-3.9c-1.6,0.4-3.2,0.8-4.7,1.2c-0.4,0.2-0.9,0.3-1.3,0.5
		c-0.1-0.1-0.1-0.2-0.2-0.3c0.4-0.2,0.7-0.4,1.1-0.6c1.3-0.9,2.7-1.6,4-2.6c1.7-1.3,2.7-3,2-5.4c-0.4-1.5-0.4-3.2-0.5-4.8
		c-0.2-5.3-0.4-10.7-0.6-16c0-1.2,0-2.5,0.1-3.7c0.1-2.1,0.2-4.2,0.2-6.3c0-1.4-0.1-2.8,0-4.3c0.3-7,0.6-14-0.3-20.9
		c-0.5-4.2-1.1-8.3-1.7-12.5c-0.2-1.5-0.2-2.7,1.2-3.8c1.1-0.9,2-2.2,3.4-3.7c-1.5-0.3-2.4-0.5-3.3-0.7c-1.7-0.3-3-1-2.7-3.4
		c2.5-1.2,5.4-2.3,7.6-4.8c-4.2-1.5-8.6-1.9-13-3.9c1.1-1.2,1.8-2.2,2.7-2.9c1.6-1.1,3.3-2,5-3c1-0.6,1.9-1.3,3.2-2.2
		c-6.3-2-12.5-2.1-18.1-4.4c4.4-2.4,9.2-3.1,13.8-4.9c-1-0.4-2.1-0.6-3.1-0.8c-1.5-0.3-3.1-0.5-4.6-1c-3.5-1.1-6.9-2.6-10.5-3.4
		c-4.2-0.9-6.2-3.7-7.2-7.6c-0.2-0.5-0.2-1.1-0.4-1.7c-0.7-2.3-1.1-4.9-2.4-7c-1.6-2.7-2.5-5.7-3.4-8.7c-0.4-1.5-0.9-2.9-1.4-4.3
		c-0.2-0.5-0.6-0.9-1.2-1.7c-0.3,7.2-0.6,13.8-0.9,20.5c-1.3-1.2-2.2-2.3-2.9-3.6c-0.6-1.2-0.2-3-1.7-4.2c-0.1,0.6-0.2,1-0.2,1.4
		c0.5,3.7-0.3,7.2-0.9,10.8c-0.3,1.8-1,3.1-2.8,3.7c-3.3,1.1-6.3,2.8-9,5.4c-1.4,1.4-3.5,2.2-5.5,2.5c-3.3,0.5-6.3,1.4-9.3,2.9
		c-3.5,1.7-6,3.8-7.3,7.6c-0.3,1-0.6,2-0.9,2.9c-0.4,1.3-0.7,2.8-1.4,4c-1.3,2.4-2.8,4.7-4.3,7c-2,3.3-1.8,6.3,0.5,9.4
		c0.3,0.4,0.6,0.9,0.7,1.5c0.4,2.2,0.9,4.5,1,6.8c0.2,3.3,0,6.7,0,10c0,0.7-0.1,1.4-0.1,2c-1.3-3-2.5-5.9-2.2-9.1
		c0.1-0.9-0.1-1.9-0.1-2.8c0-0.9-0.1-1.9,0.2-2.7c0.7-1.8,0.4-3.3-0.5-4.9c-0.7-1.2-1.4-2.5-1.8-3.8c-0.8-2.6-0.6-5,1.2-7.2
		c0.8-1,1.5-2.2,2.2-3.3c2.2-3.4,3.6-7,4.7-10.9c0.9-3.3,3-5.6,6.2-6.7c1.1-0.4,2.1-1.1,3.3-1.5c1.5-0.6,2.9-1.1,4.4-1.5
		c3.4-0.9,6.7-1.7,9.6-4c2-1.6,4.3-2.8,6.6-4.2c1.1-0.6,2-1.1,1.9-2.7c-0.1-1.8-0.5-3.2-2.1-4c-2-1-2.5-0.8-4.3,0.9
		c-0.7,0.6-1.5,1-2.2,1.4c-1.9-1.2-2.9-2.8-3.9-4.5c-2.1-3.7-3-7.8-3.7-11.9c-0.2-1.3-0.8-2.6-1.3-4.3c-1.2,1.7-1.5,3.1-1.6,4.7
		c-0.1,2.1-0.3,4.2-0.7,6.2c-0.8,3.8-1.8,7.6-2.7,11.4c-1.3-0.6-1.9-1.5-2.2-2.7c-0.6-2.2-1.5-4.4-2.1-6.7
		c-1.2-4.9-2.3-9.8-3.4-14.7c-0.4-1.9-0.8-3.8-1.2-5.7c-0.2,0-0.4,0-0.6,0c-1.7,10.4-1.2,21.3-5.9,31.4c-2.7-2.9-4.7-5.7-6.1-9.1
		c-1-2.4-2.3-4.6-3.6-7.4c-2.2,5.7-1.2,11.6-3.5,16.9c-3-2-5.7-1.3-8.4,0.7c-3,2.3-2.4,5.4-2.2,8.7c-4.9,1.2-9.7,2.4-14.6,3.6
		c2.1,2.8,5.2,2.9,7.9,4.1c-1.5,2.6-4,3.2-6.4,3.7c-3.1,0.7-6.3,1.2-9.5,1.8c-0.4,0.1-0.9,0.4-1.4,0.6c3.4,1.5,6.5,3,9.6,4.4
		c-2.7,5.4-8.1,5.8-12.9,8c2.6,1.9,5.9,1.4,8,4c-0.5,0.7-1.2,1.4-1.6,2.1c-1.5,2.4-3.1,4.8-4.3,7.3c-0.8,1.6-1.4,2.8-3.2,3.5
		c-3.1,1.3-3.4,4.5-0.9,6.8c1.7,1.6,2,3.1,0.8,5c-0.3,0.5-1,0.8-1.5,1.3c-1.9,1.8-2.2,4.4-0.5,6.1c1.5,1.3,1.7,2.8,1.6,4.6
		c-0.1,1.2-0.1,2.5,0,3.7c0.1,2.3-0.2,4.4-2,5.9c-0.9,0.8-1.3,1.9-1,3.1c0.4,1.6,0.7,3.3,1.5,4.6c0.9,1.4,1.1,2.8,1.1,4.3
		c0,1.8,0.1,3.6,0.1,5.5c0,0.8,0.1,1.7-0.2,2.2c-1.4,2.4-0.8,4.6,0.7,6.6c0.7,1,0.8,1.9,0.6,2.9c-0.3,2.1-0.7,4.1-1.1,6.1
		c-0.1,0.3-0.4,0.7-0.6,0.9c-1.1,0.8-2.2,1.7-3.5,2.3c-4.3,2-8.6,3.9-12.8,5.9c-1,0.5-2,1.1-3.4,1.9c0.7,0.3,1,0.5,1.2,0.4
		c5.3-1.3,10.2,1.3,15.3,2c0.9,0.1,1.8,0.9,2.7,1.4c2,1.1,2.4,6.9,0.8,8.1c-1.3,1-2.7,2.1-4.2,2.7c-3.2,1.3-6.4,2.4-9.7,3.3
		c-3.9,1.1-7.9,1.8-11.8,2.8c-0.8,0.2-1.5,0.5-2.3,0.8c0,0.2,0.1,0.4,0.1,0.6c9.6,0.4,19,2.8,28.4,4.4c-1.7,5.2-1.6,5.5,2.4,9
		c0.2,0.2,0.4,0.3,0.8,0.6c-7.9,3.3-16.4,4.2-24.2,7.7c10.3,1.2,20.8,1.2,30.2,5.2c1.1,3.1,2.1,6,3.1,8.8c-2.2,2.6-2.8,4-2.5,6.6
		c0.6,5.9,2.6,7.4,8.1,6.2c0.1,0.1,0.3,0.2,0.4,0.4c0.1,0.3,0.3,0.5,0.2,0.8c-0.3,2.6,0.8,4,3.2,4.4c0.5,0.1,1.2,0.6,1.5,1.1
		c1,2,1.7,4,1.4,6.3c-0.4,3.4-0.5,6.9-1.1,10.2c-0.8,4.5-1.9,8.9-3,13.4c-0.1,0.6-0.9,1.3-1.4,1.4c-0.4,0.1-1.1-0.6-1.4-1.1
		c-0.9-1.8-1.8-3.6-2.5-5.4c-0.5-1.5-1-3.1-0.9-4.7c0.1-2.6-0.5-4.9-1.7-7.8c-0.5,2.3-1.2,4-1.3,5.8c-0.4,4.6-1.9,8.9-4.1,13.4
		c-2.4-0.4-4.8-0.8-7.2-1.3c-2.6-0.6-5.2-1.3-7.8-2c-0.6-0.2-1.3-0.4-1.7-0.8c-4-4.6-8.3-9-10.7-14.8c-0.9-2.1-1.6-4.3-3.5-6.4
		c-0.2,6.6,2.6,12.3,2.6,18.4c-0.3,0.1-0.4,0.1-0.4,0.1c-0.2-0.1-0.5-0.3-0.7-0.5c-4.7-4.5-8.5-9.7-11.1-15.9
		c-0.8-1.9-1.8-3.8-2.8-5.6c-0.3-0.6-0.9-1-1.4-1.6c-0.3,1.3-0.3,2.5-0.1,3.5c0.8,3.6,2.2,7.1,2.1,10.9c0,1,0.5,2,0.8,3
		c-0.7-0.2-1.6-0.3-2.2-0.7c-5.4-4-8.7-9.5-10.4-16.1c-0.5-2.1-1.7-3.8-3.1-6.2c-0.2,1.8-0.4,2.9-0.3,4c0.4,6.3,0.8,12.5,1.2,18.9
		c-2.2-0.5-4.3-1.3-5.5-3.8c-2.5-5.2-5-10.4-7.4-15.7c-1.5-3.2-3-6.5-4.6-9.7c-1-2.1-1.8-4.2-1.8-6.5c0-1.5-0.2-3-0.2-4.6
		c-0.2,0-0.4,0-0.6,0c-0.3,2-0.8,3.9-0.9,5.9c-0.3,3.9-0.3,7.9-0.8,11.7c-1,7.5-1.8,15-1.9,22.6c-0.1,8.8,0.3,17.6,1,26.3
		c1.2,15,3.6,29.8,9.1,43.8c2,5.1,3.7,10.4,6.8,15c1.5,2.2,3.7,2.8,6.1,1.7c0.2-0.1,0.5-0.1,1-0.1c1.1,1.8,2.8,2.1,4.7,2.1
		c0.5,0,0.9-0.1,1.4,0.1c2.3,0.8,3.5-1.2,5-2.2c1.2-0.8,0.2-2.1,0.3-3.2c0-0.3,0-0.6,0-0.9c-0.2-5.4-0.2-10.9-0.7-16.3
		c-0.5-5.3,0-10.5,0.4-15.7c0.1-1.3,0.6-2.5,1-3.7c4-0.4,4-0.4,5.2,2.8c1.6,4.2,4.2,7.9,7.4,11c0.9,0.9,1.9,1.6,3.6,1.9
		c-2-4-3.2-7.7-3.8-11.5c1.6-1,2.4-0.4,3.4,0.6c2.7,2.8,5.6,5.5,8.4,8.3c1.7,1.7,3.8,2.3,6.7,2.3c-1.2-1.5-2-2.8-3.1-3.8
		c-2.1-1.7-3.1-3.9-3.4-6.6c1.9-1,3.7-1.5,6-0.4c1.3,0.6,3.1,0.3,4.6,0.4c1,0,1.9,0,2.9,0c0.8,6.1,0.1,12.2,2.2,18.1
		c1.1-0.8,2-1.4,2.8-2c0.5-0.4,1-1,1.6-1.1c2.6-0.4,5-0.3,7.4,1.2c1.6,1,1.5,2.7,2.3,4.1c-1.4-0.8-2.7-1.7-3.7-2.9
		c-1-1.1-1.9-1.2-3.2-0.9c-3,0.7-5.1,2.8-7.3,4.8c-1.4,1.2-1.7,2.7-1.6,4.5c0.1,1.4,0,2.9,0,4.3c-0.1,3.2-0.2,6.5-0.4,9.6
		c-1.9,0.6-3.3,0-4.8-0.6c-0.9-0.4-1.8-0.9-2.8-1.3c-1.2-0.4-2,0.4-1.7,1.7c0.1,0.6,0.4,1.3,0.7,1.9c1.8,3.6,3.6,7.1,5.3,10.7
		c1.1,2.5,2.6,4.5,4.7,6.1c0.1,0.1,0.1,0.3,0.1,0.5c-0.5,0.1-1.3,0-1.6,0.3c-1.5,1.9-2.9,1.1-4.3,0c-0.8-0.6-1.6-1.2-2.4-1.9
		c-0.9-0.8-1.8-1-3.1-0.9c0.4,1.3,0.7,2.4,1.2,3.5c1.3,3.1,2.9,6.2,4.1,9.4c1.1,3.1,2.4,6.3,2.7,9.6c0.4,3.8,0.4,7.8-0.9,11.6
		c-0.3,0.8-0.3,1.7-0.4,2.5c-0.4,1.9-0.5,4-1.2,5.8c-3.5,9.1-7.1,18-10.6,27.1c-0.2,0.5-0.3,1.1-0.4,1.7c3.5-3.5,7.6-5.3,11.9-7.2
		c0.2,2.1,0.4,3.8,0.5,5.5c0.3,4.1-0.1,7.9-2.2,11.6c-2.8,5-5.3,10.3-6.9,15.9c-0.3,0.9-0.7,1.8-1,2.7c-0.6,1.8-1.2,3.7-2.1,6.1
		c5.5-2.8,10.1-5.8,15.4-7.6c0.1,0.7,0.1,1.2,0.3,1.6c0.9,2,0.4,3.5-1,5.1c-4.2,5-8.1,10.1-12.2,15.2c-1.2,1.6-2.2,3.3-1.9,5.4
		c1.6-0.5,3.1-0.8,4.5-1.4c3.2-1.3,6.8-1.2,10-2.8c0.2-0.1,0.5,0.1,0.7,0.1c0.9,3.5-0.1,7.5,2.8,10.7c1.4-1.5,3.5-2.2,3.6-4.6
		c0-0.3,0.2-0.5,0.3-0.8c1.5-2.3,3-4.5,4.4-6.8c1.1-1.7,2.3-3.2,4.6-3c0.4,0,0.9-0.2,1.3-0.4c2.6-1.5,5.1-2.9,7.7-4.5
		c1.2-0.8,1.8-2,2.1-3.5c0.3-1.4,0.7-2.8,1.5-3.9c1.8-2.6,2.5-5.4,2.4-8.6c-0.1-2.3,0.2-4.6,0.4-6.9c0.1-1,0.4-1.9,1.9-1.6
		c0,0.8,0,1.6-0.1,2.5c-0.2,2.2-0.3,4.3-0.5,6.5c-0.1,1.8,0.6,3.1,1.9,3.5c2.5-0.8,4.5-1.4,6.6-2.1
		C419.9,524.4,420.1,523.8,420.5,523.4z M467.7,254.2c-0.5-1.6-1-2.9-1.6-4.8c1.4,1,2.3,1.6,3.3,2.3
		C468.9,252.5,468.4,253.2,467.7,254.2z M484.5,212.3c-1.1-0.4-2.3-0.6-2.5-2.2C482.8,210.8,483.7,211.6,484.5,212.3z M456.5,151.6
		c1.3-3.9,2.7-7.7,4-11.6c0.2-0.5,0.5-1,0.8-1.8c3.1,3.4,3.2,9,8.4,10.2c-0.9,1.9-2.9,3.7,0.3,5.5c-1.3,1.1-2.4,2.1-3.7,3.3
		c1.4,1.7,2.7,3.3,4.2,5.2c-2.1,2.3-4,4.5-6.1,6.8c3.3,2.7,7.7,3.8,10,8.1c-3.4,3.1-6.8,6.2-10.5,9.5c4.6,1.2,7.6,4,10.9,6.4
		c-2.4,2.2-4.6,4.1-7.1,6.5c1.7,1.4,3,2.6,4.3,3.7c0.8,0.7,1.5,1.3,1.9,2.6c0.7,2.1,2.4,3.3,4.6,3.5c1.1,0.1,2.1,0.4,3.1,0.7
		c-0.6,0-1.2,0-1.8,0c-2,0.1-3.1,1.3-2.9,3.3c0.4,4.7,0.4,4.7-3.8,6.6c-1.4,0.7-2.9,1.2-3.4,3.5c2.5,1.4,5.1,2.7,7.6,4.1
		c0,1.2-1.1,1.2-1.7,1.6c-1.5,1.1-3.7,1.7-3.4,4.3c0.3,3.2-0.3,6.8,4,8.1c-0.9,1.6-1.7,3-2.5,4.5c-0.6,1.1-1.5,1.5-2.7,1.6
		c-3.3,0.2-4.8-1-5.2-4.6c-0.3-2.9-0.3-5.9-0.6-8.9c-0.3-2.6-0.5-5.1-1.2-7.6c-0.9-3.5-1.5-7-1.3-10.7c0.3-6,0.2-12.1,0.5-18.1
		c0.5-8.9-1.4-17.7-1.2-26.6c-0.2,0-0.4,0-0.5,0c-0.3,8.3-0.6,16.6-0.9,24.9c-0.3,8.5-0.6,17,0,25.5c0.6,8.4,0.5,16.8,0.7,25.1
		c-0.8,0.7-1.5,1.4-2.3,2.1c-1.1-2.1-1.3-4.1-1.3-6.2c-0.2-9.8-0.8-19.6-1.6-29.4c-0.5-6.2-0.1-12.4,0.1-18.6c0.2-8.5,0-17-1.1-25.5
		C454.2,163.2,454.6,157.3,456.5,151.6z M441.3,259.8c-1.6-1.1-2-2.6-3.1-4.4c1.5,0.5,2.4,0.7,3.4,1
		C441.5,257.4,441.4,258.4,441.3,259.8z M441.6,252.6c-3.1,0.3-3.4,0-3.4-2.7c0-0.7-0.1-1.5-0.1-2.3c1.2,0.6,2.3,1.1,3.6,1.7
		C441.6,250.3,441.6,251.4,441.6,252.6z M449.3,257.6c-2.7-5-3-9.8-2.8-14.7c0.1-1.8,0.5-3.6,1-5.3c0.9-3.1,1.9-6.1,3-9.2
		C450.8,238,451.8,247.5,449.3,257.6z M441,136.5c1.1,3.1,1,3.2-1.4,3.6C440.1,138.7,440.5,137.7,441,136.5z M437.5,146.1
		c2-3.6,2.4-3.8,4.8-2.7c-2.4,1-2.4,1-3.6,2.6c0.6,0,0.9,0.1,1.3,0c3.2-0.8,5.6,0.6,6.4,3.9c0.4,1.5,0.6,3,0.6,4.5
		c0,8.5,0.6,17,1.4,25.4c0.6,6.2,1.1,12.4,0.6,18.6c-0.2,3.1,0.4,6.3,0.9,9.4c0.2,1.4,0.4,2.6,0,3.9c-2.6,8.6-5.2,17.3-7.8,26
		c-0.4,1.3-0.5,2.6-0.6,3.9c-0.1,1.5,0,3,0,4.6c-2.2-0.3-3.4-1.5-3.7-3.5c-0.1-0.7,0-1.3,0-2c-0.2-9.5-0.4-19.1-0.5-28.6
		c0-4.2,0.3-8.4,0.3-12.6c-0.1-7.2-0.2-14.3-0.4-21.5c-0.2-8.1-0.4-16.2-0.7-24.4c-0.1-2.5-0.2-5,2.4-6.6
		C438.2,146.5,437.8,146.3,437.5,146.1z M435.7,313.1c0.7-0.3,1.4-0.6,2.3-1.1c0.9,7.4,2.5,14.6,1.5,22.2c-1.4,0-2.6,0-3.8,0
		C435.7,327.2,435.7,320.2,435.7,313.1z M342.1,319.4C342.1,319.4,342.1,319.4,342.1,319.4c0.1-0.1,0.2-0.1,0.4-0.1c0,0,0,0,0,0
		C342.3,319.3,342.2,319.3,342.1,319.4z M383.4,437.4c-0.5-0.4-0.4-1.7-0.4-2.7c1.4,2.8,3.6,4.9,5.9,6.8
		C386.5,441,385.1,438.9,383.4,437.4z M391.4,444c-1.1-0.4-2.1-1-2.3-2.3c2.1,1.1,4.1,2.3,6.1,3.3C394,444.7,392.7,444.4,391.4,444z
		 M417.5,412.9c-1.3-1.1-2.6-2.5-3.4-4c-0.7-1.4-1.5-1.8-3.3-1.7c2.1-1.6,3.2-3.8,5.9-3.1c-0.6,0.6-1.2,1.1-1.8,1.7
		c0,0.7,0,1.4,0.1,2c0.3,1.6,1,3,2.4,3.6c1,0.5,2.1,0.5,2.9,1.7c0.1,0.2,0.3,0.4,0.5,0.5C419.4,413.3,418.1,413.4,417.5,412.9z
		 M431.5,334.1c-1.8,0-3.1,0-4.4,0c-0.9-2.9-0.8-21.2,0.1-24.5c0.2,0,0.3,0,0.5,0c2.9,0.9,3.5,3.2,3.7,6.1
		C431.8,321.8,431.5,327.9,431.5,334.1z M428.9,262.8c-0.2,0-0.5-0.1-0.7-0.1c0.3-5.1,0.2-10.2,0.9-15.3c0.3-2.4,2.1-4.6,3.4-6.8
		C433.3,248.4,433.6,256.1,428.9,262.8z M415.4,174.8c2.4-1.1,4.8-0.5,7.2,0.4c1.9,0.7,1.9,0.7,3.9-0.3c0.2-1.9-0.8-3.2-2-4.4
		c-1.9-2-3.7-4-5.7-5.8c-1.1-1-1.4-2.1-0.9-3.6c0.6-1.9,1-3.9,1.7-5.7c0.6-1.4,1.6-2.7,2.6-4.4c1.3,1.4,2.3,2.5,3.5,3.8
		c0.3,0,1.4-0.2,1.7,0.3c0.9,1.1,2,2.5,2.2,3.9c1.1,6.8,2.3,13.5,2.9,20.4c0.6,6.6,0.5,13.4,0.6,20c0.1,7.7,0.1,15.3-0.2,23
		c-0.2,4-0.8,8-1.9,11.8c-0.8,2.8-2.5,5.4-4.5,7.7c-2,2.3-3.9,4.2-6.6,5.4c-0.3,0.1-0.5,0.2-0.8,0.3c-0.2,0-0.3-0.1-0.7-0.2
		c2-3.5-0.1-7,0.2-10.5c0.1-0.8-0.2-1.7-0.3-2.5c2.4-1.9,4.7-3.7,7.5-5.8c-1.4-0.7-2.4-1.2-3.4-1.8c-2.2-1.3-4.7-2.4-5.4-5.3
		c-0.3-1.2-0.3-2.4-0.4-3.7c-0.2-1.9-0.3-3.8-0.4-5.7c0-0.4,0.1-1,0.3-1.3c2.1-2.6,4.1-5.4,7.1-7.1c0.4-1.4-0.4-2.3-1.4-3.1
		c-2-1.7-4-3.3-6.2-5.1c1.3-2,2.5-3.8,5.3-3.2c1.3,0.2,2.5-0.5,3.8-2.3c-0.6-0.4-1.3-0.7-1.9-1.1c-1.6-1.3-3.2-2.6-4.7-4
		C415.7,182.2,414.3,179.1,415.4,174.8z M404.8,306c3.3-0.9,3.7-0.7,5.7,2.1c1.9,2.8,1.9,2.8,4.6,3c3.6,6.2,6,12.8,5.4,20.8
		c-2.9-3.9-2.8-8.3-4.7-12.1c-0.9,4.2-1.9,8.4-2.9,12.9C409.3,328.3,404,310.3,404.8,306z M395.6,394.3c2.2,0.1,3.4,1.2,4.5,3.6
		C397.4,398.1,397.5,395.3,395.6,394.3z M398.3,444.4c0.1,0,0.3,0,0.4,0c0,0,0.1,0,0.1,0c0,0-0.1,0-0.1,0
		C398.6,444.4,398.4,444.4,398.3,444.4z M404.3,451.8c0.1-2.2-1.3-3.5-2.8-4.8c-0.7-0.6-1.2-1.6-1.9-2.4c0.7,0.2,1.4,0.4,2.1,0.6
		c2.1,0.7,3.9,1.8,4.4,4.5c0.2,1,0.7,2,1.3,3.5C406.1,452.6,405.3,452.2,404.3,451.8z M405.3,404.9c-1-1.6-1.9-3.4-3-5.4
		c1.6,0.1,2.3,0.2,2.8,1.6c0.8,2.2,2.4,4.1,4.9,5C408.1,406.8,406.2,406.4,405.3,404.9z M410.1,455.4c0-0.1-0.1-0.3-0.1-0.4
		c1-0.2,2-0.5,3.4-0.8c-0.2,0.9-0.3,1.3-0.3,1.6C412,455.6,411.1,455.5,410.1,455.4z M412.5,512.7c0.4-0.8,0.9-1.7,1.3-2.5
		C413.8,511.2,414.1,512.3,412.5,512.7z"/>
	<path class="st0" d="M512.8,489.4c0.2,0.1,0.4,0.1,0.6,0.2c0-0.1,0-0.1-0.1-0.2c-0.2-0.1-0.4-0.1-0.6-0.2
		C512.8,489.3,512.8,489.4,512.8,489.4z"/>
	<path class="st0" d="M472,500.1C472,500.1,472,500.1,472,500.1C472,500.1,472,500.1,472,500.1L472,500.1z"/>
	<path class="st0" d="M633.7,540.6c-3.1-5.4-6.3-10.8-9.5-16.1c-1.3-2.1-1.4-4.2-0.5-6.8c3.3,1,6.6,1.9,9.8,3c0.7,0.2,1.3,0.9,2,1.5
		c1.2,1,2.3,2.1,3.5,3.2c0.2-0.2,0.4-0.3,0.6-0.5c-1.1-2.2-2-4.5-3.2-6.6c-3.4-6.1-7-12.2-10.5-18.2c-1.5-2.5-0.9-5.1-0.3-7.8
		c3,0.3,5.8,1,8.3,2.4c2.4,1.4,4.5,3.3,6.9,5.1c-0.9-3.6-2.5-6.6-4.6-9.4c-3.5-4.6-6.2-9.7-8.2-15.2c-0.4-1.1-0.5-2.4-0.4-3.6
		c0.4-5.8,1-11.5,1.5-17.3c-1.4-0.9-2.8-0.8-4.3-0.3c-0.6,0.2-1.2,0.4-1.8,0.4c-3.3,0-6.6,0.2-9.9,0c-5.7-0.3-11.4-0.8-17.1-1.3
		c-0.2,0-0.5-0.2-0.8-0.4c-0.2-3.8-1-7.5,0.2-11.5c1.9,0.3,3.8,0.5,5.7,0.8c2.8,0.5,2.8,0.4,3.9-2.5c1.4-4,3-8,4.5-12
		c0.9-2.3,1.9-4.5,2.7-6.9c0.8-2.3,1.7-4.6,3.6-6.3c4.9-4.4,9.8-9,14.7-13.5c2.2-2,4.5-3.9,6.7-5.9c-1.3-0.5-2.4-0.7-3.6-0.5
		c-2.3,0.3-4.5,0.9-6.8,1.2c-2.1,0.3-4.3,0.6-6.5-0.3c0.2-1.9,0.7-3.5,1.8-4.9c1-1.3,1.9-2.7,2.9-4c-2.8-1.6-4.8-1.1-6.5,1.3
		c-0.6,0.8-1.2,1.7-2,2.4c-1.9,1.8-3.9,3.6-5.9,5.4c-0.3,0.2-0.8,0.1-1.8,0.3c4.3-3.6,7.8-7.2,10.3-11.7c0.2-0.4,0.8-0.5,1-0.8
		c1.1-1.4,2.7-0.6,4-1.2c0.8-0.4,1.7-0.7,2.6-0.7c2.6,0,4.8-0.7,6.7-2.8c3.1-3.4,6.4-6.6,9.6-9.9c0.3-0.3,0.5-0.8,0.8-1.2
		c-0.1-0.2-0.2-0.3-0.4-0.5c-4.7,2.3-9.4,4.5-14.1,6.8c0-0.6-0.2-1.4,0-1.9c1.4-3.2,2.9-6.3,4.4-9.5c1.8-3.8,3.9-7.4,5.2-11.3
		c3.7-10.7,4.9-21.9,6-33.1c0.1-1.2,0.2-2.4-1.2-3.4c-1.3,2.6-0.6,5.7-2.6,7.8c-2,2-4,3.9-6.2,5.3c-0.9-1.2-1.7-2.3-2.5-3.3
		c-3.1,2.2-3.3,2.2-3.5,5.6c-0.1,2-1,3.1-2.5,4c-3.9,2.2-7.7,4.4-11.5,6.7c0.2-0.7,0.3-1.5,0.5-2.2c1.3-3.2,2.6-6.5,3.9-9.7
		c-0.2-0.2-0.3-0.3-0.5-0.5c-5.7,6.2-11,12.8-19.7,15.2c1.6-9.1,5.3-17.2,8.2-25.7c-0.9,0.5-1.6,1.1-2.3,1.9c-2.5,3-5,6.2-7.6,9.1
		c-7.3,8.4-16.2,14.6-25.5,20.5c-2.3,1.5-3.8,1-5.5-1.2c-2-2.5-4-5-6-7.4c-0.1-0.2-0.4-0.2-0.9-0.4c0,3.6,0,7,0,10.5
		c-1.5,0.2-2.7,0.4-4,0.5c-3.1,0.3-3.7-0.1-5-3.3c-0.7-1.8-2.2-2.3-3.8-1.3c-0.4,0.3-0.8,0.7-1.1,1.2c-0.7,1-1.6,1.3-2.9,1.2
		c-6.5-0.7-11.8-3.8-16.3-8.7c-4.7-5.1-9-10.6-12.9-16.4c-0.5-0.8-1-1.5-1.6-2.2c-0.2,0.1-0.4,0.2-0.5,0.3c1.5,4,2.9,8,4.4,11.9
		c0,0.2-0.1,0.5-0.1,0.7c-0.1-0.1-0.3-0.2-0.4-0.3c-1.7-1.5-3.3-3-5-4.4c-3.1-2.6-6.2-5.1-9.3-7.7c-0.3-0.2-0.7-0.3-1.5-0.5
		c0.3,0.9,0.4,1.5,0.7,2c2,3.9,4,7.7,6.8,11.1c1.2,1.5,2,3.4,2.9,5.1c0.3,0.2,0.5,0.4,0.8,0.6c0,0,0,0,0,0c-0.4,0-0.8,0-1.2,0.1
		c-4-2-7-5.2-9.8-8.7c-2.4-3-4.7-6.1-7.1-9.1c-0.1,0.1-0.2,0.2-0.2,0.2c0.7,1.9,1.3,3.8,2,5.6c1.1,3,2.2,6.1,3.3,9.1
		c0.2,0.5,0.3,1,0.6,1.9c-5.6-3-9-7.2-9.8-13.5c-0.7,1-1,2-1.3,2.9c-0.5,1.9-0.8,3.9-1.5,5.8c-1.8,4.5-2.5,9.2-2.9,13.9
		c-0.4,5.8-0.6,11.6-0.7,17.5c0,1.5-0.4,2.5-1.8,3.2c-1.5,0.7-2.8,1.7-4.6,2.8c2.4,0.9,4.3,1.6,6.3,2.3c0,0.9-0.1,1.6,0,2.2
		c0.3,2.1-0.4,3.4-2.4,4.1c-2.9,1.1-5.7,2.4-8.8,3.7c1.7,1.2,3.3,2.2,4.7,3.4c3.7,3.1,6.5,6.8,6,12.2c-0.1,1.2-0.1,2.5,0,3.7
		c0.3,2.1-0.5,3.4-2.5,4c-1.4,0.5-3,1-3.4,3c1.6,2.2,3.2,4.3,5,6.7c-6.1,1.4-11.9,2.2-17.4,4.1c-5.6,1.9-11.7,1.5-17.1,4.4
		c1.9,0.7,3.8,1,5.6,1.3c6.8,1.1,13.6,2.2,20.4,3.3c1.6,0.3,3.2,0.5,4.8,1.9c-5.3,1.3-10.2,2.4-15.1,3.7c-2.7,0.7-5.3,1.5-8.1,1.2
		c-0.6,0-1.2,0.4-1.7,0.6c1.6,0.9,3.3,1.2,5,1.6c4.3,0.9,8.7,1.6,12.9,2.9c3.3,1,6.5,2.2,9.8,2.7c0.6,0.1,1.2,0.3,2,0.5
		c-0.1,1-0.2,1.9-0.2,2.7c-7.1,2.3-13.9,4.7-21.2,3.8c-0.5-0.1-1.1-0.1-1.6,0.1c-0.5,0.2-1,0.5-1.7,1c0.6,0.3,0.8,0.5,1,0.5
		c5,0.8,10,1.6,14.7,3.4c0.5,0.2,1.1,0.1,1.6,0.3c2,0.8,3.9,1.6,5.8,2.5c0.8,0.4,1.5,1,1.4,2.2c-0.1,1.3-1.1,1.5-1.9,1.8
		c-2.8,0.9-5.7,1.7-8.5,2.5c-2.9,0.8-5.8,1.7-8.7,2.5c1.3,0.6,2.6,0.8,3.9,0.9c3.9,0.3,7.5,1.6,11.2,2.8c3.2,1,4.4,2.8,4.3,6.1
		c-0.1,3.1,1.5,5,4.4,5.9c2.2,0.7,4.4,1.6,6.7,2.5c-0.9,0.8-1.4,0.7-2.3,0.2c-2-1.2-4.1-1.5-6,0.4c-0.7,0.7-1.1,1.7-1.7,2.6
		c-0.4-0.2-0.9-0.2-1.3-0.5c-3.1-2.3-6.1-4.6-9.1-6.9c-0.8-0.6-1.6-1.2-2.5-1.8l0,0c-0.1-0.1-0.2-0.2-0.4-0.3c0,0.2,0,0.5,0,0.7
		c1.8,3.7,3.5,7.3,5.3,11c1.3,2.7,3,5,5.4,6.7c0.5,0.3,1,1,1.1,1.5c0.2,1.8,0.2,3.7,0.3,5.5c-0.2,0.1-0.4,0.2-0.6,0.3
		c-3.1-2.4-6.3-4.8-9.4-7.2c-0.1,0.4-0.3,0.9-0.2,1.3c0.7,3.3,1.5,6.6,3.4,9.3c2.2,3.3,4.7,6.4,7,9.5c0.4,0.6,1,1.2,1.1,1.9
		c0.5,2.6,0.7,5.2,1.2,8.6c-1.4-1.1-2.4-1.6-3.2-2.5c-2.4-2.9-4.8-5.8-7.3-9c0,4.4,0.5,8.5,2.4,12.1c2.8,5.4,5.9,10.6,9,15.8
		c1.2,2,2,4.1,2,6.4c0.1,3.7,0.3,7.4,0.4,11.1c0,0.4,0,0.8-0.1,1.1c-0.6,1.9-0.2,3.7,0.4,5.6c0.7,2.4,1.4,4.8,0.5,7.5
		c-0.6,1.6-0.6,3.5,0.5,5.2c0.5,0.8,0.7,2,0.7,2.9c-0.2,5.2-0.6,10.5-0.8,15.7c-0.1,1.3,0.3,2.6,0.4,3.8c0.7-1.1,1.2-2.2,1.3-3.3
		c0.7-5.9,1.4-11.7,2-17.6c0.1-0.5-0.1-1.2-0.3-1.7c-0.9-2.1-0.9-4.2-0.1-6.4c0.9-2.7,1.1-5.4-0.6-8c-0.5-0.8-0.5-2-0.5-3
		c0.1-1.4,0.3-2.9,0.7-4.2c0.3-1.1,0.5-2.4,1.7-3.3c1.5,2.3,2.9,4.5,4.4,6.7c1.6,2.3,3.2,4.6,3.2,7.7c0,1.5,0.7,3,1,4.4
		c0.4,1.7,0.6,3.4,0.9,5c0.3,1.6,0.5,3.2,0.9,4.8c0.6,2,1.2,4,0.1,6.1c-0.4,0.7-0.2,1.7-0.3,2.5c-0.1,1.5-0.1,3.1-0.1,4.6
		c-0.1,7.4-0.3,14.9-0.4,22.3c0,1.1,0.4,2.1,0.6,3.2c0.7-0.6,0.9-1.2,1-1.8c0.4-4,0.8-8,1-12c0.3-5.7,0.5-11.4,0.8-17.2
		c0-0.7,0-1.4,0.3-2c1.6-3.1,1.6-6.2,0.2-9.3c-0.6-1.3-0.5-2.7,0.3-4.1c13.2,11,25.1,18.4,29.2,18.3c-0.3-0.4-0.6-0.8-0.9-1.2
		c-4.8-5.1-8-11.2-9.4-18.2c-1.2-6.3-2.2-12.6-3.2-18.9c-1.5-8.9-0.1-17.5,2.7-25.9c2.3-6.8,5.2-13.3,8.5-19.6
		c0.6-1.1,1.8-2,1.1-3.6c0.1,0.1,0.3,0.1,0.4,0.2c-0.1-0.1-0.3-0.1-0.5-0.2c0,0,0,0,0,0c0,0,0,0,0,0l0,0c-1.1,1.8-2.9,2.8-4.7,3.9
		c-3.1,1.9-6.1,3.9-9.6,6.1c0.6-5.6-0.9-10.8,1.6-15.8c0.6-1.2,1.2-2.4,0.2-3.6c-0.8-0.4-1.6-0.8-2.1-1.5c-1.3-1.7-2.3-3.5-3.6-5.2
		c-1.1-1.5-2.5-2.8-3.8-4.2c-0.4-0.4-0.6-0.9-1-1.6c-1.4-0.5-2.6-1-3.5-2.1c-1.3-1.4-2.5-3-4.8-2.5c-1.8,0.3-3.8-0.4-5.5,1.2
		c-0.6,0.6-1.7,0.5-2.6,0.7c-0.1-0.2-0.1-0.4-0.2-0.6c1.9-1.4,3.7-3.1,6.2-3c1.3,0.1,2.6-1.2,4,0c2.3,2,5.5,3,7,6.4
		c1.3,0.4,2.5,0.6,3.5,1c1.1,0.4,2,1.1,2.2,2.6c0.3,1.5,0.5,3.2,2.1,4.3c1.1-0.9,2.1-1.8,3.4-2.9c-0.4-1.6-0.7-3.5-1.2-5.3
		c-0.6-2.3-0.5-4.2,1.7-5.7c3.7-2.6,7.3-5.3,10.8-7.9c2.6,1.1,4.9,2.1,7.3,3c3,1.2,5.9,2.9,9,3.5c4.2,0.8,7.8,2.6,11.6,4.4
		c3.4,1.7,6.8,3.5,10.2,5.1c1.7,0.8,3.3,1.6,4,3.8c-1,2-2.2,4-3.2,6.2c-1.6,3.4-3.2,6.9-4.6,10.4c-0.7,1.8-0.8,3.7-0.1,5.6
		c1.3-1.8,2.2-3.7,3.7-5c1.4-1.3,3-2.7,5.7-2.2c-1.5,4.9-3,9.7-4.5,14.4c-0.9,2.7-1.5,5.3-1.2,8.1c0.1,1.5,0.2,3.1,1.1,4.1
		c1.1-2.6,2.2-5.3,3.4-7.8c0.8-1.6,2-1.9,3.4-0.7c0.6,0.6,1.1,1.5,1.4,2.3c0.4,1.4,0.4,2.9,0.8,4.2c0.6,2,1.2,4,2.2,5.8
		c0.6,1.1,2.1,1.6,2.1,3.1c1,0.2,2,0.1,2.5,0.6c1.2,1.2,2.7,1.1,4.1,1.4c-0.4,0.3-0.7,0.8-1.1,0.8c-0.5,0-1.2-0.6-1.5-0.4
		c-2.6,1.2-4-0.1-5.1-2.5c-1.4,1.1-2.6,2.1-3.6,2.9c0.3,3.4,0.6,6.6,1,9.8c0.2,1.4,0.7,2.8,0.9,4.2c0.2,1.4,0.5,2.8,0.2,4.2
		c-0.5,2.9-0.7,5.7-0.2,8.5c0.5,3,1.1,6,1.3,9.1c0.5,7.5,0.7,15.1,1.2,22.6c0.1,1.8,0.5,3.6,0.7,5.4c1.4-5.5,2.3-11.1,2.4-16.7
		c0.2-6.9,0.5-13.8-1.4-20.5c-0.3-1.2-0.2-2.3,1-3.1c0.7,2.3,1.2,4.7,2,6.9c1.5,4.1,1.6,8.4,1.8,12.7c0.3,7.7,0.4,15.5,0.7,23.2
		c0,1.3,0.4,2.6,0.6,3.9c0.2,0,0.4,0,0.6,0c0.4-8.7,0.7-17.4,1.1-26.5c1.8,2.2,3.3,4.2,5,6.4c5.5-9.4,9.2-19.4,12-29.8
		c-2.3,17.5-2.5,31.3-0.2,38.7c0.1-1,0.1-1.6,0.2-2.2c0.5-7.4,0.9-14.9,1.5-22.3c0.7-7.4,2.1-14.7,1.7-22.2c-0.2-3.2-1.8-7-4.3-7.6
		c-2-0.5-2.8-1.9-3.6-3.5c-2-3.8-2.9-4.3-6.4-2.5c-1.8,0.9-3.4,1.1-5.3,0.6c-0.8-0.2-1.7-0.1-2.5-0.1c0.8-1.1,1.8-1,3.1-0.8
		c2,0.3,4-0.2,5.7-1.6c1.7-1.5,2.1-1.3,3.9-0.1c0.9,0.7,2,1.2,3.2,2c0.7,1.5,1.5,3.2,2.3,5c2.6,0.7,4.6-0.4,5.6-3
		c0.8-2.2,1.5-4.4,2.3-6.8c6.2,0,10.8,3.2,15.4,7.6c-0.1-1,0-1.7-0.2-2.3C635.5,544.1,634.7,542.3,633.7,540.6z M615,340.8
		c-0.1,0-0.1,0-0.2,0c0,0,0-0.1,0-0.2C614.9,340.6,614.9,340.7,615,340.8z M525.5,421.1c1.1,1.9,1.9,3.4,2.8,5
		c-0.9,0.9-1.6,1-2.3,0.3C524.5,424.9,525.5,423.2,525.5,421.1z M523.5,476.9c-0.4-4.2-0.4-4.2,2.5-6c1.3,0.6,2.7,1.2,4.3,2
		C528.3,474.9,526.1,476,523.5,476.9z M528.3,417.5c1.6,2.9,2.9,5.2,4.5,8.1C529.8,423.6,528.4,421.3,528.3,417.5z M539.9,396
		c-0.3,1.2-0.9,2.3-1.3,3.4c-0.7,2.2-0.8,4.3,0.6,6.3c0.9,1.3,0.9,2.6,0.4,4.1c-0.9,2.5-1.2,5.1-1,7.8c0.2,2.6-0.2,5.3-0.3,8
		c-0.2,0.1-0.4,0.2-0.6,0.4c-0.8-0.7-1.8-1.3-2.4-2.1c-2.7-4-4.9-8.3-5.6-13.3c-0.2-1.4-0.3-2.6,0.6-3.8c0.9-1.3,1.1-2.8,0.6-4.4
		c-0.8-2.5-0.5-5,0.3-7.3c0.6-1.7,0.9-3.3,0-5.2c2.6-0.6,4.9-1.1,7.5-1.6c0.6,1.5,1.3,2.9,1.5,4.4
		C540.4,393.7,540.2,394.9,539.9,396z M549,408.8c1.2,3.3,0.6,9.5-1.2,12.3c-0.4,0.7-0.8,1.4-1.6,2.7c-1.6-3.1-2.2-5.9-2.4-8.7
		c-0.2-2.7-0.3-5.5,1-8.1c0.3-0.7,0.1-1.9-0.2-2.6c-1.4-2.7-1.2-5.2-0.2-7.9c0.5-1.3,0.5-2.8,0.3-4.2c-0.3-2.3,0.7-4,1.9-5.7
		c1.7,0.3,2.7,1.2,2.9,2.8c0.3,1.8,0.8,3.6,0.7,5.3c-0.1,3.6-0.1,7.2-1.6,10.6C548.4,406.2,548.6,407.7,549,408.8z M572.3,391.5
		c-2.1-1.4-2.4-1.8-3-3.9C571.3,387.8,571.8,388.5,572.3,391.5z M554.1,420.7c0.3-1.2,0.5-2,0.7-2.7c0.7-2.2,0.7-4.2-0.9-6.1
		c-0.7-0.8-1.3-2.4-1-3.4c1.8-6.6,1.3-13.3,1-19.9c0-0.3,0.1-0.5,0.2-1.2c1.7,0.1,3.2,0.4,4.8,0.3c1.4-0.1,2.8-0.5,4.7-0.9
		c1.5,0.8,3.5,1.8,4,4.4c0.1,0.5,0.5,1,0.9,1.4c3.5,3.8,4.2,8.3,3,13.3c-0.6,2.5-1.2,5-1.8,7.5c-0.6,2.4-1.9,3.9-4.4,4.5
		C561.6,418.5,558.1,419.6,554.1,420.7z M574.1,449.2c-3.1-0.6-6.2-1.2-9.2-1.8c2.7-2.3,5.8-2.9,8.9-3.8
		C574.7,445.5,574.7,447.2,574.1,449.2z M579.4,448.6c0.3-2,0.6-3.7,0.9-5.5c0.2-1,0.9-1,1.9-0.5
		C581.3,444.5,582.8,447.3,579.4,448.6z M590.1,452.2c-1.2-0.5-2.4-1.1-3.3-1.5c0.3-1.5,0.6-2.7,0.7-3.9c0.1-1.1,0-2.3,0-3.4
		c0-2.2,0-2.2,2.6-2.2C590.1,444.8,590.1,448.4,590.1,452.2z M589.5,397.4c-2.3-0.8-4.2,0.3-5.9,1.3c-1,0.6-1.8,2.1-2.1,3.4
		c-1,3.7-1.8,7.5-2.7,11.3c-0.2,0-0.4,0.1-0.6,0.1c-1.4-2.5-2.9-4.9-2-8.2c1.3-4.5,2.2-9,3.6-13.5c0.4-1.3,1.9-2.2,3-3.5
		c1,1.7,0.1,3.1,0.1,4.4c0,1.2-0.7,2.5,0.8,3.3c0.6,0.3,3.5,0,4.1-0.4c2-1.5,2.5-1.5,4.6-0.3c0.5,0.3,1.1,0.5,1.7,0.5
		c2.3-0.1,4.5-0.7,6.9,0.3c1.4,0.5,3.1-0.2,4.7-0.3c1-0.1,2-0.1,3.1,0.1c-2.1,1.6-4.2,2.9-6.8,1.2c-0.2-0.1-0.6-0.3-0.8-0.2
		c-1.1,0.7-2.2,0.4-3.3,0c-1-0.3-2.2-0.1-3.3,0c-1,0-2,0.1-3,0.2C590.9,397.3,590.1,397.6,589.5,397.4z M594.5,545.8
		C594.5,545.8,594.5,545.8,594.5,545.8L594.5,545.8C594.4,545.9,594.5,545.8,594.5,545.8z"/>
	<path class="st0" d="M681.9,328.9c0-1.6-0.4-2.8-1.8-3.6c-1.8,0.5-2.3,2.1-2.8,3.6c-0.8,2.7-1.6,5.5-2.2,8.3
		c-0.4,1.9-1.3,3.1-3.2,3.7c-4.1,1.4-8.1,3-12.1,4.7c-1.5,0.6-2.7,0.9-4-0.3c-0.5-0.5-1.2-0.7-1.8-1c-2,1.9-0.3,3.5,0.1,5.1
		c0.4,1.8,1,3.5,1.7,5.8c-2.4-0.7-4.4-1-6.1-2c-1.7-1-3.1-2.6-4.7-4c0.4,4.2,1.8,7.9,4,11.3c1.8,2.8,3.2,5.7,4.9,8.6
		c0.2,0.2,0.3,0.5,0.5,0.7c0.3,0.1,0.6,0.2,0.9,0.4c-0.4,0-0.8,0-1.2,0.1c-0.2-0.2-0.4-0.3-0.6-0.5c-2.7-2.5-5-5.3-6.7-8.7
		c-0.7-1.4-1.6-2.6-2.4-3.9c0.5,4,1.6,7.8,2.4,11.5c1,4.3,2.9,8,5.6,11.4c3.5,4.3,6.9,8.7,10.4,13c1.8,2.2,4,2.3,6,0.3
		c1.9-1.9,4.1-2.8,6.6-3.2c1.5-0.3,3.1-0.6,4.5-1.2c1-0.4,1.8-0.4,2.8,0.1c2.3,1.1,4.9,0.6,6.9-0.6c2.3-1.3,3.8-3.6,4.9-6.3
		c0.7-1.7,1.6-3.2,2.5-4.8c0.3-0.4,0.8-1,1.2-1c1.4-0.2,2.8,0,4.1-0.2c1.3-0.2,2.5-0.6,4.1-1c-2.6,2.7-4,3.4-5.5,2.9
		c-1.9-0.5-3.5,0.5-4.3,2.4c-1.1,2.5-2.2,5-3.5,7.4c-0.8,1.6-2,2.4-4.1,2.1c-2.2-0.3-4.6-0.3-6.8,0.1c-1.4,0.3-2.4,2.3-4.2,1
		c-0.1-0.1-0.4,0.1-0.5,0.2c-1.1,1.3-2.7,1-4.1,1.3c-2.4,0.4-4.4,2.5-4.5,5c-0.1,1.6,0,3.2-0.2,4.7c-0.1,0.7-0.5,1.5-0.9,2
		c-1.6,1.9-5.3,2-6.9,0c-1.6-2-3.3-3.9-4-6.5c-0.2-0.7-0.6-1.3-1.1-2.2c-0.2,3.8,0.4,8.8,1.6,11.7c2.3,5.3,4.8,10.5,7.3,15.7
		c1.6,3.3,3.2,6.6,4.7,10c0.5,1,0.5,2.3,0.6,3.2c-2.1,0.6-3.1-0.7-4-1.9c-1.3-1.7-2.5-3.6-3.6-5.4c-1.5-2.4-3-4.6-5.8-6.4
		c0.7,4.7,1.1,8.8,2,12.9c2.2,9.8,3.8,19.6,7.4,29c0.9,2.4,1.5,2.8,3.7,1.7c0.7-0.3,1.2-0.9,1.9-1.2c0.4-0.2,1.1-0.4,1.2-0.3
		c1.3,2,3.4,1.4,5.1,2c2.3,0.8,4.4,2.6,6,4.9c1,1.4,2,2.8,3,4.1c2.6-1.1,4.9-2,7.2-2.9c1.7-0.7,3.5-0.8,5.3,0
		c1.2,0.5,2.7,1.1,3.9,0.9c5.8-0.8,10.5-3.7,13.4-9.2c0.7-1.2,1.6-2.3,1.5-3.9c0-0.3,0.3-0.9,0.5-0.9c1.6-0.5,1.3-1.8,1.2-3
		c0-0.7,0-1.5,0.3-2.2c1.8-5.2,3.6-10.4,5.3-15.7c1.3-3.9,2.5-7.8,3.6-11.7c0.3-0.9,0.3-2,0.4-2.9c-2.2,3.8-5,6.7-9,9.2
		c-0.1-1.9-0.5-3.4-0.1-4.7c1.2-4.6,2.4-9.2,3.9-13.7c1.3-3.8,3-7.4,4.5-11.1c0.8-2.1,1.2-4.3-0.5-7c-1,3.6-2.7,6.3-5.4,8.1
		c-0.1,0.1-0.2,0.2-0.3,0.3c0-0.2,0-0.5-0.1-0.7c2.9-8.5,6.9-16.4,11.6-24c4.3-7.1,8.8-13.9,14.6-19.7c3.9-3.8,6.3-8.6,9-13.3
		c0.4-0.7,0.5-1.5,0.7-2.3c-0.7,0-1-0.1-1.2,0c-2.7,1.6-5.7,2.2-8.8,3c-6.4,1.6-12.4,4.2-17.9,7.9c-1.5,1-2.8,2.4-4.2,3.6
		c-0.3,0.3-0.8,0.5-1.2,0.6c-2,0.4-3.4,1.7-4.6,3.3c-0.3,0.4-0.9,0.7-1.3,1.1c0.9-1.7,1.6-3.5,2.9-4.9c3.8-4.1,7.3-8.5,11.5-12.2
		c3-2.7,5.6-6,8-9.3c4.7-6.4,8.1-13.6,11-21.1c0.4-1.2,0.8-2.4,1.5-3.4c4.2-6.3,7.9-13,13.1-18.4c0.7-0.7,1.2-1.5,1.8-2.3
		c-3.2,1.4-6.2,3.1-9,4.9c-2.4,1.5-4.6,3.1-6.9,4.6c-3.2,2-6.5,4-9.7,5.9c-0.9,0.5-1.8,0.8-2.7,1.2c-1.5,0.6-3.3,0.6-4.3,1.7
		c-3.1,3.4-7.4,4.9-10.6,7.5c-1.2-0.2-2.3-0.7-3.1-0.4c-1.9,0.8-3.4,2.2-4.1,4.4c-0.6,2.2-1.3,2.7-3.4,2.6c-1.4-0.1-2.8-0.3-4.1-0.2
		c-2.6,0.1-4.5,1.5-5.6,4c-1.1,2.7-1.7,2.9-4.2,1.4c-2.1-1.3-3.7-3.1-5.2-5.1c-0.8-1-1.6-2.2-3.3-1.4c-0.3,2.6-0.6,5.2-1.1,7.9
		c-0.7,4.2-0.7,4.2-4.7,5c-0.2,0-0.4,0-0.7-0.1c-1.3-1.7-2.6-3.5-3.2-5.7C681.6,330.8,681.8,329.8,681.9,328.9z M710.3,371.2
		c0.9-1.7,1.9-3.1,4-3.3c0.8-0.1,1.4-1,2.2-1.6c0.8-0.5,1.5-0.9,2.3-1.4c-0.4,0.6-0.8,1.3-1.4,1.8c-1.7,1.6-3.4,3.1-5.1,4.6
		c-0.9,0.9-1.9,1-3,0.6C709.6,371.7,710.1,371.5,710.3,371.2z M709.2,372c-0.1,0.4-0.2,0.8-0.3,1.2c-0.1-0.1-0.2-0.1-0.3-0.2
		C708.8,372.7,709,372.3,709.2,372z"/>
	<path class="st0" d="M682.7,331.2C682.7,331.2,682.7,331.2,682.7,331.2C682.8,331.3,682.8,331.3,682.7,331.2c0.2,0,0.3,0,0.3-0.1
		C683,331.2,682.9,331.2,682.7,331.2L682.7,331.2z"/>
	<path class="st0" d="M328.4,451.8c-4-3.5-7.5-7.5-11.2-11.3c0.1-0.2,0.2-0.3,0.3-0.5c2.1,0.4,4.2,0.8,6.3,1.2
		c0.1-0.2,0.2-0.4,0.3-0.6c-0.7-0.6-1.3-1.2-2-1.7c-2.2-1.4-4.4-2.7-6.6-4.2c-3.7-2.5-7.4-5.1-9.9-9c-2.1-3.3-3.9-6.7-5.8-10.1
		c-0.4-0.6-0.6-1.3-1-2.2c1.8-0.4,3.4-0.7,5-1c1.6-0.3,3.3,1.3,4.9-0.4c-0.3-0.3-0.5-0.5-0.7-0.7c-3.9-2.8-7.7-5.6-11.6-8.3
		c-2.2-1.6-3.3-3.9-3-6.4c0.3-3.1-1.4-4.5-3.5-5.9c-1-0.7-1.8-0.6-2.6,0.5c-0.6,0.8-1.3,1.5-2.1,2.4c-0.7-0.1-1.1-0.2-1.6-0.2
		c-2.5-0.1-5.2-0.8-7,1.9c-0.2,0.3-0.8,0.4-1.3,0.3c-0.3,0-0.6-0.1-0.8-0.1c0.4-0.2,0.9-0.4,1.2-0.7c1.8-2,4.2-2.5,6.7-2.7
		c0.7-0.1,1.5-0.2,2.2-0.5c1.1-0.4,1.6-1.1,1.3-2.4c-0.1-0.4-0.1-0.8-0.1-1.5c0.8,0.4,1.3,0.5,1.7,0.8c0.8,0.4,1.6,0.4,1.9-0.4
		c0.5-1.3,1.5-1.2,2.5-1.2c1.9,0,3.9,0,5.2-2.1c-0.5-0.8-0.9-1.5-1.4-2.2c-0.5-0.6-1-1.1-1.6-1.6c-5.2-4.6-8.7-10.2-10.3-17.1
		c-0.4-1.8-0.9-3.5-1.3-5.3c-0.2-1-0.3-2-0.5-3.1c2.9-0.2,5.4-0.4,8-0.7c-1.1-3.4-3.5-5.4-5.6-7.5c-0.5-0.5-1.2-1.1-1.3-1.7
		c-0.4-2.5-1.7-4.1-3.8-5.3c-1.6-0.9-1.5-1.5-0.1-2.9c0.2-0.2,0.5-0.5,0.5-0.8c0.2-3.3,0.5-6.7-1.7-9.6c-1-1.3-1.8-2.9-2.6-4.3
		c1,0.1,1.5,0.4,2.1,0.9c1.3,1.2,2.5,2.6,4,3.5c2,1.2,3.5,2.7,4.7,4.7c0.8,1.2,1.6,2.2,3.5,2.4c-0.5-1.5-0.7-2.9-1.3-4
		c-4.1-7.2-7.2-14.8-9.8-22.7c-0.8-2.3-0.8-4.6-0.4-7.3c2.1,0.8,4.1,1.5,6.1,2.3c3.4,1.3,4.1,1.4,6,0.8c-0.9-0.9-1.8-1.7-2.6-2.6
		c-4.9-5.5-8.1-12-10.1-19.2c-0.3-1.2-0.2-2.5-0.3-4.2c5.1,1.9,9.3,5.1,14.9,6.3c-1.5-2-2.9-3.4-3.8-5.1c-3.1-5.8-6-11.8-9.1-17.7
		c-1.3-2.5-2.2-5-1.1-8c-1.6-1.2-3.1-2.4-4.6-3.4c-0.4-0.3-1.1-0.3-1.6-0.1c-1.8,0.6-3.6,1.4-5.4,2.1c-2.8,1.1-5.6,2-8.8,1.8
		c-4.1-0.2-4.1,0.1-7.1-2.1c-0.8-0.6-1.5-1.5-2.3-2.1c-0.5-0.4-1.4-0.8-1.9-0.7c-2.4,0.7-5.2-0.3-7.2,1.8c-0.1,0.1-0.3,0.2-0.5,0.2
		c-3.6,0.1-6.4,2.5-9.8,3.5c-2.2,0.6-3.7,2.5-4.6,4.6c-1.6,3.6-3,7.4-4.6,11c-0.9,2.1-2,4.1-3.2,6c-1.8,2.7-4,5.3-5.9,8
		c-1.1,1.6-2,3.3-3.1,5.1c5.6-1.6,10.8-3,15.9-4.5c0.6,3.4,1.2,6.5,1.7,9.7c0.1,0.7,0,1.5-0.1,2.3c-1.3,8.3-3.3,16.5-6.3,24.3
		c-0.5,1.4-0.7,2.9-1.2,4.7c4.1-2,7.8-3.7,11.4-5.4c1.1,0.9,0.8,3.1,2.8,3.3c0.3-0.4,0.7-0.9,1-1.3c2.4-3.5,5.3-6.5,9-8.8
		c1.6-1,3-1,4.7-0.3c2.1,0.9,4.3,1.6,6.5,2.4c0.2,0.1,0.4,0.3,0.9,0.8c-0.9,0-1.5,0.1-2.1,0c-1.6-0.4-3.2-1-4.7-1.5
		c-2.4-0.8-4.8-0.3-6.3,1.4c-2,2.2-4.5,3.8-6,6.5c-1.1,2-1.9,3.8-2.1,6.1c-0.2,3.6-0.4,7.2-0.9,10.8c-0.2,1.8-0.9,3.7-1.7,5.4
		c-1.4,3.3-3,6.5-4.5,9.7c0.1,0.1,0.3,0.3,0.4,0.4c2.1-2.4,5-3.7,7.6-5.3c2.6-1.6,4.9-3.8,7.6-5.9c0.3,9.7-1.6,19.1-2.5,28.6
		c0.8-0.8,1.4-1.7,2-2.6c1.8-2.8,3.6-5.7,6.2-8c1.8,4.4,2,6.2,2,10.8c0,2.5,0.2,4.9-1.1,7.2c-1.6,2.8-0.9,5.5,0.8,8.1
		c1.3-0.2,2.5-0.4,3.6-0.4c2.1-0.1,2.9,0.3,3.4,2.5c0.7,3,2.5,4.7,5.1,5.8c2,0.8,3.9,1.7,6.1,1.5c0.7,0,1.5,0,2.2,0
		c-0.2,0.5-0.5,0.8-0.7,0.8c-3.4-0.7-6.7-1.5-10.1-2.3c-1.2-0.3-2,0.1-2.3,1.3c-0.5,1.5-1.1,2.9-1.3,4.4c-0.4,2.5-1.5,5.2,0.7,7.9
		c1.8-1,3.5-2,5.5-3.1c0.3,1.2,0.6,2.1,0.8,3c5,1.9,6.6,3.9,5.9,9.1c0,0.2-0.1,0.4-0.1,0.6c-0.7,4.8-0.1,9.5,1.5,14.1
		c0.6,1.6,1.6,2.9,2.7,4.7c1.8-4.7,1.9-9.8,6-12.9c0.5,0.8,0.9,1.7,1.4,1.9c1.6,0.5,2.3,1.9,3.2,3c2.1,2.5,4.1,5.1,6.1,7.7
		c1.4,1.7,2.7,3.4,2.8,5.9c0.1,2.5,0.9,4.9,1.4,7.3c0.6,2.7,1.7,5,3.5,7c0.7,0.8,1.7,1.4,3,2.5c-1.1-5.3-2.5-10,2.1-13.6
		c2.6,1.9,5,3.6,7.3,5.4c0.4,0.3,0.7,0.9,0.9,1.3c1.9,3.6,3.7,7.2,5.8,10.6c1,1.6,2.4,3.1,4.5,3.6c-2.1-5.9-2-6.1,1-8.1
		c4.7,2.4,9.5,4.8,14.3,7.3c6.2,3.3,12.8,4.2,19.7,4c-4.4-2.8-9.5-4.4-13.5-8C337.1,458.3,332.5,455.4,328.4,451.8z M275.9,338.9
		c0-0.1-0.1-0.3-0.1-0.4c0.1,0.1,0.2,0.2,0.4,0.3C276.1,338.8,276,338.9,275.9,338.9z M275.6,338.3c-2.1-0.7-3-2.1-3-4.9
		c0.6,1,1.1,2,1.7,3C274.7,337,275.2,337.6,275.6,338.3z M274.4,321.1c0.3,0.4,0.6,0.8,1.2,1.5c-2.6-1.3-6.5-5.3-8.2-8.2
		c0.3,0.1,0.6,0.1,0.8,0.3C270.3,316.8,272.3,318.9,274.4,321.1z M272.6,333.4c-0.2,0.1-0.4,0.2-0.6,0.4c0-0.1-0.1-0.3-0.1-0.4
		C272.2,333.3,272.4,333.4,272.6,333.4z M260.3,321.2c-0.3-0.5-0.5-1.1-0.8-1.6c0.1-0.1,0.2-0.1,0.4-0.2c0.3,0.5,0.6,1,0.9,1.6
		C260.7,321,260.5,321.1,260.3,321.2z M258.3,316.1c-0.6-0.7-1.3-1.5-2-2.4c2.4-2,4.9-3.9,8.4-2.5c1.2,0.5,2,1.1,2.2,2.4
		c-0.6-0.3-1.3-0.5-1.9-0.9C261.3,310.7,258.7,311.3,258.3,316.1z M268.1,329.2c-1.7-1.4-3.3-3-4.9-4.5c-0.4-0.3-0.6-0.8-0.6-1.5
		c2.1,1.8,4.3,3.6,6.3,5.6c0.3,0.2,0.3,0.7,0.4,1.1C268.9,329.7,268.4,329.5,268.1,329.2z M270.7,331.5
		C270.7,331.5,270.7,331.5,270.7,331.5C270.7,331.5,270.7,331.5,270.7,331.5C270.7,331.5,270.7,331.5,270.7,331.5z M270.9,395
		c0.1-0.2,0.1-0.4,0.2-0.5c0.9,0.3,1.8,0.7,2.7,1C272.8,395.4,271.9,395.2,270.9,395z"/>
	<path class="st0" d="M747.4,571.8c-1.4-2.4-2.7-4.8-4-7.2c-1.3-2.3-2.4-4.8-3.9-6.9c-1.9-2.7-3.1-5.6-4.1-8.7
		c-1.3-4-2.2-8.1-2.4-12.3c-0.3-5.2-0.4-10.3,1.1-15.4c0.9-2.9,1.6-5.9,2.3-8.9c0.3-1.3,0.5-2.7-0.4-4.3c-0.3,0.6-0.5,0.9-0.7,1.2
		c-1.9,3.6-3.8,7.2-5.8,10.8c-1.1,2-2.5,3.7-5,4.3c-1.1-8.6-0.5-16.7,2.8-24.6c1.4-3.2,2.9-6.4,4.2-9.7c1.2-2.9,2.3-5.8,3.4-8.7
		c0.1-0.3,0.2-0.6,0.3-0.9c-0.2,0.1-0.5,0.3-0.7,0.4c0,0,0,0,0,0c-0.7,0.8-1.5,1.7-2.2,2.5c-1.4,1.5-2.7,3.1-4.2,4.5
		c-2.7,2.5-5.5,4.8-8.2,7.2c-0.4,0.4-0.9,0.7-1.6,1.2c-0.2-2.6,0.4-4.7,1.4-6.7c1-1.9,2-3.9,3-5.8c2.6-4.7,4-9.8,5.2-15
		c0.3-1.4,0.3-2.8,0.3-4.3c0-0.5-0.5-1.1-1-2.2c-1.1,2.3-1.9,4-2.8,5.7c-0.9,1.8-1.9,3.4-3.7,5c-1.4-1.8-2.6-3.5-3.9-5.1
		c-1,0.6-1.9,0.9-2.5,1.6c-2.9,2.8-5.8,5.4-9.9,6.2c-0.4,0.1-0.8,0.5-1,0.6c-1.6-0.8-3-1.8-4.6-2.1c-1.7-0.4-3.6-0.1-5.4,0
		c-1.6,2.1-3.6,2.1-6.1,1.9c-2.4-0.2-4-1-4.9-2.9c-1.6-3.1-3.8-5-7.1-5.5c-2.3-0.4-4.6-0.2-6.4,1.7c-0.6,0.6-1.3,1.1-2.1,1.8
		c0.3,5,1.8,10.1,0.2,15.7c-2.4-3.6-3.6-7.3-4.4-11.3c-2.3,7.9,0.2,15.5,1.1,23.4c-3.1-1.3-4.1-4-5.3-6.6c-1.1-2.5-2.1-5.1-3-7.7
		c-0.9-2.6-1.7-5.1-2.5-7.7c-0.2,0.7-0.2,1.2-0.1,1.8c0.3,11.4,2.4,22.3,6.3,33c1.8,5.1,3.1,10.4,4.6,15.6c0.6,2.2-0.4,7.1-1.8,9.2
		c-0.4-0.2-0.8-0.4-1.1-0.7c-3.4-3.3-6.2-7-8.8-11c-1-1.6-2.1-3.2-3.2-4.9c-0.1,0.4-0.3,0.9-0.2,1.3c1.1,4.9,2.3,9.8,3.4,14.7
		c1.7,7.2,2.6,14.4,1.4,21.8c-0.2,1.2-0.1,2.8,0.4,3.8c0.6,1.1,1.8,2.5,2.9,2.7c2.5,0.4,3.2,2.1,3.9,4.1l-0.1,0c0,0,0,0,0,0
		c0,0,0,0,0,0c-0.6-0.2-1.2-0.4-1.7-0.7c-1.7-1.1-3-2.8-5.4-2.7c-1.5,0.1-2,0-2.2,1.6c-0.2,1.9-0.9,3.4-1.9,5
		c-2,3.2-4.2,6.3-5.8,9.7c-2.2,4.8-4,9.8-6,14.7c-0.2,0.6-0.4,1.2-0.5,1.8c1.2-0.7,1.8-1.6,2.6-2.5c1.3-1.6,2.5-3.3,4.1-4.6
		c2.7-2.2,5.5-4.1,8.3-6.1c2.5-1.8,5.2-3.2,8.4-3.2c0.9,0,2.3-0.7,2.5-1.3c0.4-1.6,1.3-2.3,2.7-2.9c0.2-0.1,0.3-0.6,0.6-1.1
		c-2.3-1.1-3.6-2.9-4-5.4c-0.7-0.4-1.5-0.7-1.1-1.8c0,0,0,0,0.1,0.1l-0.1-0.1c0.9,0.2,1.6,0.6,1.2,1.7c0.6,0.1,1.4,0.1,1.5,0.4
		c0.7,1.2,1.8,2.1,2.4,3.2c1.5,2.8,3.5,2.9,6.1,2.4c3.1-0.6,6.2-0.9,9.1-1.3c0.3,0.4,0.4,0.5,0.5,0.7c1.4,7.1,3,14.2,3.6,21.4
		c0.5,6.2,1.4,12.3,2.2,18.5c0.1,0.5,0.4,1,0.6,1.5c0.5-2.3,0.6-4.5,0.5-6.7c-0.3-4.7,0.2-9.4,1.1-14c0.8-3.6,1.4-7.3,2.2-10.9
		c1.1-4.7,3.6-8.8,6.1-12.8c0.3-0.5,0.8-1,1.5-1.9c2.9,15.6,3.6,30.9,5.9,46.1c0.4-1.1,0.7-2.1,0.8-3.2c0.4-5.5,0.7-11,1.1-16.5
		c0.6-8.2,3-15.9,6.6-23.2c2.1-4.2,2.3-4.3,6.9-3.7c0.2,0,0.3,0.2,0.6,0.3c3.3,8.3,3.7,17.5,5.9,26.2c0.9-3,1.7-6,2.3-9
		c0.4-2,0.3-4,0.6-6c0.4-2.8,0.6-5.7,2.1-8.3c0.7,0.2,1.3,0.4,1.9,0.6c3.3,1.2,6.1,3.1,8.7,5.4c2.9,2.4,6.3,3.3,10.3,3.5
		c-1.1-3.6-1.9-6.9-4.4-9.4C748.6,573.4,747.9,572.6,747.4,571.8z"/>
	<path class="st0" d="M649,520C649,520,649,520,649,520C649,520,649,520,649,520c0,0-0.1,0.1-0.1,0.1L649,520
		C649,520.1,649,520.1,649,520C649,520.1,649,520.1,649,520L649,520z"/>
	<path class="st0" d="M428.9,543.2c4.5,2.2,8.3,5.1,12.9,6.6c-0.5-1.5-1.1-2.7-1.8-4c-2.1-3.9-4.5-7.7-6.4-11.7
		c-1.2-2.6-2.1-5.6-2.3-8.5c-0.1-1.7-0.8-2.7-1.8-3.5c-0.8-0.7-2.4-1.2-3.2-0.9c-2.4,1-4.5,2.4-6.8,3.7l0.1-0.1c0,0,0,0,0,0
		c0,0,0,0,0,0c-1.6,1.3-3.2,2.2-5.2,2.7c-2.3,0.6-4.7,1.8-5.6,4.5c-1,2.9-2.2,5.5-4.2,7.9c-1.1,1.3-2.2,2.3-3.8,2.9
		c-2.8,1.1-5.8,1.6-8.4,3.4c-1.5,1-2.8,1.9-3.5,3.8c-1.1,3-2.5,5.9-3.8,8.8c-1,2-2.1,4-3.1,6c-0.8,1.6-1.6,3.2-2.6,4.6
		c-0.7,1.2-1.9,2.1-2.5,3.3c-1.3,2.8-2.3,5.8-3.5,8.7c-1.3,3.2-1,6.6-1.4,10.6c3.7-3.3,6.4-7.2,11-8.2c0.8,3.8,1.6,7.4,2.4,11.1
		c0.1,0.7-0.1,1.5-0.2,2.2c-1.5,7.3-1.3,14.6-0.5,22c0.4,3.8,1.2,7.6,2.7,11.6c1.6-3.2,3-6,4.6-9.2c0.6,1,1.1,1.6,1.4,2.2
		c1.4,3.9,2.7,7.7,4,11.6c2.5,8,5.1,16,8.9,23.4c1.3,2.5,3.3,4.1,5.2,6.6c0.1-1.1,0.1-1.4,0.2-1.8c0.3-7.6,1.9-14.9,4.2-22.1
		c2-6,3.3-12.1,4.8-18.2c0.4-1.6,0.7-3.3,1.1-5.2c1.8,4.2,3.5,7.9,5.5,12.3c0.8-4.2,1.3-7.8,0.9-11.4c-1.1-10.5-1.1-21-0.1-31.5
		c0.1-1.5-0.1-3-0.2-4.5c-0.1-1.6-0.2-3.3,0.1-5.2c4.5,2.9,7.7,6.9,12.7,9.5c-0.3-1.1-0.4-1.7-0.7-2.1c-1.4-2.8-2.9-5.5-4.1-8.4
		c-1.5-3.6-2.9-7.2-4.2-10.9c-2.4-6.8-3.8-13.8-3.2-21.1C428.5,544.5,428.7,543.9,428.9,543.2z"/>
	<path class="st0" d="M519.8,136.4c0.2,1.3,0.6,2.6,0.5,3.9c-0.1,2.6-0.6,5.1-0.7,7.7c-0.1,2.7,0,5.5,0,8.2c0.8,0.4,1.4,0.6,1.9,1
		c3,2.2,6.2,3,9.8,2.4c3.1-0.5,5.9-1.2,8.9-2.5c2.9-1.3,5.2-3.1,7.7-4.7c2.4-1.5,2.4-3.3,2.1-5.7c-0.3-2.4-0.5-5,0-7.4
		c0.6-3.3,1.9-6.4,2.9-9.6c0.8-2.4,1.6-4.7,2.3-7.1c-0.1-0.1-0.3-0.3-0.4-0.4c-2.3,1.4-4.7,2.7-7.3,4.2c-0.2-1.8-0.3-3.3-0.4-4.8
		c-0.1-2,0.1-4-0.2-6c-0.8-6.2,0.9-11.7,3.5-17.1c0.7-1.4,1.5-2.7,2.5-4.4c-2.8,0.4-4.5,2.2-6.8,3.3c-0.1-4.1,0.8-7.8,1.6-11.4
		c2-8.3,4.1-16.7,5.9-25.1c0.9-4.4,1.3-8.9,3.2-13c0.2-0.4,0-1,0-1.6c-2.4,3.3-4.9,6.6-7.3,9.9c-3.1,4.2-5.9,8.5-8.1,13.3
		c-1.5,3.2-3,6.4-4.5,9.5c-0.3,0.5-0.6,1-1.3,2.1c-0.1-2-0.2-3.3-0.2-4.6c-0.2,0-0.4,0-0.7-0.1c-0.5,1.9-1.1,3.8-1.5,5.7
		c-0.6,3.5-0.6,7.2-2.1,10.6c-0.7,1.5-1.2,3-1.5,4.6c-0.5,2.4-1.5,4.2-4.2,4.4c-1.9-1.9-0.8-4.6-1.7-7.4c-0.3,1.1-0.5,1.5-0.5,1.9
		c-0.9,5.7-0.8,11.4,0.3,17.1c0.3,1.5,0.3,3,0.1,4.5c-0.5,3.3-1.2,6.6-1.9,9.8c-0.1,0.5-0.4,0.9-0.8,2c-0.6-2.2-1.1-3.8-1.5-5.4
		c-0.6,0.7-0.9,1.5-0.8,2.1C518.8,129.8,519.3,133.1,519.8,136.4z"/>
	<path class="st0" d="M810.3,594.2c-2.6,2.7-4-0.2-5.6-1.3c-1.5,0.5-2.9,0.9-4.4,1.3c-1.4-1.4-3.1-1.1-5-0.5
		c-0.7,0.2-1.5-0.1-2.3-0.3c-0.6-0.2-1.1-0.7-1.6-1c-1.1,0.6-2,1.2-3,1.6c-1.5,0.5-3,1.1-4.5,1.1c-1.1,0.1-2,0.1-3.1,0.4
		c-1,0.3-2.1-0.2-3.2-0.3c-1.6-0.1-2.8,0.6-3.6,2.1c-0.2,0.3-0.3,0.8-0.6,0.9c-1.8,0.8-1.4,2.1-1,3.6c0.7,2.6,1.5,5.1,1.8,7.8
		c0.7,5.4,0.4,10.9-0.4,16.3c-0.3,2.1-0.1,4.1,1.1,6.4c0.8-2.9,1.9-5,4.5-6.3c4.4,13.9,9.5,27.2,17.7,39.3c0.3-0.6,0.6-1,0.7-1.4
		c2.5-8.4,3.5-17.1,4.8-25.8c0.7-4.7,2.2-9.2,3.3-13.8c0.3-1.3,0.4-2.6,0.7-3.8c0.6-2.6,1.5-5,2.6-7.9c1.5,1.6,2.8,2.9,3.9,4.2
		c1.2,1.3,1.7,3.2,3.5,4.2c0.2-10.7-0.9-14.6-3.1-21.9C812.9,596.9,812.1,595.2,810.3,594.2z"/>
	<path class="st0" d="M582.4,278c0.4-1.6-0.5-2.8-1.6-3.3c-0.8-0.3-2.1-0.7-3.1,0.5c-1.8,2-4.4,1.9-6.8,2.1
		c-1.4,0.1-2.7,0.1-3.4,1.6c-0.4-0.2-0.7-0.2-0.9-0.4c-2-1.2-3.9-1.8-6.3-1.2c-2.4,0.6-5,0.1-7.2-1.1c-1.9-1-3.7-2.2-5.5-3.3
		c-1.1-0.7-2.1-0.9-3.3-0.2c-1.5,1-3.2,1.7-4.7,2.4c-0.1,3.2,0.7,6,2.3,8.5c1.3,2,2.2,4.1,2.7,6.5c0.5,2.3,0.8,2.4,3.1,2.8
		c1.7,0.3,3.6,0.4,3.9,2.9c0.1,0.5,0.6,0.9,1,1.2c2.6,2.5,5.2,5,7.8,7.4c0,1.5-0.2,2.8,0.1,4.1c0.2,0.9,0.8,1.9,1.5,2.6
		c1.5,1.4,2.9,0.2,3.8-0.6c3.9,3.1,7.6,6.1,11.5,8.9c3.8,2.7,7.3,5.9,11.5,8.1c-0.2-0.9-0.6-1.6-1-2.3c-0.5-0.9-1-1.8-1.3-2.8
		c-1.8-5.9-3.7-11.8-5.4-17.7c-1.5-5.4-2.4-10.9-0.5-16.6C581.4,284.9,581.7,281.4,582.4,278z"/>
	<path class="st0" d="M207,79.7c0.5-3.1,1.4-6.4-0.9-9.3c-1.5-2-2.7-4.3-4.4-6.2c-6.3-6.8-9.4-15.1-11.5-24
		c-0.5-1.9-0.6-3.9-0.9-5.9c-0.7,2.7-1.5,5.3-1.5,8c-0.2,9.1,0,18.1,2.4,27c1.4,5.1,2.6,10.3,3.9,15.5c0.8,3.2,1.7,6.4,2.5,9.6
		c2.1-0.1,3.3-1.4,4.4-2.8c0.8-1,1.6-1.9,2.9-2.2c0.1-0.9,0-2,0.5-2.6C206.1,84.8,206.6,82.2,207,79.7z"/>
	<path class="st0" d="M357.8,446.5c-5.1-5.3-8.7-11.5-12.5-17.8c-0.6-1-1.2-2-1.4-3.1c-0.9-3.5-1.7-7-2.4-10.6
		c-0.4-2.3-1.1-4.4-2.8-5.6c-0.8,0-1.6,0.2-2,0c-2.6-1.7-5.5,0.3-8.2-0.7c-0.5-0.2-1.4,0.8-2.3,1.4c0.3,3.8,0.2,3.8,2.3,6.9
		c2.7,4,5.6,7.8,8.1,11.9c3.3,5.1,6.8,10,11.6,13.6c1.3,1,2.5,2,3.6,3.1c2.7,2.9,6.1,4.9,9.4,7c0.5,0.3,1,0.4,1.6,0.6
		C361.2,450.7,359.6,448.4,357.8,446.5z"/>
	<path class="st0" d="M662.5,571C662.5,571,662.5,571,662.5,571C662.6,571,662.6,570.9,662.5,571C662.6,570.9,662.5,570.9,662.5,571
		C662.5,570.9,662.5,570.9,662.5,571z"/>
	<path class="st0" d="M808.2,237.1c0.7,0.2,1.1,0.4,1.6,0.5C809.4,237.3,809.5,236,808.2,237.1z"/>
	<path class="st0" d="M809.8,237.6c0,0,0.1,0.1,0.1,0.1c0,0,0,0,0,0C809.8,237.7,809.8,237.6,809.8,237.6z"/>
	<path class="st0" d="M435.1,431.9c0.1-0.2,0.3-0.3,0.4-0.5c0,0-0.2-0.2-0.2-0.2C435.2,431.5,435.1,431.7,435.1,431.9z"/>
	<path class="st0" d="M492.6,322.1c0,0.3,0.1,0.6,0.1,0.9c0.1-0.1,0.2-0.2,0.2-0.2C492.8,322.6,492.7,322.3,492.6,322.1z"/>
	<path class="st0" d="M865.8,307.1c-0.1-0.2-0.2-0.4-0.3-0.5c-0.1,0.1-0.2,0.2-0.3,0.3C865.5,306.9,865.6,307,865.8,307.1z"/>
	<path class="st0" d="M662.4,44.7c0,0.3-0.1,0.7-0.1,1c0.1-0.1,0.3-0.2,0.4-0.3C662.5,45.1,662.4,44.9,662.4,44.7z"/>
	<polygon class="st0" points="683.8,65.2 683.7,65.3 683.9,65.4 	"/>
	<path class="st0" d="M912.9,384.9C912.9,384.9,912.8,384.8,912.9,384.9C912.8,384.9,912.8,384.9,912.9,384.9
		C912.8,384.9,912.9,384.9,912.9,384.9z"/>
	<path class="st0" d="M912.8,385.1c0-0.1,0-0.1,0.1-0.2c0,0-0.1,0-0.1,0.1C912.7,385,912.7,385.1,912.8,385.1z"/>
	<path class="st0" d="M771.8,165.8c-0.2,0-0.4,0-0.6,0c0.1,0.1,0.2,0.2,0.3,0.3C771.6,166,771.7,165.9,771.8,165.8z"/>
	<path class="st0" d="M775.7,172.1C775.7,172.1,775.7,172.1,775.7,172.1L775.7,172.1C775.6,172.1,775.6,172.1,775.7,172.1
		C775.6,172.1,775.6,172.1,775.7,172.1C775.6,172.1,775.6,172.1,775.7,172.1C775.6,172.1,775.6,172.1,775.7,172.1
		C775.7,172.1,775.7,172.1,775.7,172.1C775.7,172.1,775.7,172.1,775.7,172.1z"/>
	<path class="st0" d="M775.8,172.2c0,0-0.1,0-0.1,0c0,0,0,0.1,0,0.1C775.7,172.2,775.8,172.2,775.8,172.2z"/>
	<path class="st0" d="M213.8,261.6C213.8,261.6,213.8,261.7,213.8,261.6L213.8,261.6C213.9,261.6,213.9,261.6,213.8,261.6
		C213.9,261.6,213.9,261.6,213.8,261.6C213.9,261.6,213.9,261.6,213.8,261.6C213.9,261.6,213.9,261.6,213.8,261.6
		C213.9,261.6,213.9,261.6,213.8,261.6C213.9,261.6,213.9,261.6,213.8,261.6z"/>
	<path class="st0" d="M213.7,261.6C213.8,261.6,213.8,261.6,213.7,261.6c0.1,0,0.1,0,0.1-0.1C213.8,261.5,213.8,261.6,213.7,261.6z"
		/>
	<polygon class="st0" points="889.2,440.3 889.3,440.4 889.4,440.3 	"/>
	<path class="st0" d="M664.1,325.1C664.2,325.1,664.2,325,664.1,325.1C664.1,325,664.1,325,664.1,325.1L664.1,325.1z"/>
	<path class="st0" d="M664.1,325.4c0-0.1,0-0.2,0-0.3c0,0-0.1,0.1-0.1,0.1C664,325.3,664.1,325.4,664.1,325.4z"/>
	<path class="st0" d="M664.1,325.1C664.1,325.1,664.1,325,664.1,325.1C664.1,325.1,664.1,325.1,664.1,325.1
		C664.1,325.1,664.1,325.1,664.1,325.1z"/>
	<path class="st0" d="M623.1,328.2c0.1-0.1,0.2-0.1,0.2-0.2c0,0-0.1-0.1-0.1-0.1C623.2,328,623.1,328.1,623.1,328.2z"/>
	<path class="st0" d="M472,500.1C472,500.1,472.1,500,472,500.1C472,500.1,472,500.1,472,500.1C471.9,500.1,472,500.1,472,500.1z"/>
	<path class="st0" d="M471.7,500.3c0.1,0,0.1-0.1,0.2-0.1c-0.1,0-0.1,0-0.1,0C471.7,500.1,471.7,500.2,471.7,500.3z"/>
	<path class="st0" d="M710.6,321.8C710.6,321.9,710.6,321.9,710.6,321.8c0.1,0.1,0.2,0.2,0.3,0.2c0,0,0,0,0,0c0,0,0,0,0,0
		c0,0,0,0,0,0C710.8,322,710.7,321.9,710.6,321.8z"/>
	<path class="st0" d="M556.9,46.4C556.9,46.3,556.9,46.3,556.9,46.4L556.9,46.4C556.8,46.3,556.8,46.3,556.9,46.4
		C556.8,46.3,556.8,46.3,556.9,46.4C556.8,46.3,556.8,46.3,556.9,46.4C556.8,46.4,556.8,46.4,556.9,46.4
		C556.8,46.4,556.9,46.4,556.9,46.4C556.9,46.4,556.9,46.4,556.9,46.4z"/>
	<path class="st0" d="M557,46.4C556.9,46.4,556.9,46.4,557,46.4c-0.1,0-0.1,0-0.1,0C556.9,46.4,556.9,46.4,557,46.4z"/>
	<path class="st0" d="M374.2,193.1C374.2,193.1,374.1,193,374.2,193.1L374.2,193.1C374.1,193,374.1,193,374.2,193.1
		C374.1,193,374.1,193,374.2,193.1L374.2,193.1c-0.1-0.1-0.2-0.1-0.2-0.1c0,0,0,0.1,0,0.1C374.1,193.1,374.2,193.1,374.2,193.1z"/>
	<path class="st0" d="M989.1,61.5C989.1,61.5,989.2,61.6,989.1,61.5C989.2,61.6,989.2,61.6,989.1,61.5z"/>
</g>
</svg>
